<mxfile host="app.diagrams.net" modified="2023-01-11T07:08:31.128Z" agent="5.0 (Windows NT 10.0; Win64; x64) AppleWebKit/537.36 (KHTML, like Gecko) Chrome/108.0.0.0 Safari/537.36" version="20.7.4" etag="vhUsYvFmRuFY6C9LDf17" type="github">
  <diagram id="h8hnwkzajOG22j749aKv" name="Page-1">
    <mxGraphModel dx="794" dy="413" grid="1" gridSize="10" guides="1" tooltips="1" connect="1" arrows="1" fold="1" page="1" pageScale="1" pageWidth="850" pageHeight="1100" math="0" shadow="0">
      <root>
        <mxCell id="0" />
        <mxCell id="1" parent="0" />
        <mxCell id="-I--7wGIwqfK-wc9E1gI-1" value="" style="rounded=0;whiteSpace=wrap;html=1;strokeColor=none;" vertex="1" parent="1">
          <mxGeometry x="40" y="40" width="640" height="400" as="geometry" />
        </mxCell>
        <mxCell id="-I--7wGIwqfK-wc9E1gI-2" value="" style="shape=image;verticalLabelPosition=bottom;labelBackgroundColor=default;verticalAlign=top;aspect=fixed;imageAspect=0;image=data:image/png,iVBORw0KGgoAAAANSUhEUgAAAPAAAAIICAYAAABQC2PPAAAAAXNSR0IArs4c6QAAIABJREFUeF7sXQV0FMkWvTNxDxBCsOAs7u62uLtLkODOx5ZFFlvcXYIFd3eCu7s7cYjbyD/v9XQyCQkMkCwJVP/PJpmprq669e6zqq5SaLVaLcQlEBAIpEgEFILAKXLcRKMFAoyAILAQBIFACkZAEDgFD55oukBAEFjIgEAgBSMgCJyCB080XSAgCCxkQCCQghEQBE7BgyeaLhAQBBYyIBBIwQgkKYFpjYhCoYgXHnn9iPz9l8qmYHxF038xBOLKrdy9hOTXELnWL2NIeX1Ik4zA+gu84iNx3IbKf3/tvl9MHkR3UhgCspx+/PgRAQEBcHBwgJWV1WeGisppNBr4+voiIiLiq700MjKCra0tbGxsvlo2SQn85MkTuLq64s2bN8iYMSPc3NyQNWtWREZGwsTEJLqjgYGBqFu3LqjhHh4e3KZjx45h3LhxDEyuXLmwYMECZMiQ4Zs6JAoLBJIKASLtzp07MX/+fNy7d48JamxsjAoVKqB///6oU6cOyzhdKpUKp0+fRnh4ONRqNZRK5WfNIsOWM2dO5gCV9/T05L+JN4ZeiWqBqaEFChTAwIED0aNHD3Tr1g2kiVasWAEnJyds27YNFStW5LZRGQsLC2zYsIHJTmDkyJEDU6dORcuWLVG5cmWUKlUK06dPT9ANN7STopxA4EcRIDkuXLgw7t+/z3Lat29fNky3b99mQnt7e6NZs2bYunUrP4rIeOfOHdSvX5+NV3wXEfjChQsoXbo0f03PuHHjBooWLWqwzCcqgakBpKXMzc35Z5MmTTBgwAC0a9cOZ8+eRaFChdhNoN/btGnDP0l7EYHp3ho1ajBILi4uaNiwIf755x++V1wCgZ+NAFlIkseaNWsiderUbFhevXqF4sWLY8iQIdi3bx9bWjJcdL1//56tdL169RAVFZVg88lKy0aNOHDt2jU2ZmS8DLkSncCkVXbv3o1Zs2axVlq7di1KlizJBKXvCAhyNcaOHYu8efOiSJEieP36Nbd16dKlDAy5zaTBduzYgYIFCxrSD1FGIGAQAvElieK+kEdymlCy6tSpU6hevToyZcrE/4ikdF2+fBm5c+eObsO7d+/4O7LAhhKYbiYCv3jxgq05XQklgeUHJSqBSXOQNU2XLh3MzMxYK5EFfvbsGVatWsVW9fjx4xg9ejTHDKGhoewyz507Fx06dIC9vT3Onz/Pbvj48eNx5swZLi8ugUBiIkAuLRkSCuEowURya2lpibCwMCYuxasU6xJ5WrVqFYtEISEhmDBhAgYNGgT63draGtu3b0evXr1ilfseAssWOG3atMiSJUu00ftS3xOVwAQGWdXOnTtj+PDh7Ao/evQIV69eRe3atZmoBBb5/XRRsorcktWrV6NBgwZIlSoVW2HSPo0aNWKX5PDhw4k5dqIugQAblE+fPiFfvnzsBhMRyRWmmJXITZ/v2rWLSU6GJb6rVq1aIGtMsfDMmTM/K0LZ57t37zIX6BnxXZQAe/jwIcfU8nXz5k32Sg29EpXA9NDnz59j4sSJ7D4QmSmrTMF+fC6Jv78/Ro4ciSVLlrD2IrLS7/Q5gThixAjWROISCCQmAhTaBQcHI3PmzDzNQ5nibNmysfdIRoOywJcuXeLscNmyZeN9tI+PD9zd3dGnTx/OROtfJOv0jwhMioIUwdf2zSCrT8+jPBF5ooZeiU5g+cFx53W/5svH1+BvndQ2tNOinEAgLuHob0PWK8Qn31+S7aSW4SQjsBARgYBAIOkREAROeozFEwQCSYaAIHCSQSsqFggkPQKCwEmPsXiCQCDJEBAETjJoRcUCgaRHQBA46TEWTxAIJBkCgsBJBq2oWCCQ9AgIAic9xuIJAoEkQ0AQOMmgFRULBJIeAUHgpMdYPEEgkGQICAInGbSiYoFA0iMgCJz0GIsnCASSDAFB4CSDVlQsEEh6BASBkx5j8QSBQJIhIAicZNCKigUCSY+AIHDSYyyeIBBIMgQMJLCWG0D/vfdWg4WHozChpRkcbBRI4NwFaLWxX5COb+OwJOtVCqw4/k3UCPH4EU6oi2Jj/GQ4+FotQu4dQvDVrVB9fAttVDiUppYwTu0Mm3IdYJ6jwlc3r0uoVwYSWCLvpadqDHALRy4nIyxwMYWdhSLeB4dFahAaBaSxitnMWtpmBPgYClibAWYm3yaYyXBYErVJtBcTbb9C+4LR5uC0tcuNGzeRN28e3vn/Wy6698iRIyhevAQcHdN+y62ibGIjoAU+nZyH0LuHYJ6jLELvHYVNmXYIvrwRloXq8ec25TrBpkzHb1TVUkO/SOCYbXGAS8/U6L86AuntFVjX1wy2Fp/vNK/RaHHojhpz90dBqwHS2AGLupohlaUCL3w0GLgmCuERtJs9MLWtGfJnUkqNVijQZ3UEquZTokXpmP2F6k8Px+b+5rAyVVBLseKUCpamQNtyVCblKwAZX9ofu2/f/ggPC+d+rVy1jDc2y5MnH/bs2RW9yZm83SkdN0XKUL5iPpcwod0+a9Wsg7HjxvBe25L6le6JexaV/tZH+lvDnDt3DoMGDcG5c2ewf/9+DB48lPd+ot1GK1euhDFj/uLdR8X1ZQRC7hzAp6Ozkbb9IoTc2AV1iB8cmk6Ft3tfmDkXglmWEvDdPBRpGo+HRU7p0INvub5KYOLJmUdqjHaPRM70SizoYgYrM2bdZ8/xD9Gg9ZwIbBxgBkszBR6802DfNRX61jZB50XhWNDFHI52CgSEatF1aQSWdzeDk70CXoFatJgdgexOCri5mrGQkWCVHh2GGoWMMLk1PxDLTkTC2kyBtuWl4yt+lats2fJwcemCRo0a4vTpM5gw4R8mTr58BZjAjo7pkCqVPW99KhFRy5uxmZgYw84uFRQKLUJDw3hTNNphUT6Xx87OjrdIpe1SyYq/ePESzs6ZmYiEMR1vQ2Sn+kNCgnmLVJnEpFT69x+IixfPY9++/Zg1azY2bFjHnsHkyVNw7959XLhw7lcZgiTphyYsAO8XN4VCaQxjawdEfXwLIwt7KMytoQn9BG1kKIzsM0Id6AkjW0ekc1nLZb/l+iqBj95RY9zWSJTMqcT4Fmawt0zY8gWEatBqbgRmdDRF/oxGrPhVGi1O3FPj0G0VZrU3j6Y9WeTUVgrYWQL0DJ9gLa4+06BNOWOUzG7EfRi2PgLWFkCZ3ErUKmCMZadUsDIB2lX4dQhMZCtTpjwaNWrAOxza2dnAx8cPFhbmyJs3P2rW/BP+/h/5SI9FixaiYsUKaNuWTqtQsMtNZ0gtWrQArVu3RVRkFD4FfELz5s2waNFizJo1AxYWlujcuQtKlSoJLy9v3gf59OlTWLlyFebPX4DcuXMhS5asvLfxq1cvomVHJvClSxeYwPPmzcfJk9Ie3cHBIahYoRImTvoH9erV/RZ5+63KRnk/gdfqLrCr3BOa8CAEX9kCm/KdoTS1gDrIG0FXtsC2fBf2QIMurEeGfnugMJWUtKHXFwn80leD5jPCYG+txPbB5rC1+PJO8SSMR+6qsPaUGkpjLcrkMkLrMsY4eEuNwFAtetWIOdxMbiA5d4PWhWNWOzNceKbGmQcajGhoyl//b0MEBtc3Qdcl4VjZ0xx7rhOBFb8UgamfK1eu5r2x6TiOQgULof+AvnxeDrnQM2fOQIsWzTFhwkQ8efKYSfzw4SMmXkDAJ1SsWAWPHz9Ep06dGbMNG9bzSQAlS5bGrFkzefNy2p/bw+MUx9eFChXGwYMH4OLSDe3atYWraw+sW7sef40ZYzCBaZzbtGmHQoUKYtSokYbK2m9XLvLdHXiv64lMw88g0usJfDf2h1PPLVBa2CHK5zm8V3eBU6+tMLJKg7fTqyDDwINQmll/E05fJLBGq8Vg90icu6vG/xqboHkpyfVK+JISVZKbB7hfiMKVpxpUymeEu281+Lux6Wf3P/PRoPOCcBRhq6vFC08N9g2XtBAReFo7Mzz1VuPfPVFsma1Mfx0LHLPlqJRtpkTWpIlTsGr1aly5chGlSpXB7t07OQZ2c1uLTZs2sUvdpk1bXLt6DcYmJnzP/ft30a1bD5QuXQqDBw9il1mfwK6uPdndtbOzRcmSZbF06SJ069Ydc+fOYYvu7e3D5Q21wDQ2VapUQ4cO7dG1q8s3CdzvVDjywwN4remGjIMOQR3ozWR2ct0MI0t7RHo9hs86Vzj13AYolfiwqBkyDNgPpem3JSy/7EJDi0gVMHFnJI7dVKFTNVO4VpcSSPHR2CdQA7fTKgytJ7m4ESrAZVkEprQyRZ9VEdg+yBymxlJKZcy2SPSoaooDN6Ko/ahZkOrVwv2cGuXzKFE5jxGGb4jEtPZm0GiBibsicP6hGh0qmvwyFljOzNMhcGRpc+bMwWdClSldHocOH0DNmrWZwHRanZvbGmzatBktWrTArl07sXnzJrx9+w41avyJe/fufJXAFMvSwXJE1KVLF2PMmL+RKVNm/PXXaIwdO46PsEmIwHv37mN3++TJYxxfL168BAsWLMLly5dgbf1tAvc7EVgd7IMPi5sDGrXOqGmgUOiSv2zoNFIuSaGAkY0jnFw3QWEkeZ+GXl+NgeWKpuyOwp7LKrjUMEaXyiYwMfqcwuFRWozeFAkotchgr8SVZxr0qG6MqvmNsfNKFHZdVaNoFiXINU9np8CQuibovToSM9ubws5SUgqXnmmw7HgUlnUzw8iNZIHNuQmRKg26LI5A3aLGvxSByaEZOXI0Dh48xGfDPnjwAE2bNsaIEcORN08B7N4TQ+CNGzdh3rw57P7S6QGZM2fC1q3bvoPAi2BsbIKZM2dx0qt9+/YYMGDgFwk8ZMhQODikZYvv4JAGffr04tMnv2fDfkOFM+WX08L/0L9QeT9FmmbT4L9vAkzS5YRd5T7w3/8PoImEXeXe8N08BJb5a8C2fNdv7rJB88BasplaYMb+KGw5p4JrTRN0rmQMI6P4LbFnoAa+QVrkS2/E1lVyFYmEwGNvLdLbAmmsP5+G+ubW/0I30HGsz5+/4KSUjU1MNji+LtL5UnSuFMW033sR8dOkSYMiRQrj/PkLmDhxErvZgpDfi2jC93mvd4UmIgS2ZTrCf/9EpGkxHX7bhsGh+XT475sI04z5eWrpey7DCKwLbNUaYPnJSKw6rsHGQWbIkTb+hRz6q4riWxmU1MdNfA8QP/Oeb12lltDRl9/Sh/v3H/BZtpThprndFSuW8gFfv8L8+rfg8F+U1USFI+DEXITc2g9oNICRMaBWAUZK2JRpD9uynaEw/jbXWW63QQTW7yTFo2/8tXBOk9AySrn0ty8D/C/AFM+IQYAUAR3yRXPENF8sriREQKtF1MfXUPm+5KWUCjMrmDhkg7F9hh9Smt9M4CTsoqhaICAQ+EYEBIG/ETBRXCCQnBAQBE5OoyHaIhD4RgQEgb8RMFFcIJCcEBAETk6jIdoiEPhGBASBvxEwUVwgkJwQULx9+1bvzdLk1DTRFoGAQOBrCCg09Ba+uAQCAoEUiYBwoVPksIlGCwQkBASBhSQIBFIwAoLAKXjwRNMFAoLAQgYEAikYAUHgFDx4oukCAUFgIQMCgRSMgCBwCh480XSBgCCwkAGBQApG4JcgsP4OH9+6u0UKHjvRdIHArzMPTHtE0c4SdDoB7RlFO03QyQTiEgj8ygh8twW+e/cufHx8YGpqisyZM8PZ2ZmJo1Kp+HAueXM02mRcJpX+TzqiQ97Ghe6jf3QfXfQ7fU9HgNA2qx8+fEDhwoW5PH1OddPv9FP++/z588ifPz9v9EY7Ld64cQNly5blDfWoHmoX3UP/6Hdqi9jA7VcW7d+jb99N4Js3bzJZiLx0Eh4dokXHcRB5aMvTQoUK4cWLF3j48CGfDkCkpP2NX716hWLFiuHatWvIkiULk+jixYuMdqlSpbish4cH/12iRAk8evSIjxAhAhPpbt26xaSsWLEik5cO4SLiEzFLliwZTeALFy7w97QNaoUKFfD8+XPehTFr1qw4ceIEk5ueJS6BQEpG4LsJTETy8vJiUqVPn54P3iKSZMuWjX9mz54dZKWrVq3KW6DSfsf6BL5+/TpbbfqcFIG5uTmePXvGRKW68+XLBwcHB/j5+eH169coU6YME0+29PQ5PZsUSNq0aXHmzBlWDLIFJotcqVIlBAUF4fHjx8iRIwfu3LnDiuXNmze6HRhT8tCJtgsEfmAtNJGMtiMlspI1I5LS73ny5GHX2snJCZcuXcKff/7JJCRLTOf9kOUuX748E45cXiIwWUaKX+m0PFIA5DZTDEv1UxxLlrxcuXJ8egARkdxysrhUb4YMGViBnDx5ki22PoGrVKnCZeh+su6kAOi+AgUKiKMxhfT/Egh8twWm0/Lk4yvJEhMZibDkthIZaY9hIicd2EUuLpGuWrVqXIZOyJOJRPHovXv32MXOmzcvH3FJ1plca7Li9IwrV66wYqC6yUrTT7LmdFGsK8ez9BmVpyMz6R45libLnDp16miXvmbNmnyPuAQCKR2B7yaw/sHQ9DsRUjrrh05hkI5doZ9EInJjiVBEYP3DqOVyVIauL9VBZeV75brpZ0Ibx8sDI7eH7iWvgdxyitHFJRD4FRD4bgLH7Xx8py3In5E7TC40WeW4J8THJdrX6k3oRHl9Mutnl+Xy5AGQZSdrLB9w/SsMoOjD741AohH494ZR9F4g8HMQEAT+ObiLpwoEEgUBQeBEgVFUIhD4OQj8EIHFKYM/Z9DEUwUCMgLfTeCrV65i3bp1mD5jOieF1JRJ1i1blJNIdOYtTSVR4ogWaohLICAQSFwEvpvAG9ZvwLRp03Dp8iUsmL8ACxcsiF6j3LRpU0ycPAnnz52HS5cuOOVxCpmdnWOtPY5rveO+UaQ/3fSlzLTwAhJXIERtKQuB7yYwrW66dPEiWrRsidkzZ8Hd3R1Lly3jdcujR43iVVfNmjeDSxcX7Nm7F0+fPYWxkTFq1a4VPY1DCzIO7D8Af38/1K5dG+mcnBg9WlWlVCh5Ndf169dQqlRp5MiZIxrZ58+e4dQpD2TMlBG0KEO8lJCyhE60NvEQ+G4Cb9m0GZMmTcLlq1cwf+48bNu2DRcuXWQyde3iwksYBw4ayATOni0bzMwt8PDhAzRq3AgzZ82Cr68vWjZvgcCgQNja2uHN69eYMXMmGjVpjIb16uPdu3e8xjksPAxenp5Yt2EDv6ywbu06jBs7FkWLFcObN6+RIX0GuG90h6WVVeKhImoSCKQQBBKNwGvWrEH3Ht3h5+8PInfrNm1QuXJldqGXLluKGn/+iQnjxoPKXbl6ha32tu3bcfzkCV6X3KFdO9y6dRtXr19DqxYt8fz5M1y8fJlhLF2yFGhd89Rp/6JEseJs9QcNHoQnj5+gXdu2WLhoIerUrZtCIBfNFAgkHgKJRuCVK1eiXIXysLa0QsNGDVG5ShWcPXM2OgZ2zpIF58+dQ/t27XHsxHF06dSZXeTNW7fwcsjTHh7o3KkzDh46hGFDh7KbvXP3Lu5powYNoVQoMGHiRDRq2JBfcpCXXYaHh6NHjx4YMWpk4qEiahIIpBAEEo3A5EJfvHyJu82HLWm18DjlIRH4tAe/Bnjh/Hm0a9uOCTxvzlx+u4gSXHb29ujRvTsunL+AS1cuo12btvwCxI5dO7m+xg0bMclXr3Fja+zi4oJu3bvj9ZvXTPymzZpx/SIWTiFSJ5qZaAj8GIEnTsTla1c/i4Hl1p06eZJj4PgITDt5NG3chHf0sLWzw6OHDzF23Dh07NQRDerVj5fAu/fuwYL58zFr5ix2qWmKiu7dsWM7rKytEw0UUZFAIKUg8N0EfvTwES5euIB2HdrzSwJPnzxBm7ZtY1lBehH/8KHDaNW6FWxsbfD+3XscPHAAzVu0gL29PcLCwuC+YQNovrhV69b8cj5Z2l07d0JpZISGDRtyfbt27WKzTgkw+vve3XvYu3cPsmfPgRYtW8R6wymlAC/aKRBIDAS+m8CymxzttmqJY9JJpfG9DSR51TGvGsb3t36H5NcEuS6qVnpDMdb1pTeTEgMcUYdAILkj8N0ETu4dE+0TCPwOCAgC/w6jLPr4yyIgCPzLDq3o2O+AgCDw7zDKoo+/LAKCwL/s0IqO/Q4ICAL/DqMs+vjLIiAI/MsOrejY74CAIPDvMMqij78sAoLAv+zQio79DggIAv8Ooyz6+MsiIAj8yw6t6NjvgIAg8O8wyqKPvywCiuDgEOkNBHEJBAQCKQ4BRWSEVhA4xQ2baLBAQELgqwQW27YKUREI/FwEvsTBBAishUajhlqt+rktF08XCPz2CCj4LGul0jheJBK0wGHhQTA3N5PMtO68398eSwGAQOA/RoCsb3h4BCzMbb6NwFGqUN6XSlwCAYHAz0VApVLB2Mji2wisUofx1q7iEggIBH4uAoLAPxd/8XSBwA8hIAj8Q/CJmwUCPxcBQeCfi794ukDghxAQBP4h+MTNAoGfi0CyJnBUVBSogRYWn2fZ5AlsjUaDE6fOoGzpErCKcwrht+w1HXcYDF2kYmg5uX7aH1uh28ha2t9aIe1rrfdrfCJBx62+9/RE+nTpYiUQE3v/62/tT3S/tFp88PSEvZ09LC1jj5d+G6m8dL5zTNf1+2vI86UygI+PHz9LHvdY+4UbuNe4n78fwsMikD5Dej5jK6VdyZrAe/cdwIWLlzB54vhoXOMe9q1SqzFn9nx06tweaR0couelDRUEWaC+NnDxKYMYYYx/0/q4dX/44Im5Cxdj9PChsLaxid6Pfuq0WWjXtiUyZczEghnf9fHjJ3Rz7YuF82fCKV26WEXiYhJfn36U6F9ThlFRKnTv2Qddu3RCxQrlvgjnylVrkTdvbpQtUybB/lIFN2/dwd79BzF6xFA+sC7uNXrMeFSqWB61atb47GAAfcWiP07yugXqj1qlRuv2ndCieVM0b9qYF0Xo36dfNrmud0hUAhMoZBHpWBRZG8YFnU4PpDOPDLm279yNs2fPY/bMf9lCaRXAtWs3cOz4CZQqWQIPHz1G966dsXL1GtSrUxs7d+9Fx/ZtYWdni/kLl6Bzx3Y4feY8bt+5g9y5cqF5s8Z8sBpJDZ1cuGHjFnh7+6BY0SKoVbM6QkJCsHb9RnwKCECF8mVRoVw5bN22HWnSpMHV6zfwR+5caNywPh48fIx9+w/A3MIcrVs0h4NDGuzZdwD37t1Hnj9yo3Gjhjh85CgCAgPh6ekFczMzdOrUHgsXLcWJk6f5WQP69Wazu2nLdmzesh3FixXFX6OG4dLlazjlcZotS+dOHWCjO9eJCNy1Ry+0atEMr16/QZPGDZErZw6cPXcB585fYCvUsX0bnPI4Cxsba1StUglbtm5H9uzZkcU5E9asc4epiQm3w87WluH38fGF+6YtyJgxA16+fIV6dWth/4HD3F9q47btuxjfkNBQbN68DX16u/J9AQGBWLfeHfnz58Plq9dQtXIlFC1SCF179Ea1qlX4fOds2bKhaeMGeP7iJXbs3MNy0aJ5E6iiojB+4lSkTeuAbi6d4Jw5M9aud0dQUBDKlyvLhKSLxufvcRPx6PETdOnUHlWrVsaWLdvh4+uLihXKs5IY9ddYVKpUEblyZsfRoyfQvVsXnDx1GpevXEOWLJnRtnVLnL9wEW/fvYe/vz8iwiPQpXMH2NnZcXsWLV2OY8dOon7dOujSuT0OHzmGm7duI51TOrRv0woPHjzkv0PDwlGndk1ky5rFELH9T8skKoFDQ0Nx//59XuSRkMaKiIhApkyZkD59+q92NBaBASaba+9+aNO6Jd6+fccD5bZyCQvOqBHDcOjQETg6OqJUqRKYPnMORgwbjL/GTkD/vr2wbccuNKxfF1UqV2Tfjaw71U8k2b1nL0aPHI5p02fB1tYWRYsUxpJly7Fk4TxWBOS+Vq9WFYuWLMOiBXPQb8AQFuzgkFCYmZowkWbNXYCuLp3g5rYOfXr3xJGjx1j4WrdsjqXLV6Jf314ICgzCgkVLMXzYYFSqVIEt8N179zFx8jS0atkMtWvWQCeXHmjVsjlevX6Nx4+fYOG8OTAyUoIJ3L0XGjSoi48fA3Dp0hVsWLcS8xYsRtmyZeC2Zh3q1q7J2O/esw+L5s9G52698PdfIzD6r3Fo3boFnzN19+59zJg2ma3Nixcv0X/gUHTq2I6J6Ovrh04d2nE/Bw3oh7nzF2Hc3yPx4sUrHDl2HLOmT+Ux8/Lygkv33izUZmam8Dh9DqtXLOZxyJEjOyux9Rs2YcXShRgz7h+ULlmSld3RY8cxddIE/DPpX+TOnQttWjfHps3bmGA1qlVhRTxrxr/ImCE9h06r16xnUv0zbgyfLX3v/gMULlQI/06fCbeVS/Hv9FkoWrQwzp69gAb166BQwQIYOGQ4erl2w/6Dh1C5YgX4+Pjg2PFT6NChLVasdGOlTu0mA3PS4wwWL16GkSOGwcLCjNvVzaUztm3ficqVKsDS0pIVX+tWzVGlUkVW1MntSlQC37hxgzU+abiErsjISNy6dQslS5b8KhaxLbAWN27dxszZ87Fi6Xz4+vlj6P9GYfXKpeimIzBp1XETJqN2rT9BioKUxGq3NTA3N+dnFSlcCH+N+h//PmGiJEStWzaFVgOER4TDpUdvDOrXB8WLF0ODxs0xZfIEbNy0hQevVq0a6OzSEyOHD8GJk6dYKNKmTYsB/Xrh+IlTOHL0OEzNyLNQoH7d2vDz8+PnDB7YD736DkRTspi5cqDfgKFYv2YFH+AmxYJadO7qitEjhsHKyhq9+g7A7h2b2XL1HzgM7utWsUchW+BF8+fA08sb4yZMwsb1q7Ftx26cOOUBXx9fNGnSEDWrV8OgocMxdPBAbN+xG316dUfPvgNgYW4BhVIBezs7LJw3m5fCEoGH/m8kVixbjH0HDjG5/50yAb37DULL5k2Z0G/evkF4eCScM2dCu7atuE+eXl7o028Q3DesgamxMZq3as8KY9iI0UyA/PnzolOXHpg2dSK7t2mKAAAgAElEQVSGjxyDPTu3sKvcsk0nzJg2CUuWrUKZUiVZGXXq0p2VL5F++IgxqFChHJORz4U+cw6Lly6H+7rVeP36LRYvW45Xr94gMCgIixfMwZJlK3Dnzl3kypUTM6dNwbHjJ1mhyeOdK3dO5M2dGy9fv8KYUSNYXkqXKoGWLZuxR/fB0wtDho6A+/pVWL7CDf4fP2L4sEE4euwk9uzbj5o1quPESQ/JA+QrgYO4virJSVcgUQl8/vx5FC1aNN6kk34Xrl27huLFi3+1V9t37sHZs+cYQBpQIkXXHn04Xnz+/CW7N6SJZQucKVNGtG3fhQV+2JBBUCqAf2fOwaJ5s7isqZkZypUpzc9dt34jLly+ghn/TsL0GbPZEo//ZwqqVCrP7lqvPgMwb/ZMLFu5iq127Zp/snUky/T82TOUKVMaBw4dwcOHj1C/Xh1s374LU6f8A4/TZ9jV2n/wMD9n0MB+6N13IJo0boA8uXKj94DBWLJwDjJnyhwd/3V2cUVXl47syrfr6ILp/07G/fsPsXb9Bmx2X8tJK4nAvZkoRCBSVGPHjGSBJeEdNWYcSpUsjs4d27MVIutO7iy5mh06d8OUSRNgaWGOazduoXnTRtEWeMj/RmJlNIHv4d/J/6B3/0Fo2aIp8uTOjX4Dh8LC3Bwzp09ht1cmcLfuvdG/X2+2UrPnzmeSdXfti27dOiN/PonAi+bPwvBRf6Nfn16wtrHG2PET4b7ODZOnTEOG9E5w7dGV+5EqdSp0at8GvfoOwrixo5H3j9z8HCIweUBrVi3D7LkL4JAmNRo1rI+efQZg7uzpWLpsJQoWzM95kiKFC6Na1coYOXosFs6byWEOCferV6/x8tVr9kQG/28kypQsyX3jfnh6YTATeDXOnr+I5StWYcHcmfh3xhw4pk2LbFmdceLUacyaPiXZrvlP1gQ+ffY87t65i949e3CmlsLXW7fv4OrVa3B2zswuFg3ujFlz0LZNK2TJ4owlS5ezqz165DCo1VqsWbcBT58947iuV49usLWVFn5/+hTAbrK3jy8KFCjAcdbLFy/ZZaJ4rHjxomyFVq9Zh8KFC6FUieLssrVp3QLXrt3E9Rs3OZavX78OihQqiCXLVuLF8xdwTOeI3j27c/KFLGzzpk0wZ94CVCxfDvny58WiJcsRFRmFUSOGRiswioHv0xnIY0Ziz54DOHvuPLucXTq2Z5eUrqCgYMyYNRcD+vdmV3j1mg0YMWwQli5fheDgEBbu7Dmys6K5fvMmtm7dgb69XUFK7czZCzhw4BCMTIw44UNtoYuyxouXrMCwoQNx8eJlvHj5Et27dmGlQEorb54/2DvImiULJk8cF91etsB9B3EcToqRrCbFkTNmzkHdurV4HCgcGdC/D549e865CY1ag2ZNG6Fs6dK4cesWx8WNGtWHUzpHLF+xGgGBQShTqgRat2oR8xxPLyxf6YasWZ2RO1dO7Nq9D1myZIGXpyd69uyGvfsOolChArC1seF4n5Trjl17OBdhb2+Hnq7dWVa8vLzRoX0bLF66gvtEHhVdZHFpPCSvTIsVq9bg7r0HcHRMi96u3fHg4UPcuHkLvVy7CwJ/jwWOa6IpyTRg8DC23u/evePkkAR+ykv/f9X9SAYFKD7dvms3hgzsj9KlS0ajTDFw3/5DsGHdapiaipdafuZQJWsLHB8wlFAKDAxiwaH54fimF34moL/Ss2naK3XqVOxpxD3XOTIyihNY4vq5CCQqgc+dO4dixYolWgxsKDSxUwvSX4bMA39Wf6yKDE9YxC6p4MPMhU9g6OiJcj+CQKISOLGTWN/TsTt378LS0go5smf79tv1mEhTFp8CAlG+rJT0MvQixUHZc4qLc+bMYehtopxA4LsQSFQCX7hwAYULF+bMZEIXCThloUuUKGFQgylxRVv4yKtk4q46ItduyrRZKJAvDxrUr8tzqpTgat+2VSz3Wl5kEl2PLnKmqSeqg/7RIg6a7ujQtjWePHsOf/+PPO1AF7nu+it16DO6l114LTB/0VKkdUjDc7g7du9B0cKFkD1rVg7P47s37rI/g8AQhQQCcRBIVAK/fPmSVzM5OzsnGJvSxHpAQAAT/UskJ0LRPCRlfmn6iMhJmc7e/Qdi1oxpCAsLxaQp0zF0UH+e6qB4rEvnjrh69TpS2dvzIgprGyuMGzOKH/PP5Gl4+/YtE4wWTIz/ZxLKly+HLVt3oGCB/GjbpiVP96jVGjRsUBc2Njac7e3Yvh2T89at28ifLw8GDeyL0NAwjBs/iVds1a5dE9WrVEL3nn2Z4O3atsHpM2d4aV7xYsUwa+58PH70GPny5cWQQf2wb/8hXrhA0xu02mjK5PGwtEhY4QmJFQh8CYFEJTBZJMoOBwcHcwwa33JKSjzRAov4XlCI21BK6dNcHS2LowUBC+fNYqJsWLcKoSGhPIfntmopBg0dwdMD7du2xsLFyxAQGMDL6Gjece7sGdi3/yAv/6OlfLTahqZwFi9ZjqxZs6B8uTKYNHUGNq1fzXONFLt27+aCQ0eO8ZLAvHnz8DLCUSOHYd++AyhTtjQrCJqqolVPCxbRPOVyXtaXJk1qvrf/gCFw6dKR9yvavHU7Rg0fguWr3FAwf36YmJrAw+MsT/H8O302XF1dUKmCtHxQXAKBb0UgUQn8rQ//WvkrV6/zsjZSBA8ePuIFHQMH/w/r16xEaJhE4I3r3XiFTbFiRZi0ZJWdnTPxmuiurn3Qr3dPbN6ylVfd0MsOlGCi9cQ03+vSuQMvnmjRugOWL1nAn5FH3K9PT6xdv4kJnCqVPS+qmPbvJGjUam7yrdu3sXX7Ln6L5c3bt9i2eT3GTpiM9E7p4NrdBe07dYVL5454/OQpr8GllUbLlq/Eq9dveZHD+w8fMGzIQL6neLEivMRTXAKB70EgWROYlgtmz54Nf9aoBtde/TF/7kxeJkjrkCPCI7FpyzZs2rAGI0b9BYe0aTGwXx9MnTaDXXha2C8R2BWnPM6waz900ACsWe+OP6tXxcw585hk+gSmhf1v3r5jt5ssJxGYXF939y1YvGAW/h4/idfI0oJ/WtBhYWGO6TPnMoH/mSy9cEFLLTt1cYVLl/aIjFLDbe06LFk4F2PHTeQXFoxNjPH+vSDw9wiruOdzBJI1gZ88ecZrUumtl2fPXqB1q2YcP+7ctQdlSpfilU89e3bH61evObYsU7ok3r33ROo0qVChXBmsWr0WNWpURapUqbBr915eUle2TGleibNx01ZUqlgOzlmcsWjxMnTu1B7hYeH80gNlsC0sLRAcGIyqVSvxOufLV66jaNFC/MLA+w+evPKnQP78vHqpTy9XvH33jl+QoBchaLVYxYrlkDN7dhw4eJhXKxUqWJDX+NLbVB8DPqFO7VrcJlplVPQL+QAhtAKB/ywGThqovz4f+/U5X4rHv3UP67jP1dUhv4Afq7Nf+i42Kp+19evdSxpYRa2/BALJ2gJLCOuOZ6KXgfV2ruBveGeGmCUTFN/S/+O+yijv4BB3yWXMVA7VFnvxh/7OGdEjTYk5ep7+c+XTowxducFNjN3uX0KSRCd+CgIpgMA/BRfxUIFAikBAEDhFDJNopEAgfgQEgYVkCARSMAKCwCl48ETTBQLfTGBK/NDhZoZuTCcgFggIBJIOAdqiytTEKt4HJHi8aGRUOLS0kZS4BAICgZ+IAM1mGMHURNrzLe4VL4FjT92IScyfOHri0QKBL260l6AFFrgJBAQCyR8BQeDkP0aihQKBBBEQBBbCIRBIwQgIAqfgwRNNFwgIAgsZEAikYAQEgVPw4ImmCwQEgYUMCARSMAKCwCl48ETTBQKCwEIGBAIpGAFB4BQ8eKLpAgFBYCEDAoEUjIAgcAoePNF0gYAgsJABgUAKRkAQOAUPnmi6QEAQWMiAQCAFIyAInIIHTzRdIJAEBJY2QJcv2r/565uyJ/VAJMamBD9ah7SftXQquKEbTMfFRb8NP9Ae3gH/R9oRp128l7bcq+/tW1LLwK9Zf6ITODIqis/KZfFQKGBmavrZJuz/JZRBwaH4FBSA1Ha2sLKMf18hQ9tDexN5+/kjU3qnL+6SEF99Xj5+8PbzRcE8fxj6uHjKaeHl6wdrS0tYWlpA8Z2KwMvHB4FBwcj1PQekx2kVHZAeFRUFe3tbePv4w8nR4bMzln+gw+LWryCQ6AT2uHAZ127fZQEnAjunz4DGdf+UBlU2Gmyh+XiF6ONJ+aQF3YkG9Hm0Htf7jOvUKuKceqBfqf4JDmDBWrLWHbY21qhRsTwyEvH4xIW4FgSSBdGZkdi2Lab+Dz6+2LhjDwa7dtVVEI8VjGXddN9rgXuPn+Dh0+doVrdmLOsXc6KEziLKh1ToTqvQP4EiOCQUK923oEf7VjC3sIBCOktGD0N9q8pnWDDJ1VoNPC5cQiYnJ+TKlhX3Hj3BO09P1KpSSfeUuLhKd0YfHcvjIdUnP4E+0Wi1OHbmPD5++oTGtf/EkvWbUKdKJeTKnlUao+9UMIK1hiOQJAR++vIVGteugfCISOw+dBSlihZGicIF8Ob9B7x6+w7pHBxYkIgvdKbvkxcvYaQ0Rr48OdliR0ZE4s7DR9yLPLlyssUhYbr/+Ak+BgQim3NmZEzniKCQEDx/9QbOmTLg/uNnyJzeCc6Z0keLzvU7d0EKpXC+PChSIB/sbG1w7+FjBIaEIIdzZqRPlw5ePr7w+/gRqezt4OXtiyIF8vJziRtv33vi7YcPSJ3KHn/kyAZPH1+479iDHh3a4Obd+8junBkZnBy57NMXr+Dz0R9ODg7cPh8/P/j6fYRD6lR47+2NdA5pEBAYhFw5suP+o8dImyYNXr55CysrKxT4Ixcrlfee3nj9/j1yZ8uGV+/eIU/O7LAwt4gezS17DrDlrV+jCpPp1Zt33D6H1Gm4LF237z9Eese0ePPBE2amJsibOyfevPuA/cdPwSmtA4oXLACFkQJhYeH4I0d2VnK37j9AVJQKf+TMjtT29nj+6nV02OPp7YNC+fPCytICapUadx8+RkRUFHJkdYZDqlQ4evocE7hlw3o4dvocfPw/ok3j+nrhguHCKEp+OwJJQuDnr9+gc6umPOCrN29D/j9yI4NjWuw+chz5c+di4cqexRnlSxTFxl17WciJmETS5vXrYM3WHciaKSMLFSmBpnVrYu+R4ywc6dM54OGT56zxyarvPHgEzhkzQqWKYveyZ4e2MDExZiROnD2PW/ceIEvmTChdtDAu37yFTwFBcHRIw8RvWq8W3nt64tKNWyy4jg4OqFGxHN9LxN60ey+KFSiAt56e+CN7dqR3Sgv3HXvxR85sLPiv331ApxZN8d7LG1dv3UH6dGnZytatXpnJev7KdSY/Pc/CzBzPX79Gm8YNsHzDJtjb2sHKyhzPXrxB4zo1YGRkjO37DyGbcyao1Vq8evsWHVo0QdrUqbk9kZFRWLp+IyqVKYnC+fLiwZOnOHr6LCtCIigpk+qVymPxWnfYWFnC3tYWr969R4E/ciOtQyqcPHsR9na2fK+3ry+HAk3r1GL8zczMYG5mAk9vX3Ro3gQnzl3ABy9vZEjniPdeXnzYefN6tRlrY2PJk6I+9+zYBsfOXIgm8HtPL2zavR+9OrWFhXn8uyh+u4iKO76EQJIQ+Oa9+7C1tkZwSDCMjI3RulF9HD97AbRBdcnCBfH6/Qc8evICXds1Z5KGhIaxS3fy3CV0b9cSa4nAmZ1ROH8epEllD6VSiRUbNqNGpfJsNdZv38VWuWjB/Nh9+Bi6tW3JZRa5rUe7po2QLq0D9zk4JITva1KvNqwsLLB22w50adkcqextsevQUYSEhCJ3jmzs8rt2bKtzDyXXkQR48+4DKF+qOHJmc4a9jQ28/Pyxcece9OrUjoV+6Vp3VKtQFrmyZUFQcAiCQ8NwzOMMu+pE3EvXb6Fnx7ZsXc9euY4Xr96wdVq+YTMqlSnFimCh23qUL14MoeHhTP6urZuzh7B607ZYBA4NC8MK9y2oV6MqctBxqW7rkS9XTlQpVxqPnr/AvuMn0atDW7ht2Y5iBfKhTPFiOHnuAlv0Ds0aw23LDuTJmQPlShTF8TPn4e3nh9LFimL/0RPo2rYlLM3NscJ9M3LnyI6PQUGICAtHy4Z18fDpCxw+6YEB3bsgIiKC++jr74/9x04ygc9duSERuEE9RKqisGDVWlYCrHhEPivJtU+SEPjZq1doVrc2W1IStro1qmDzrn0wMTZGgbx5OP41NjKGlZUFtu87xEQlC3T+yjX0c+mISJWK47S7Dx5CowE6tmyM5es3o3a1yuy6bd17EEqFAiWLFGLL3LVtC6573sq1aNukAZwcHWMI7L4FTevWgrmZGTbs2IWubVrB1tqKXUqyQgVy58Tdx0/QpVWzmLiPGKfRsqW6ef8BHj57jvSOjqhYugQ27twrxcBaYOl6d1QuUxoPnz9HUFAwCuXNg2u37yBzxgxwSGWPG3cfwKVNc6737JVrsQhcvWJZ5MyalQW+TImifJj5g6dP4dK6JQKDg+G2OX4C161eFTmzOmPeCjcUL1wQ5UsWw/NXb7H78FH0aN+alV+ZYkVZuZ25fBVPX7xExxZNsWbLduTNmQNlShTDiTPnmMAlixTGoZMe6NqmJVtMt83bkTmDE0LCw6FWadCkdg08e/2GMe7erhXWbt3Jlj5NmlQ4feEyXDu0wfmrOgI3rAdK8lF/OrZsijSpUv3U5GWSMyeZPCBxCawFPC5exgt2oZvh5Zt37Ha1algPfp8+4szFK6hQqji8fP2h0aiRNXMmHPE4y27hk2cv2VqQMB0+dQY5s2VhjU+E6NmxPbt6piYm7GKeu3od1SuUhZ2NjY7ALXUEXoM2TRow2WQLvNx9C5rVrYX06RxZuOmeTOnT48rN26hRuRyCg0JYWXRuLRFYvt5+8MTFazdQMO8fuPPwMYKCglC7WhW479iNwT27coJmydqNqFK2FDwuXYFj6tQcf1+4eoNjSfIcbjKBW3CV5y5fi+VCV69YHjmzZsGC1etQpngRZHRywra9B5EhvSOUCiXnCmK50FFRWLrOHRVLl2KFR88hT4c8GrKSRkYKtG7UAEvWbYSFuRlyU7Lq8VPuN1ltIp+xUonypUrg+atX8Pb1Q4Oa1Zm01A467PzmvQdo16QBk5JmEprUqYlnr95gz5Fj6NS8CSvkciWKce6BYm0mMB1m/lGKgSke37L3IHp3agdzM9MfmC5LJuxIAc1IXAIDnGiiWJRcO3JFKfZydEiNfH/kwtWbdzimsrGyZiJTwurclev4FBSIIvnz4cbd+6hTtRLeeXrh9v0HnGGlGI6SQiFhYUyC4NBQTtKUKlII/p8+4dqtu6hWsRy70IdOeKBC6RIc/9EVHhHB7iLFvw5pUiMkNBRnLl1FWHg4smTKgGIF83Py6c2HD6harmys4SIBvnj9Jnz8/GFjbYVKpUuy+3j28lXU/7MaU/2ox1nky50TFhYW7D2ktrfjNpN7T/dQkqpqealeco/JopcvWZzbRIrByTEtDp70QO7sWZE5Q3ruN7n1jmkdsGH7bri0bsFxq3xt338YJsZGaFirOtRqDS5euwkvP19WSlXKlobSyAiL16xnC/zBywsmJiaoUKoELCzM8cHTm0nn5OQII4UCAUHB/J2v/0dcuCYRlsKTvLmy48rte9Co1YwbJe6u3bqDejWq4Nb9h3jx+i3H3ZTnqFmpPLvvwcGhKFeyGA6dOoPAgEC0bFRXkPc/In+iE/g/avcv9xhKAG3dd5ATR6Sk6OrcslksN5Qyx8vdN8OldXNY05x2PDHm4jUbULVCOeTJke0/xYiUJcX29apXYYUb9wD2/7Qxv9HDBIGTzWBrORFGnga553a21hy3x2UpeR2U0baw+Pw76gpZVGsrS929/13nVCo1/AMCOHQwUiqTweq7/67vP/NJgsA/E/2vPTvOOhGDFk8m9jLJr7VRfP9TERAE/qnwi4cLBH4MAUHgH8NP3C0Q+KkICAL/VPjFwwUCP4aAIPCP4SfuFgj8VAQEgX8q/OLhAoEfQ0AQ+MfwE3cLBH4qAolKYFp55efny8sk6W1Q+Z0yWhGUOlVqg+YGf+7uHdJuIvEtQpDbdfTYEVSpXJVXOX3PRSueDhzYi/r1G/3QYoebN28ga9ZssLe3/2oz4mIqv+crFlt8FbpkXyBRCUyv2A0Y2Bf+/n78j4Q1bVpH5MyZCxP/maIjtIzJt72qkrDQfWl21KCZU26QLORfViBa/D12DAYPGqpHHP3X3PXHO/5n0/ruWrWr4fix0wnsXBH/ffrto6dMnToJTZs2wx9/SO8vf+mKv0/xPSfmRX6Z3DEbDnzbeMntefbsKS5ePI+2bTv8kML6Wh9/1+8TlcD6g71t+xZeF+vi0i2aIOHh4UwUWjscn/bXaDQICAhgcugLEFXw8aM/7Ozs+K0lmXCkMEJCQj4rT88IDg6GjY1NvM+h1xqpLfQyvbxnF93zkV7sT5WK11XHFXpqG30u/aRXDiWRoXqoDnPzmJVRdC+1i+qXdiZRRsuXRODqOH7MA+HhYYyFUmkU/T0pPSojYyQrLnrTh55tbm7Oz5tCBG5CBM4Te1cTPUmO3Y4Yz4KeERQUCDu72DjTCxu0YQBhLONCz6S+6GOpj03c36md1H65/OnTp7BmzSosW7ZabLWTBFomUQms377t27ciIDAALl26ISQkGD1cu6JQocL8YvqLF8+xauUafVGD25rVOH/uDIoWLYZjx49h/Lh/kCVLVjRqXB9/5M6DokWL4sjRw+jdqw+qVq2B6dOngrR7jhw5ce7cWSxdugJ+/n7o2rUz6tWrL70ocf48tm3byW8qyVvE/P33KEChhKOjI44dO4y1a9xx5cplLF+xFDVq/IkTJ07A1bUXbty4jtKlyqBcufLw9PyA2nVq4NzZy+jbrydWrVyLmTOn4fad2yhapAjevXsHS0srTJgwEUePHsHcebNRv35DvH//DidPHseB/UdZoOmSLXD5chXgnCUL9u7dgz59+qN2rToYNKgfbO3sYGdrh9u3b2HNmg1Y7bYSBw7sQ6lSpVnBEOlnzZwXTeBUqVNj+PAhGPPXWGTPniN66eW161cxb95s7sOZs2cwaOAQrmP6jKl4/fo1cufOjQsXzmP+vMWsAHr26opKFavgzds3yJghEwYMHIQZM6bhzRsq+wdOnTqJObPn8kYGK1etiPaoXLp24jGm7XVWrVqOvHnz8ttJH96/x4oVbvh77Ghcv34NTZs2R1eX7jDmsRBXYiHwnxB4x45tOHnqBObOWcDWa9z4v1GubHnUrFmLBY7c7YqVyrBb6eTkhPsP7mPYsEFw37AFderWxJHDx2FtbY2zZ89i3vzZ2LxpO5q3aIT16zbBzMwcc+bOQjpHRxQuXBQuXTvitMd5tlT/Gz4UgwcN4zrpIutARCTlUKFCJdy/f5cVgLe3DxMsVSp7bN++DRRf9u7dF5Mm/4MF8xczCa9eu4JhQ0egU+f2WOO2nhWIra0dkz00NAS1atfA0SMn0bJVU/6eLPnTp0/RqXM7HDp4DDY20ltFROCataphwfxFKFiwEPz9/dG1W2ds3bID9+/fQ/78Bdlq9+3XG/PnLcLadW549eolxo+byERr0LAOtmzegbnzZqFy5arYsmUTunTpisKFisSSiZcvX7DHQlb2+fNnWLd+LTp3dkHv3t1xYP8RtrDXr1/nOlevXoGqVaujWbPmoDXN69atQcVKldGnjyv27zvMu3CQotm5aztGj/4bq1atwKSJU/l5nbu0R7euPdg72LxlM/eLSF61WgXs3nUADx7cg9uaVVi5wk28oZRYrNWr5z8h8IKFc5kgnTp2Yddz564dePrkMf73vxE8qGSRSTBv3rjHwuLn58du5v59R9C7Tw9s27qLBY4sUJu2LbBzx16Ur1CKrajkTwONmzRDxQqVMGBgPxw7epI/JivZsGET5MqVK7rLV69ewaTJE7i+Vq3aoFnTFnj0+CEWLpiHFy9fIDQ0lJXL+PET0ahRXbaCs2fPwLhxE3kXDn0CFyhYCHVq12VS1qn7J7Zt3YkWLZvy86l+2m2EBJkIbG2tb4Grs1IyMaEdO8FKZcf2vdi3bw927drJ4YKvnw9Oe1zAxo0beCeTHj16ch9atmyKJUtWYOmyxTh0aD8Td8aMOZxUiwlLtHj9+g1mzpqGp0+f8HZDxYuVQO069bBixVL2OmTgiMDVa1TC7FnzWQHKn587fw4LF87DhvWbuY337t/HgAG9sXjRMvaW9Anc1aUHtFoNHj16hO7dXbkKGr+1azbg8ePHcFuzEitX6HtcSSDJv2mVSUvggE9wcemOjZs24NbNm5g6dRoTeO7cWcjsnAXNmtJuFYC3txeqVa+I0x4X2XK9ffsG7Tu0xp7dB9CocT2cOnmWiX7n7m2MHfsXtm/bjZatmsF9wybpZR0tOD59+PDhFwgck6ChLHlIaAjatWuNf6fOwOQpEzFv3gJYW9lgy9ZNuHfvLiZP+hfLVyyBlZU19u/fqxNkxRcJvGvnPvTs1Q2TJk5Btmw5cPnKJXaLDx8iDyKGwDVrVccat3WcRSbBr9+gLsaP/wd/jxmNbdt2wdTUhK3yksUrsXHj+gQJXKdOXRw+fAihIcEYP35StAgTYavXqII5s+cjf/78ePDgATZv2YhOnbrgf/8bAmonkZ1wDgoOwrRpU9C2TTv8+Wctfs/43LkzSJ06DUaOGsZlKSY+deoEFi5awBb232lTMGvmXLberds0R7++A9gCf0bgte54/OgR3NxWYmWskOk3ZVsSdDsJCbyFE1KUxCI3kWJgsmwqtQo3b96E2+p1MDWlXRukDPCixfOZOEWKFMOJE8fQr+9AdjHJMpMQFitWHAcPHkDnTl1Rv34DjB49AoFBgShQoCAOHtjP8SftvzVwYP94LHBOVgDk2vVwdWHiZMqYiYV63fwLoVYAACAASURBVNqNWLR4ASIjI5AxYyaOPdOkccCUydM4dm/StAFat27HcR5pCskCb2AXmp5NJIqIiGQLTML+4cN7jP5rOGxt7Tme37RpAw4dOg6bOBa4fPnyyJY1O2haqmnTFqhYoSLatW+FZs1aws/XF9evX8XmzTvg7r4eUaoouPboxTi1atUs2gI3bdIUzs5ZMWLkMPxZoybH3TKe9FlEeAR7H2/fvWXC0kzAPxPHIjQ0DNmyZYeHx0nMmD6bFcTgIQNQvVoNfPjwgXfnGDF8FCb8Mw7hYWHImjU7jp84ignjJ3GM26p1c5QpU5Y9j0OHDnC9EoEfo3v3HtEWeN1ad06AkZvdunVbdO/WU8TAiUziJCKwFu/evWUXkshCF7mmx44dYUtZpUo1jmljLimlS+7tixcvULhwYeTK9QeCg4NASZIVy1dzAitf3nzIn79AdELq/PmzTJhKlarA0TEdAgMDcPPWTXalSWAfP36EDBky6J4lbVZHFo/i8bDQMFSuXIVde4qNT5/24PlrikHJVSdy0nXp0gX+XcooK3D16mWUKFGK3W5KNlF8rdFoceasB8qVrYBXr18iY4aMMDe3wKdPHzkJd+jgUU5y0UWCfubMaRQsWBAep08hQ/oMKFmyNOPi4+sNj1OnUKRIUcaLFBclkajdZNFJgVy8eAHFipXA8xfP+DkUWwcEfMKly5eYgLz/tu6i2J0yzpUqVWZXtkCBAhzjnj7jwVn6kiVKIn36DFwvEZeSWunTp0fJkqWYaFSW+kUhDSXDMmd25popOUeJQ1IONMbZskljTFlsGm9yuSlxVqpkKc5RPHnyGA8fPUTdOvVEJjplEDhuK+POOX79iBASWhIIckkpmSVfMdMW8vwrfSPNUcaey5U/T3hxRmwFIh8BE7s+/ivOMSQJz41qceLkSYwb9xcrh1u3boKyzcOHj/ps2GL3I2bRi+HjK/Vft7e77ja9je15A3v5b/256pj79J+lP62X0Jx47Ln4hObYE55fNrxvoqShCCSRBTb08V8uR9bKx8cLjo5OKWYRAAk5xfRk4SwsLNmiiRVPiSMPopbPEUjWBP7RVUA/f8ANXwn289sqWpASEUjWBE6JgIo2CwT+SwQEgf9LtMWzBAKJjEDiE1h4jYk8RKI6gUDCCCQqgWO4q58hFvALBAQCMQh831tdCSGYqAQODA7C1j0HxWgJBAQCCSDQomFdPvgvsa5EJXBiNUrUIxAQCBiGgCCwYTiJUgKBZImAIHCyHBbRKIGAYQgIAhuGkyglEEiWCAgCJ8thEY0SCBiGgCCwYTiJUgKBZImAIHCyHBbRKIGAYQgIAhuGkyglEEiWCAgCJ8thEY0SCBiGgCCwYTiJUgKBZImAIHCyHBbRKIGAYQgIAhuGkyglEEiWCAgCJ8thEY0SCBiGgCCwYTiJUgKBZImAIHCyHBbRKIGAYQgIAhuGkyglEEiWCAgCJ8thEY0SCBiGgCCwYTiJUgKBZImAIHCyHBbRKIGAYQgIAhuGkyglEEiWCAgCJ8thEY0SCBiGgCCwYTiJUgKBZImAIHCyHBbRKIGAYQgIAhuGkyglEEiWCAgCJ8thEY0SCBiGgCCwYTiJUgKBZImAIHCyHBbRKIGAYQgIAhuGkyglEEiWCAgCJ8thEY0SCBiGgCCwYTiJUgKBZImAIHCyHBbRKIGAYQgIAhuGkyglEEiWCAgCJ8thEY0SCBiGgCCwYTiJUgKBZImAIHCyHBbRKIGAYQgIAhuGkyglEEiWCAgCJ8thEY0SCBiGgCCwYTiJUgKBZImAIHCyHBbRKIGAYQgIAhuGkyglEEiWCAgCJ8thEY0SCBiGgCCwYTiJUgKBZIlAvATWarVQKKi99B8ttFqp7QrpQ3EJBAQCSYQAcU/iWmz+JcS9BAksV0TV6P+eRO0W1QoEBAJ6CMiEjfszLkixCExElf9pNBq2vFqtGhqN9Lkgs5AxgUDSIaBPVoVSAaXCCEqlgj1f/X/6LYgmsD5x1Wo1VCoVVKoo/kl/x5BY508nXT9EzQKB3xIBmaRKpRJKpRGMjY1hYmICIyPp9/hIzATWJy+RNiIiAuEhgVBFhsDKLi1srU1hamEFrUbNUbHC2IQtMlXIllmjhYa0BHFbCpv1fur+0JJfrzFoYOg5Wq7k80uhVkOriYBWpYLC1BLQagCFEaA04nskLUaugyK6DUpu2BcuKq77H/UF5HVERUpxiEYNI3MraKGU6pMiFF3/6T5FzMe6cENBbZJ7oKXvNdBERQCqSCgs7QC1iturH9dw2/VqSihsUYcH8uDCyARKI1MOluSx+GIXNSpAoZSGRmkiZzcAjQbQRHF9CqpX72K5iArl8jA2g4Rj7DwII8tjy+4aNGoVy4nSxIJ7FKd47PqjIhkTpaUNCDPuBz1LP9fCY0PjEMXtZ+w1UVAojAGlceyyVFKtpsJQGJlAq1FxnxRUTnfFklvqH5XVqAEj089yPDwG1C6qh/Dh50sYsHyyrKioBhjR86g8tZ09Wao3ClCaQqFU8mc8VvQsLY2/NHYsrVSexgeAUmnCoquKikRwYCAiIjUwMTGHmZlZvCSOJrBkdaMQHh6OkJAQmJgYwzFdaiiNlIBaQzVz46mzLOxRYVAYW0CrjmBgFUZm0KojoTQ2kzrHnVXqhFJqPAu2AXkw6ryGlEVCSTM5qcZEpQFT8LO1ahUUZlYACYYxCYIRP08JItTnD2ZMIQmOBCz1kzSdJCj0fy0JOPVcFc6DoKD+qVVQmphL38epWR50ahfdS11QKKgtsgSRQOjqpEGTicMKURYQqaxEYp3AkBCxwEkZDgXVQX03tqAOxlEj8VOZcOWxZKlRA0RkI8KInvv5xcJORbm9kgwoiTj6ULKwEnZaaEkOSEhpHBTG0FLd8VzMdZIlWdAZI1OuX9a7MbfpiAI1NGHB0JqaQ2lsqSOuHvrRZFSxsjQyt2HiSLyJabBkrNQSaUnpU5vpf/plmJxqVm7UBxqXWMpVxp6VIRkO6X55vNjQEaYyHrpxlAwgCWSM8taQDND3SiMoScHqlAY/38gEFMoGfAqCRq2BmbklW2Sy0NHudkS4RkuFiMDh4WEIDg6GShWJrNmcDc86k0ZhLUkazxhadZQkeEpTiegm5hJBWMMYSYNNRGFhlAVbJ6o60rBQxLWm8QiDZFNiX/x8hZGk1Qg08hhI0xubSYOmE0gefrKQSgKfjHZsaxpLiFjza6BgYpI1k/rJBGBtKmlr1in0TI5d4hdgyWppJEGn9lA9NNjGpnod0ULL1kTyDRTEUlaieoCx0iHlE8XKlL5PSD9KFkPnGZBQs/Ig0pCFip/A+qgypmRVdApHUng6j4e1VOw6SFloyeswNpfaHT1MhKHkIEkXD7jUbmNTScB1Zp1lQFaRLAtsmrjNjHm0l6OWjANjRNYRQFQEFKYWEq4yuXh8SIHRmMtWWbaoujFhkpHsknyyZomGgfuklsaW+8vE1lO0ZNxY7xtLMsXCQI8khcauq8QpdlZ0lp3qoP6wdZYsOskh8YR5ryDnIwq+fgEwMbGAubkZu9TR7rRM4IiISISEBCMwMAA5cmZhpsuudbxqNNaHugGQuRjtXsf0P9rCURuZ1KbQ0mAojKAwMZNcJLII7OZJLghfsrZOwBrHR+BYgscuvgoaJgMAVTgPHikVWSBlN/Sr/ZRdKjlC4ESfmt1AcsWUJpaSSDL4sjv/ea1SPlBf8UjuJxOZyMUhiq697EUkRDCd8BEBZIuv5wpHu+EkLOzokbDEWCUaE01kCJRmtjoSx+/ySs3VWePIEG6bkZk1tDR2X5haZPmhcIE6bGQiWXF2F2ITQxpnLbSRoVBSWKTz1qh+9i30FAyHVyQ/ptY6RUzKlDDSlY0miIr9P0np6dxzHZYxUzT65JOUGysHPYsc7QXRWOs8y1hKgT7VKcbPrC4rDCK1zooTSXXlJQ9AInS0QifPgK2zJD+SKy59plZr4e8XAAuL2FZYQQQm6xsWFobAwECEhYUib75cOvJooZEngb8o3TS4sS2h5J7GjYXJCBCY5FpKmo3dKAadBEzBAkUNV5paQasiDW6mi43oCbFdHbo/XgtMwqZzzyQAqWad6yeFKNw2jYosqDGTmp6jT5R4BVPnarPbrXODWZPLcQ81iEMKY8laG5Em/px8MoFjkVwebNLCNMgUjphaxwUxzijESTroLIyGiWAltUvniiVMNEkANREhUFoQkT/3GqQ8h4rHQWlEfaN+hrPHQBY5oUuyKFHQqjVS6KEXC8aKPbjLUizOvgbVq3PV5bBSfoYUBpDiCYLCPJXkdWgVMa63bL1pjMID2DgYmVhHS2dsd5q8KUlRcl4gTj5BtpLMW5ITUqT6uR+SLSaYvuckKWdyjZWkQug+valYyTuUrK78PKkNGs5pROd+WCHHrtvbyx9mZlI8HG2Fw8PUWrVahZCQUHz65I+oyHD8kdsZSiNzKa7UJT44OmNXMd5oUiKgTvtFWxf5bz2/jn1+Ay4iIAkNx0WcaKHOKNkVVphYMkAcu1B2TtZUuuSSpLV1D5Xjii89U3Z9OY6OhIKUB7lgHOcSCUgqdBpa56pxXxOwPrLlkeLBSCkXQF6G7KKzV6FTAqy4pPhRipl0hNfFlURGhbG5RJQvWTspZcQ4sYtPAsJaXopzJaonnIBgYnA3owATcj2p7aT8JGUoxW1S26TQQ2o/18gJnph4VBJI3RN192jIalKehEIOCltYkUqxppR8lPrPCT6q18xSJ0+ySJMMSJqXPAmNJlKX8DLWKXapZZKnR+EXYUnPogQUEUx6ppQEk4gnyYlev/SMlVYreUMxOZGY9RBSzE/yTuGHpPCkfIH0fO65rl7ZjebEVXR9UrwsYU716MfLkqxz26LJT0pLBS8fcqPNYGFhEZPQIgJHRRGBg+Hv78fxb758uSRXVh3FAbOkidSsfTWqCAZOSmQFQRV2CUaWUfAK8YXnp0JwOrgb6doPhDo4DMYOjjAyM5OooxM+Sk7Fdh/jY5YkjHKyQ7pf/zYNoCJFoPMQVFFQmllIGUgCjrVl7MTFF/krjUB0LMbAqiJ58DREaIUSSk6KyW7glzWQfgaZf9dpXVBdRGS2EnJiTUpqxL2kJI9EEB5s8kZIYChOjutSy5jK5krnBnLsxf2i+FJOzsXfdomUOgLoQhiympLFkvyrWFZcZ+nY2puYSYKsW0cgWRhdzKrDlmNezmpHQksWNnqiQIonZf+N9SKtO1CFszstEUCaaZDCK1JDEqkZE84ek4zqkpA6yy3nH7gMNDAipSwnjPghEuaxLLIukcnPYALGJCmlPBQRXyKuFAPryaSsiNjjIuURoyw436GnnLleUo7UG138K+cCOE9BBeS8gc4zI1n0/OALY2NTWFpaMYF5jlgicBQnr/z8/KDWRKFAgbzRoxw3cywNNBD+/BhCbq6HiVMOmOb3A1QBMNJ2RMCVB9CEXoUmxBbvivRFJmcnONpQ8ogiEkkrq2VtJQOoGz3W9jorITnMukHX/S67O9HZvTgWheMtTtaoJOVjZiNpeM7aSe5PtCDqMgSyfpetOGs/yaxIFjN6qkwjZaLJ2tDXNN3BQqoTKb2YV84dyDpEtlg8kDTVEhkMpbGFZEGMZKGMax0lAutf0r1hUsaSkkO62I5FhQUhvlhZikO5LrLiukSXDl09jHVJHJ1FIMEnT4f6KBFHL33G40ckkDLE7KmpImFkQS5/fMpIZ7dpLKj97FGY6iWyZKsuCRdXSx4QyTG3IaZf0S61bMF0IRnPOjBxZA9GCs0kpRTJskeejBzfykpW9gSkzDk9MGbKKRp73TSPjHFM3KoLdzhJJVlj/WkqaWpIUgaxxpGnxGiRhs56E7pEaDlJqAvzJEssJdRIdt6/94apqQUsLS11BFZKBI6MikSITGB1FAoUzKfXdo0kp7pLHRaJTx5PoXo9EtAGM8jW5cpCq7kFrVYJTbgRgm5/gmmGIhjzviVqFrRH4xJZpAwcaV8mRBQ3WGlmBQ3FEKw1dXNiPNZS8C+5bjpXSO6UrPaYHVKgH9epj8kMUjU0/aEFosJ1rpmVdIvOs1BqNVBrNOxp6FKF0QY/FuhsEZVSe0kTU3ly59k609RZzEVxvtQ8aSqJ4yZKWPC0hU5rU7aRkl88NSXFfFIGUwY7HgLreEADq6b5WRJYcyKNLhv6GRJSm6KFiqwRhSKmknuqn6CJFpToTDxZwUioo8JgZJkqVvwXbWnJs+CMMFlfnTvN1lefcDo3keJsjjOpXop1ySuQLbyMiYQVX4QVJdjIndfPzuvCDylmlqwVkV1pbhujZGQPh1cRqjlPQuOgNLeOM9dOnqU0AxCdddaLV6UMP4Uj8oyCLm8jY6eOkpSEXh6E8ziEMXkE+vkBDsWidM6ELnklTy/p3HklzeDo+i+1S1LKUhZbiXdEYBMzWFlZxyFwZCRbYHKhKR4uUDCPzm2SXVmKPSRX7PW/xxB48gHMnQ/BqkQ4HocoEeRsicxptchhJ0nQpxNZEXo9G0yrOkNbdQ+sLQrB3rY3jM1MoSElJw82WSRVhDSlxCn6KClpRS4xu4q6gTU2ibVIRLKikjTHn2OTSS37abopGZ1Gk2NE1rpkUdml47SWJPA6yx8ds+q4KXmjumysXhzIn6oipLlheTpDCqCkBF08yTdWUHK9usUPPODytALPuUtztlJ7SNh0dlO2iizEukSMqVVMffFkwHUer+QWRoZKipFjLMmd/CzJJUNIxNNNcylNTDkJyWRliy/Ns8sXLa4BWTt5gY0uWxgd30YXlAjF3o/OusgLHT4LJ2iMWBaIAP+n7TvA7KrL9N+5fXpPb5QEMAniCisiuKKoKFjAjigWEEUEWVCqKN2CIAu6Kjaw0asVxAaKhV5UQhJSZlIm08vt5f+8Xznn3JtB4u7+51k2MTNz77nn/L72fu/3fkTbmY7yf9rhdoBNasaUgWGRutrKCSlf6FiY9Ugm5L3a+lS6rpcrmY0Gl/qyiBlNNOuxdpEcEK2/63vAjhdYyyjS/tL6P1KHS33uabrW67xuMeCBbUgmUy9gwOUiVu6zmzJZBFQoISaslgqKpWcxcPvt2HxrAvfvPhfphY+gc/4A+nuXoKd5Hg6YX0FTaTs2fBIobu1AKT2N4c8Pory9D6tGj8bSDx9slqdR3dyD1RohwuywvEaviqZbBHP4gEgs4YOUVktdZhIULEFkMShef5DGYA15y20dROD3JWWTNpCnQ9Geq0eywLytDrO0QGojfQ86H40YWiNpLTYL8mfgVV2UF2MpK9IrGapnGVYXyYNu+Mxi2wqwye868DYbYCX3w8AUqcMU4HGwpPGVg8gt7DfFBMgUEiOb7TrkFpBIMYM4o3zAlNr5h6UcyE0ByZRmMI19ZK+8mUGx9ZfUPndj7eq1qYB9fH5ShjHT4b2KZGeMfgKAprWKZo3b2C4SwzYwVoxQfsIcKJMD3jsHnaJOTwOE1rTW67UgIGWfWHvYnpJzRwdm5yNAox3UMqcmqH9QI8MMmBHYa2BPoaMRuMwamCAWL5ieRwkVxcIEHl1/OpoT4/jZmiV4YuYkxKqbcPL+ZRy45+sEeNAwWcP4b9dh4LO3Y3OsjB+dcThqO0p41QNP4QNffjfiXa2arfEnG851WJfoA9demEVaD8f2IeXBMY2Ueiou7S4hOzQ5A8p7gxqug7aS1W4OhXjKGjTdGW0EFSbbSfuX9SmhEzbsIchzNi/tCVoQGZVKF+03h+FK0efgc0ZIJNLWYTstnhJCO9i4nx3+j9ic0fT8X4L0zfqJBtBI3e0Ak9xLK0OMcVTnUAKyiZYxBDDl2ZHt1mCTclCNukjaqeQdPENGpAg/t6alHpXlNc2Aoy+pCZ+yocTxSqmh7LdoQa7GUJFAI5U5waqgRnfHa8wrqTFJwdSWUZgQaFahmZ3Vqw3PQ+mmzFjUsSvAZeQYIcXY96wMClpQhob7+4X/rjVwENlZUvEEM41mf75WQ9xQaL9OjcAvZMCVElavYgqt3ovAEm/inzb/CVf97mqkYlWsGInjmab34qhXH4A3L2/Vh8Eag5GDKXGthsLWNXh68FJcv60TxdIc7PvLZ/GOo45E35uPs/aApoch82bnAi6atki5G8UgI31eQuza1okr0GSMK4lgibhGMkltZ6dUhg8yGtKdnxqz6G9tHAFNCZg4XXTWkBgap0xyGauMB411nxwCax/pB7P/NJLLIbPgUZU6W1FJPtwg1dw5EAfOQOo+I8TwH1nfVxmRZgubfCMi7nyGbvQeiSTihTRCJyEwHSW4FGV3BX1Svy5zQjR2qf2dfuhorGdBVgJIluXWaaVDHfMsaOvxc5hxW+vLwSMh1FgLTNtFznai10kq+4yGKW0l+wr6wApaukO1069tKeIcERZcQDKS17P0N5pmW5azU/odINWGqLvzlDpbI7e0R4MyKmxdMRMd3LIdqWTzC9XARaxatcI+nR+uGm584kb85O93ozpRxpvvH8Kchbvh4EuuRUJ6jI5Kan9Q73AF2a3/iQcHtyG3vYwFNw+je+ke2O28r0nNK7WCs46MgjkbmV4BE61NNYqq2IDXlhpdo4ZpUU08Mp9JUiKH1NRCIte6bzZig9e4Ajr55/DDxHpW2kEKaEgNZcMEO9lSJD0OqnFjJelhVgpl0DrQXDv8T5OOoEcRtqKsvTFL26nOCXl9SSAkrvTR52dzhQdZe7WaUmvWUR/uvP4nAUayCgHfjE/cGJHl8qsCHspntfpenmM0+glppRKWHnIfHFCsv7PK1GIGV5/maqnNvnUJ4vBSzQFHXocewv41CIyxPWX1lzp+T5c9Yoe9WHcies02bhsxem1h2WBP0KaynrZ9Vu07W+pt7Tb1FEy76cjZy7Y2ptT2kXLSEfAAxMq8UApdxGoacPBAlNr4tT9ei5/+/TfoqpVxyhPbsWS//8C8D35OryMySRNlRhUmfowdQ7chHath4PdZbNvcgjecf0uEJuZ0SQI6cVSJFAuST/aVEj4UMOZht1duqAPFQAyuf56gFL4f0yBjSEl9wdaDWZjWUh51FVjQi9mZ4yvgkpFMhHEjqZ03yZT4EZ28ksNiabxGBqKjvBYCFATRGNH1gISpVmjA0c8l/GJviQR5amToQJ5bSD+UwZBSXvqg1VnQasUBiJo6n9kQW1JdG8Ew4wMoI4mUxpKg4ErPVMep9Zwz1TiRY50EIXtE01b/fEbmkAdNRDvEHjwKuqPjZ4+R3+zOz8OM0zz5WQvTkkZr9Is8O0N8hXGWIj+bQwHG7guQZ802vT/rxhl8LmGjzULgEMIbiUUKenkeJ05ForHWxtaa0HMdOAGmzJzgMp55cI/4HAwUM1LILqXQ5XIB+65cgUpxGk1xTn7wQVbxwJpv4ZHnfo3kUBFvXZpHz4KDkVx+Vn1SJp7Q5XiAe9b8Atc/9EP5/cXNNaye24r3vuJa+wBaf8nNshsjH1CQRPVO0ost5zXaOTpNkEYmY0IUsrFfOpsha7bCG6lopvSKGcnzU4ZEZ6wlYIYrbSOl6NUZUK2qbQmrs7yPLGN+0vLIBKN19VHRUum6MULj0TL1I0BEtD1I457HgI0GKqWC3C86IdbqVioYcBO9bLmdRIh5+OT+Wd1LlpJE0Ej6yEMoBAn2NZWwQyOs2s8q+uuWw9tI8I/tIGYlHrm0DBByLH+WKHuR7Si2KSzKSc3MLIb3W39XgCipryOGZ1NBATrNKNzcEf6MWIvRDvlkakXU2OpIGpPLwwCjIPENGR4pSttJXKYjoZLil1GjQzXKZ7TVpr+rTmEn8odNlUUzO3ld4feHGZ9iOsZTYJZjU3TKcqsHxYS730QQi9mqgkW7aMBMoZdbzai1I73FQ8/ehMfW/AS1rQW8YUkZnR1z0fGyayw9zWgRz9SQaRXrHwCfuecirN3xLIqIoYQYjlkxB+/Z/xK9pQGCpanjrFzdCIVRYoyNY9HbySGUmpv1mDJ7tB9pAFQQvzUiST1k9ET3qN731dfWAy6HRz5HGFX1FQJUYGeChaX3imkQjGBf2aZJJCo58BGidjvV935tkpoqKSEgmYSeQBMGLyscSTbj/6f1sWQXirLKawgzy51Vo8sz5hcRdeNUN1JHvTSQdFoij2ZIxEECA7RQpLWyjYeq1cxKPOE9kcjEQ+uEGqdYBgGb/dWE1vh1dbVP9DBKsjRVXrEGB8Urglq5UkKcUThCq/S2lJM0BMj067GyydNoPb9RMC4EvtRAnU6p7R9/1s55dgxFer0ym63PWoFVc4L+uR0Uq5YxOKhEjn+KQpNKKQYc+eJz2Lj193joqWuwoFTEXokSxh4ooOvAT6D/DW8KiBekydEbky302I61uPTBqxGP0xsD2RzwgX3fgKNXvlOdgnnZWWbE69/ZhgZmi6qa8ipApCOMlsLIAHYkZbH02H7gn9eDTA1tyEGmpZyaKai5sslmi/iBd7WsQlIxGWUkYEKAr570X2fAUQM1Ty9ghrC+Aqw6oHuGTDTNeLRNpnzqgN0TZYZF7mEwBphkb7WRNWXTL06J5LvzOqQ11VBKWGT2A8dLYHpb1+cKAQAtGZi+ck7X+887+Y0qKvlpINVmoOQs88G8tvy0kDIUN/BxwbC2ZposGZs8M5WmiV6/sMzifJY+GRUyuEJUWMclNaUPo65GVgNEI/Wq/p4Zb2DwFjysTFGUOa5EDwGAoq0la/HJr0T52eHY4eCWHUglX6AGns2A5T5XJpHfejKqlRnUslVsunoUlel5WHLKZehYtRBNKaWgUXpn7VQeF/72vzAysUbSgLZWoDWZxpdfcxF6Mj3CsCFhXqaA6IFknJDkgHrwwtM3Q3SCmBqppMSLKjvKQAH2DcHaUqOzGKBQ6EwRoWHAu9FRxQzOt1tvDrUM8KGnyeSJ1qkOmCn9Ur24E2jte8b/Zaqo6hAGqOzUxNYrUTDDMgJ5LQIgGsVDG/D+ggAAIABJREFUkE8jeeC1g9SMKakDUFpDhUQAXltIbKkUi5K+8qDrgzNCiDCLwgOvs8o8U16n81yz383WiQ6h62dmZCc5JOoUwnFCiX6W6Sj4FWWA6PSOlu8cWCmjxqxKolfEJ1iKLrUmI6zQQuuLBTEkJwfJlJBRPv3nZE6ZdE4qmui5CMsW036zYRBHngOQiq9N2qj0w/k5w2pXB/N5hp1zbhW8t+IExGNmYy20SCkVpNtyLyP3L0Kl5DUODmwVdY4XiMAFrNpnd2tXeNqoB6YyfReK4z+UmzLwzVHknskgnnwbknO7UFrWg4e6m7F++WJsy1Uwkx/A+PD3hfKX21HEK5a/Ghcf9UF94DJuZYPdjE72YHljAuULIZ+HqhzhTVbARTy/19AKH0RQ3EiRJifde8McV9SZ0/r+pCfIhqLX5QAR+rw4SbZctD9OhNsP7OwATfSFdN6XX6x1wxIiCL+aRDlV0CiYOg5oaalEm1lzEUutleAvKLcN0hOoiSCS6iTcebDuJEIvBBnLEGbjUxPdrXBAvkUosOIk1JUF1yMpJQkXMpZpSLu19qJ9dAGRiBMktCWmz9gYWWZk1UIWtWTGUl6bfBLjYEQmhbUgZZrQSOX58kqM7WQ3SDjjnHOOOFRhlAnoyQywpgMOEUfqo35Ongi/5+Cm0ibD2ljLgaDWrVPg4Lc8ivN+GSddKLWhE5dzRMfkoJtHcqGphuUI33NgYOsuROBSDqtXLtdhe68z2QpgxKxMoDjyBVRK6zH2qymM3MHG/jL8bmZfrC3E8Gx7DLEFXeg+4gAkOlpQqeax6fE/Y15bB64+9nXoa8+E+IdFTOu8BTh24NOI1FoEFdkeqQ1JVTREL+hRRg6kx7BIlHUPzmgV8/aKHRzePEGQRV7G5z0bCBZyQarQaQCvYkCswyXaWAtNHqxF0UgLqC7Cu2SSUCeNBRXpPWqvWopmG76wmCyen4QHglyNOlD2ntKqsGhSaxKDi4sRNKLonupZhmC4hdIid0Lswl4v0VTpoUb4yw2+RNolVgIwyuqcd0NWzXtfZLtKueFaO9c7Jl5ZtZi3boThEt5m8/c0Fpk+DCN7MGLbe6pais3XunoIWXwyYkjWWgEJaycFY31B9PTnqK8tyLMzovxs+RkiVOdcfm81BTPv2k5SQ1bqZTTaSwfDnFzgxi3qRscc1elWMTjIPvALcaHLbCPtOaubF8Gy8hTyg1/A6I0PSyq9bk0VPxvaD7nmvbEWBTnObYe8CG37r0ClVEL+ufW44KiXYp95nUE9Zx0103jSGk5BAzMWQ4CFMcQ00NNTr09ZVzKVEdID0yAiymHdMHuMoic3lYsw6MnNVWOkRE7ZqGuaJQS9u0hbpj6CqZdVj87WCiMfU1LPEOp7nsHbOoJdLhiKS+TaQJaorI+AeNGvKirFnLZSGOUE8LC2R0AocIN2Xq6xewLk2SwqMmnlfWb2T4OU1cAYDVkGEJFMwUgtETgocAMqp35ufZ6kdEbbUPporf1mtaX05us8nJcQhkgnW81Jhj+kr8nuwbS8h1J+zTDskuQcsXthNa5yoI33rQ9QBAFEVcTSXkeQw+6Cg0k7c8VD8CwqzWOBJCBr8P0s6wpSbg823oY0jreVQEr40Xo87DtLz0nO2ZYtw0ilmEL/s2GGf2LAnlJUyiVM3X8dCo/ejkfXF/DbtfuglHoxnqnkSX5D5qV7oPdVq7G8K4ETliXQ3daOaiUvgmiM5GxJKFkiSvyW0GM1gI39WU0dBgav4SxQ8QYJ00knSir5GYkQsZTPIDeM10UGCNwQpY4U7MGmVsiGsTQ5zqxDnEd9ZApTUK+rtQ/LWjxW47hkRVQKZ8t39b1ICHEml6LejLBNSQdm7MA2GLAeLpYfJRNuIwvuebjWlloK/1dUNDjPnUSNgxABph6NNKF8izC5JKXWiFb36V2ggEi5RBojxxhvWA6tzVILgOeAGH+PRuT6T2y7sV/rdEGxex20Z+tE2ig82MRHIl+CwHuUN5pp8G1n64koIu9xoq52t0+rfO3CFOKZLhU7sKgatpRMdCIY9vd6Vs+aRlMTKoz8rmSKVKG0XjhTa6n3hXknJ05qfc0iI6Cmq28YQ6yuJpdUWiP5FqLQuzLMsHrlHtY3cbDE/qfdoG9+8zvo6urAGw55CarDG/Gr+4oY3FTARLmM+NxmvPTwVVjYn8Rt130HQ9u349xPn4758+cqEmh9MPZ7yfzhIddel8muiFFHUw394C/0JSN+0dpOUixvbRmK6qCARy2G9kC5Q1tZBOEU2dV3rBRJzKchq2CaUj+9wRMagNdFkl2Y6ogMC/gkjaVRdZM/wccyvjKNgUabyphGno0lWgrlRHpxF0HaqGQTPYTq4DwK6s9o+00MmJ9D6tawaWEBSY2RhsfoKkYzW7GtKCsdkBi4zMA2ziA7e49qHsZSCkZCI/AjSzQHwcTITYxBnKWSQaR/zIxGsn7jbStbQiMns5HmzoAgoZHRUm4Z9YuAdHIPVa1E2jbFGSRauutPlk8pReR1/NyF6hkRINJuntTxfCVpY/L/6HwUcQ7pmY7DGOJt1EttJfHfXHpHz7u/ZkgA2dU+cCmHlcsX6sM2Hqh4APt7Pl/A177+TWzbvh2bNg3g8Ne/VkYRFy9ciOnpGYxPTOBFL9oLP//FvXhu42YcfNDLcNyxx6CrK2zihzfFiBy8ZIH2qR7JWktRV2GnCOATyo7o09QUN3gd6Y2GtatHVwVJVHqH0VEVKnUapR4trU/Ros5CfC9TLkYyqdkiPb9ZvErYTjKyiMuj0JCF4+x1augk3Ii0RWrTK9rMDAXZeFNsgiZ8W4JQVNskIhsPVCc9Dw4H8Q1044cxRUMBnRy9tvstwJTT/oTwEd7hQFpWbkiT9t8pe9No6PKa2vqQ5yZ9ZHEbdXdL3p8GSDDLa8+GTEeYeRapJBOIUiwNQxHyv9xApdMGaHdQuypvvQ5Q4vXzvYU0os5C5JLlPkSmidzo+X1x9vU1rDoVo/ESD4k6kICeaTI7jt0Et1Tr4tleM3reo9nfLhE5KmWi0LvJGXDwiDdYFC4ICpQLKFfKGNw+gjvvvAu/+v2D+PrVV+L6H9yA9c89h0Q8hoMPORhTk5OS3r73Pe9AZ+fsxtvwRLWqitLtzPgU+TWjlSybEcLREUOQbaROL9xuqtMb5WY6YhjOtwoo0yCrWodKNsQhub4KFS7Z79YDriQNbz+YrpSBGW5AgbJCpEUj6fBOiYVFYpHDLYvMaqAy4SVnJP0N6sFKESxrwkwhVD9xByRvJVGJiYQNY/DfTGPYp7EkC2GrQ6Z2LL336xSgTz61Xl8w2KFRI+jLO9VREHSbcQ4aA0wjve1H+qDO6O6Mn+msuLC0rO0kzyYqOCA8a7auFEOoS/fpdLMTglTLZxMn4S0afm8c8dbukNIYGSAJJtQkYrteV6jOol0z4zfbtUsbzIxcz0WovVVHEonQUaXWVe+mdbm30vxaGuxhlwyYVEppI/lFRF/E6hSmC5S5ZCvo8Seewl8e/itW7b0PcvkCHnv8UbzusNdgxe5LkErGEc90KM/E0gud1zRtXM2NIkzqupgaCQA6/K4BQ4ns0qy3+VDWdXGh/XnG4nBwvQVqhh3ueZIpJhHNs4kTRnsBzUL6xCxBNigDtJa1lMj42qoxrdG1nqQSRgFR32A6TnuX+xH10mFzX+olOgvK70j54aw6NZaqZx1yMM1xCedYjcztTnvk+v6eRrKFslNtb7dL1uhwVNMoki61WpeZ8LVy44g1d9k9pb3XI+RyfwgM0oi8dOKfAoKZVmCJkZDEjbDOpKPRSFpDtZBDU7OqbfgXBSEkgqOGOIOLpJ++KURSJi0bmDWZXnZdSSDRf0Y/n1Mno/mG9Jt1k8XOvGum9tri0XNCQw3HIxVhCzctuP60GrSxxNxp2ocKRPIs26hvSaqNMLqLIscLMbEqZGKxBg7yuhBvNJjYIpz/yM76x0F6JqZpzXyhx1mzm5FcDiaRyshkSf0JMeNWkoG3WNRjqYHWEedN4kbH9bwt3NhCsUihHy6w7kA4gDOv0jJTbq9nfQoeqfPQe6C/6zPFIjYudaMxd7zlFBmSCstdZdzoQ7cayfuH9pp2Z4P3U2VLauplwjRZallDh523TYCFf/cpKaNcOhostZ9YDuvNKNppN96cgnYFFEnX19pZa0trVJvOmsUI7BGIwos/kKA14g9IfI4JRmjKZy00+1xCGCkq6UcemQ/CG0pLTrPoiql6i2Y1vpanCRWJsn0Raqc7UdXmolRQFDDSI2+C9ZZF1JM86r+nypY2+OIZYkCxVHH3oJ63IBFOedl5sjU7fo93uh7DU/isdZzwBdtIGoFVdiZsF7i3Cdors4SmurZBACjVNwKDqGBcV58flvTckUr3pjLDKrfI9OMM9Z0FYtGgp5HJ51u1x6iEcDU7i6x+bd6DtUlUt2tp6Ad6TyZyJpmOb0fw8OEHn39SEoizyN7rlpnHMHWXKzHj90xAZFlrur0geHMvI7SNpdHcIgI/t2smN9z/MNpWRccqqswxmzY1HRV5yz6w4A5S6X4KPimCzdo9HPCQtp44XUXRnRjjkcbPgF+3sJ4o4Caki2iYs0ychAsB2NgSirR67H4QCBTSi0q4mK5Y2HCPWUTX97M2jOEUJHPogD8fg1Fb+bo8D6WsiB4GTjhQ44gy3qztE/meZCMBB9taTObSQ+OPCOMFDiGk9mo24goejVNalpVGxOIdd9mlFJo18Mq9lqg+r6SUTEUo1ZJGpTCDYpXSsrb4S2o0PaTqa6JAhSG1Yiz672JMni660YjhhYwe8VgBAZ30Ly7KMhkUz6M1Hpl8ir22pa3hTjPtK8cMWRVxNhc7F0/bkDkEDqCMeCyGVFJhfuUOm05x9ADWtXg8/VMkWCZ06ByEqG5GKJfsnFtd5SJGzz9kDpc1p7cg+K8EqJjiO3ij5BF+J+6SPQ0WEQA1/CFG2ED6ZmdEWQ6RkHWoVpnWWjTKn7Z7rOtRrOUhkVuXhalRmHOWbMraPRL1mWmFcrk0eF3EFl5wOGwvKYGpbDZ6JfZrqQTKeWKXKQqTaQGexEgpt8OpqoQ2bOyclGfGEG/tsjqXwKXKMEmWW5iW8k7cqmQJodi6X4U6BXUgAXgpYKhOf4UfKGRZ+WCOfz6VIdLnrRkj1UOqgVJqYxkjsstOHLEb5j+zywZMEMsNznuGdAi33flLPP7ks1InNmeaxVNTIV7WHyaTSCR9BaKCO/x+RbjJWne6ZxdhNKENKrrsKaqnxvp9fk7rxxliqh9EjZ0/o2sYw/SOMiTB4jB5P06taAngr8nX4H9+LaJWIf3MWqC1m0zEsWheOw479CB72rqaRIXrTOaUkShIpd0haFrkqbaUCTwYTAGDRCR0OErHtJaJAG8mC2QE+ijS7s9DkoxKUVhWmjdWlQseSakDJ0imjwy3W9JvaaaCavZvBJSkZGhAieUHnMusLb6ddjPZizDzENH2SLcg+noyJsghBkO9NbtzVlQV1fwUEgSUgsqdWmyqYCqRqimJmgwf6LOkyKganqo/8jNqEHAeuj4PRlk6p9nE2VFSxUv5vYZNkXx1Fe9TTr22Py2CR6eaxMGH0rHeSpTnKg9cI7GWxbYwzaaM/Gf1+6pk6bvFGoUt3KEolXKXUmg1YH3KGtL/8shT+N71dyCVSiKVSiGdSiERTwS7S+OJBOKJuG5PM9obLzoeD41Yie/80H6D1F2GFMQIwCQGrNrADl7Fxfvzw9oaFs59Srod5ZZqZNX/uFOmIobpBuxG73V6+LP6O9TIfuivD6G1JYMvXnIG2ttb6+6FG7Ig4RHqnPoWBZrk4TgqK4FWl74peyp4ogYo2WoPR3YZcVnHm0pmFLzRx+HTMJ4uRgXbG1s1tupTZrqthpQLZbThaylPnNcni9/EmcgFBww4mo0MqzMK12km+7Oi6BwjeVMkba+PpJo5eK1orR6XEWbUl7lg74Ma192pk2LALF0cqDMgU95C+7nx5s4wi/O6n1kcgc6WnlAr2nEMlmrGFovO93pbTWtbnWyTLw8kUR50oGxpdFADWL1XH05JWWqvr1inEa1n0ByFTUw1OtLondxFLnQeq/ZeEiCzeiRi+O71t+EPDz6CTCaDTHOzGCrTTL6hLiCOiwHTWNywWXs9/fSTSCRiIkbd0dEhP8tTXKlV0ZxWMrlH5zqfIUfdyRkapfjaNEjxwuK1mGGTuWM1m0X58EMr2OHejtes3s4iPB2MrWbh77AV8+CDD6KttRVz5szB6ae8D/19Pe7JDAklMjqN8sgmaa0luhcg3tofFhBNQO65PyE1b28Utz2DzLIDgjpW7qUrTkjbQD28OjArNSTqMSVVBo9EmgBPME62OAtu6uOoH39OD3edrrShtFXWenQIwoKK6jVbS0bOFxlDKgyg72Xzun4jXVbItaSs3pQ+vRFhhChiM9ThcwxbS6Lx3Epj0oOsn9g+s4i4GxEiMBKry0StQuqGEDy1HquUSGJoPgvs2xnMoVvfP3g/oXJSCaUkCpb1kdeyN/6M3CsVfnD5WY+KAZouftDEFAwlFidlk1wSWgIxAqPJRvstQVeAEMHz6ZX50VNDFy70C1IpS3ms3GeZ7gbiAxM5zjyu/f7PxIAZfWnE/JMGQaOiUdKIkmwb2d81tU7gnnt+joHBjTICtXjBQuTyOdk/vGPHMI46+l1ob28PjLDeb6sYGw3UDZCv6YfZa1gaozgFi07RVD06x+nLoMShWsqMuEdwoFgs4ve/+R3mzp2L7u5u2T9zykffgzl9XSH1U5QaYihufVoOI1lAfGBMEeOtPVobVUuYfPB7aFl1BLJP/xIdB31IaH1SZ1ULohEVa+03Kl0FldyYLnIT55MS+dYaCQymKFGZGbGDr56+PDWk6KlND8kEEPngUf6sE+IlisUUWTf1zoirUPMxA5bXSbdoK6jhi9emoBcXlGlWptIxEe0mOgpOK5lgnx50XcQtY3/CqmK/Vl9cA73PuvJZh6KB0WJZhPl9u4bUuaHxSw1coEJHp/HcKcyntSmfia5PJQ7h9EvW5Vx5y0EJotde2/M6bNeSL3IPKIzOpjJtcVO2DAb1pWzj4EQ4mC+ZjIlO1M+BN2pqeYr9PBiFlQkyHtuUwOBWzgO/QApdLhGFXhZEGyUb1PDf3/wxHvjDQ4Hh+sZwGrIaa0yiMI1OjVoN+09//iMeeeSvyKRT6GnrEo89OTmFUrmEdx/7fjEUDzBRzx3WE/ahDWDx5cYeRRvBqGhtITWwRee6mkw2J/DwcXghhtGxUTz91NPo6ekX0gkdFK//pOOPwtz+3ggDSG90YfAJaRtRIiaWbMPwDaei79ivozz6HHJ//430dltedDhyf7sHbQd9UI50cXgtpv54PdoPeDdmHrsdHYccj9yz9yPeuUBeM/vET9H1hrMw9pOL0Pbv70Fx82NyMDK7vxz5dX9A+0EfxPg9V6B13zeiuPUfyOzxciR6lwVtJU3bnVhilE//N4kqplhiRssesipj+jyvReSdqJFW18sqWE3vveURwpPGpIvoPjE9l+XwQovUlTDC3HLVFEZCA4eEminCCbqd3o+zgJnyvjGTno3ApIbOK4XRSBoNJCAZZnBBRF/mbQQlXRxARJnihyqEoEfdlFvqGFk+9mgKG0FmohNa4QyvgVRR5qBnHD46aaODdbujGh2mo9ySsZnIHZxK+ULzwKWCROAIDUBe/qtfux6/f+CvYsA0TBow/05jZSSmAfOzOKjFG8KfqaGMbHYaxUIe+WwOM9ksioUiuM5l1ep/k99v/PI0NxptSS4IqEsBoqe/6WmZg1ueNnsE9sHssNa2fh/KGBsbxfr168VwOzp6gs/H1zj5+KMwp79HEVT50hq+OPgk8lueksjZvPehYsD97/1vlIbWIL/2ATm0LastAr/ig/KbxaE1KKx9EO0HvR8zT/wUia5FmP7rj9Bz1KXy8xO//RraX3YsZh69HR2v+CAKA4/L4UouWIXpP/8YLasPx9QD30FqyX7CIiL5oWX1m8S5MsKznSK7oGb94vgce8m28U5yz3BBtfwKcQlbKOb7iTydNs+gnQnZstjQF6aEEpFnWXGiAxZRx6pZuS9sV4NW/q9tTTS9LeV0W9tMDrqRV6RVpPuqFagyQMhILjJmGVQg2oSXLIZ/ocpmAAqagfJz+hYNn1JyxFnwgcjqT99EGJnXjdatLtOjKbN2CYKZYUcPI4Lx4WLx8EGF99lq4shrRB/nLqHQ5VIeq/deGsxVehP+6q9+G7/53Z9koJjpQ5pptKXQasQKl0v05ea0JkeoFTARYCRYDORQP+VFTDK2QRer/gBoXRag0q6iYOiqABIUd5czEqYjioQrcq2GHq7I4OtPT+3AmjVr0d/fh7a2dkkRRUzbAJZPnnQM+vu7dRBfWiEK9BS3PIFY+zzEuDOoVsPITaei562XoDDwBMrbnxEkvJUG/PdfiTGKAe9Yg8L6v6DtZe9F7qlfIt7eh+w/7kP7yz8gB3n8vivQffiZmHnsbrQdeCxKA4/LYUgtXI3pB69Hy4vfjKkHvo2OV56I4vB6kaZJ9u4WLOwWWpdo/blD1PJAvgSpZrRlzWrgW0PWJm0Oj1YyxangoCtOBkgpI5NHaacFBkhqCXFbcu4HzzsMNCiJrlJ71qtFBnK90mP1oQar68UomBpbumn9Ux1o4OdVAX8dR2VnQ9eLCtAZZAtBTJeshjwB6SYYHhOdBw7PCfv6uqaV7yXdjACJDkcMHV0W0kuDZLFqkNUvOHPANWK+QatS8iGnq9qji57nXTPgYhar9lygPWDnIMdiuPqab+E3DzyMeCyFGAGseCKIvgJcEcSKa1unvg7WtNqRaYlj9gCj9W20zo0+fL+h8mdM20r8vei/u7HXqvXLlP11vFUUTae3b9+O7UMD6OrqQnNLM5IC4lBq1A9XE8445X2YSwP2QyMc3ioq2QnEWrpUnpTbFqdHkP3bPUj0Lg6iSmruPhKpm5cfIil1eXIIpeHn0LzsAJS2P4OmTIf0IWceuwPxjrmixphZuj8KW56SP8vjg+J2Yp0LkF//Z6QXrUQ1O4nsM/ch2bMEmeWv1Lo3MNMaaoUc4kaYkEPp7B8HfYQoo+tXNWB5f1IzEll4XqVSBWVXZxECkEkkbU1J+8Qlfo3KqbiJzwtbG8pUVbR2tcVnUSDL2mJyPkgsadTeknuv6h8C6dGQ7HOL5rQAdLr2VRQ3xIiYspOoYRz8YGChjEphGolW0j91IZt8DqF2RgA+Zz9F5Gt9wiwEHV04XmmfPmUWZo3ez63/TP59Oe+Czuvq1KhwfDTqRn9+l3YjMQKv2muxeW6PlDVccfW1+PVvGYGbBTVLMuomQhArGoEbjZgX6+0b9ygBsmpXG424DlZF62Ct8ZRSGEWuPYJroNGa17/896NINP8+MDCAsbExdHW3Sg0e9JNrRt6wovzM047DvDm9mjJay0ibyoZ2ClLs+LFxuu13pcZkL1NaB/YQhU3U2DYTyEVbTbJy07m0fLDGLPNDHRG6a2T/B6mnkSrkPsvvRVeD6gI5J10oiGVEE6dzij7xzsvO5J57bSZ8a1ObCPIb27UkdqrGoWQbvXcieMgyywgfHrm8v0qwR9U4I19m3EJkdWQ45Leq4J5oiLuSSVjP694n1bySqCuRg0vP7T4Hy82iypHu9CKcbjPyqKRs2Ouvj7p6Lnde2r2TQToZxDXg3CHVf/rgrOuZr2KLoNAvpEpZymHV8kX1L9UEfOkr38B9v35QXiBOQTCmy3Gvf7WNxDOj9XCIRusiYo3MDkCp8dYfZCdmNEbfqKFHDdgdQR04VVFPFkWi+XdHqfmzW7ZsEePt7ulGKqUpv0fzWlURTH/Pcz91AubP69vptmqZpr1PdQ4R6VDjdof93iogbCEO60v/K5xCIrjjdZLUqLYCxHqgMgYZfXebztJdSUYusLaPO0ARuX8euqUcZuEv89I1UoXzyQpiyZBIsjkAoLS1pEYuDpEsM/ksVssGJYuuDRXsRMqQyOidnEDV+daUPLLzyCRkZQgkqrls4vBSV5KhJhtAogBXBU2uI226yv4DbPNBNjhoD9a3M0h7zurpqGTNzqmx/apPBzk4F9Tn7E2HY4caKAwtd2ndqGt3FZHI5sGgdo6UfPWGbppvxr/newxuHd41TaxVpFLqsfb/w2Vfuhq/+vUfkE63GMKshA1vIzEC802ibSVeW9SA43FGIz30XMlSLis7S/fphnWqptZMt2zqREa6eDlhy8gjb5kiAq6EWAsPjRA+ZGkyJ5UUfNqwYZO0iwhYEYCLxRTh1rE/euqwMOSz+uzZJ2L+PPZ4tWcZRluje8q4m7YmfBG2OwNzn2Kgkqry4LOlERxEk8SVHqumiHrIdTOF/74TOXxbYY2tKFu6Jhsg7H6GLR2m0lkRLg+/eOU61K+RlGkwN/ntNM2rbytpr0dR68/686HTsbG8wHlyTNGE5QQRjgJOlqFIOcbDaMviAjBH2v2+m8mmiiw9l3TZtkaGAvuc4jJRATqqRv60OVc6PikwRPheUC19BpzsklRdeW8CzNl1OQUzAKlkVDB0zopYW0bl8kF+vyS91/MXDSphVFahCl9oFv0Ze9jajZGSQVl5oihi2ZcY8K4sNysXs3jRnvO0z2eay2RAXXTZFbj3N38UA2YazTEuHh5vG7mhavuIdbACSF4Px+JsK6gBOsBFA/b+rPdmg0giN6IKGigv3l/Hf87/jN4wBVdNVcPUREulshjrhg0bkC9UhEyixquouShwBAwkNRdP0S84+wQsXDhfVRZd3jXIHCLGTkOOxXX/Ur0bNbKC1oMyR2zePJgDDZomyt5qkoXkyjiT6GfuQ7kCJr1KYzGlD58VCyKkILRkVum1aHop1Bc7WJz3zUmU3QlQMeoke8JEuZ3XG34kW84tzpWosD4yrSHIAAAgAElEQVSbQI/MppN8UVd4L1U3TGrNBn1seW2vk70yF/RZp6GEiy39ZQXjdC1nzNQ42usQcYmkxaw6kwwReV0BI1s4+B7kDHA0sSHVDQTfLWJr2h/RpTIOenS0UD63OEQn44Slij8LeV4uVB/J1BoNXFVTjUFoabUlqQ6/ysffJQOuSA28VG+ejcXxGF14yeW45777AwNO2BoQr3fdgENDVgP21FmMOqF8Y35AkjmYynq6SgPN5fIYGNiMXC6Hrq4eVColzJs3T4yO/6ZgWUKIFm7QXuf6YXFjpHFWStSmimPz5s1yA5pb1HjrbazeaKN19yXnn4wFc7oirYiId6WduGSNo7dCCVStJM1sbXwtAgiLJKpobRnKGqSFYQ1dK+ewdceEoPy9vd1yueVyCeuf24xlSzlnbQP7bJFYr5c/Iy7F+o0qLWvrSTV9CT62eHihR7LNJ27fhnMjKL6NG/ovGR1AjUH8QWRW1tNAKSsMMRYVC93Qoeoqtnc56uSkxC+hmp9BXATf6zdFCMgjNTmpoNaGsrE9kZUNBASNrmjlBCOX0C8DQgvRbRMc5G2wwBQsKPc2l0QAq3+9NPFtgQENVltuSres51FHASxdjmei8BEZ2eC8io52iHGEQnb1MSD6v3bJgMvFHFbttcheXE6EPLDzL/wifn7P79Da2iF5ODeFe/RTKmXIyFKjpfFauizfiyGZ0rpp69atIArMevm5556T12Fqm8mkQccwMzMdRAu+djabFSomX5eGTFbXsmXLsHDhQvk7+82SijNNEoqiGiXP08aNGwWo4n9xmT/2iBv+GTiRIF9VWuIlF3wSCxbMDRQOXZB80+YBfOjEU4SQ8rETPogPvP89kilQMVIQXskErDTgZ7d21he+fLUQWk456SMSYXPZPDLNGQPeaigUdMorlYjjk58+H0uXLMTHTvywCJkN7RjG6454G2764Xew+7KlEo05UKK9Uj0Imq5rpciDzyi8c9tCn6lMTNnWCPmwQftJp5TkQBmopACZ9mdF8I+rTXyYInLCVATeyoEmlkWhuEBAG5XDbEvETG6IxkA1EQkYkfYWRxFrIAfbaIviCMnD1W4EhxE0eum2R7FDbnZg+eB62vxlZgbk1bMuljW4yvqqS29l8KV+DYqTRMQ52nWJMqu3ryLtSU0QvLZ3LEPTdL1sbYUqUSRcEh410J3T6npj3kUDzmLlCrZDfJZVr/6c8y7CT35+L1pbO5FOc0O4Ejo8AnsdSkOWlDcRQzymNS77wjxQpXIBjzzyiBikgE3sjxaLUgPzTwIcXZ2dMtm0bSsnLxIol7ixPi5EkGQ6g3RaySP8N9LsGI1XrFghhtzewc0JTahUKygWStiyZSs62tsD51KtWCgMABgOOYRieAmOAnLUy/YHffHSM7Fw4bwwcsmwfwr/9dVv4a6f/hKXX/oZPPLoYzj2ve/Ee97/MWwe2IJ99louRj9/3nzce99vsW1oSD7TFZ+/CO8+7iPi1G687uvyvet/fBvaOlpx+4++jcef/Bs+dc5FMtH1o+99HVd/7VrsGB7FmrXr8B8HH4QzPnkSXnvE23Hdt6/BGWd/Dse+6634wDHvtBaIor1Rdg9JGTzU3D5Ql16L4JqJkbMerOvJWqAOIpTufZavCKfcJ4n8dUPjzksfU/uvQU6gTpVUS+sRC2/audn8Xn4KsdauSI6gAvoCipEv3wj0iOazLl6LuXImjY9yR8Ius5FHU1YRxxIsdjNLZJbE15dMQrNC+ZJSyXWgVUNa/12HDmRk0QknTiqRb9t2Qqv/G+Oo0C2lFTq7Wunzx93wO7tuwHvM0+1yJm1Cozj73PNx589+hZaWLmSa22TFQ2MaHUWbeS7iCa15eXMYaXfs2CGRisbKqNnd14tCPi8RmW2pvr45SKYYgbMo5HOYP38BxsfHheqYnckikYwLzZGRd2pqCoVcXqI4HQA51W1tbVi6dKncYH4/yhbjbWBKrVmmkfY5puYPSDBSVbRgBOdrXv7587AoMGAdJ+MD3bh5C0799GckYr7z6Ddjr72W48xzL8LVV16Gz1/+FSyYPx8L5vbj/j/+FZ899wyc+IkzcOFnzsRPfn4PMuk03n/MO/Chj56Ga6++FFdc8x2sXvUicXK/u/8PePWrXomj33IErrrmm9ixYwgnnXg8Tvj4abj9huvw9mM+JOqeq1+0F7502ed0btTS6FkPgDCeLFV3cXEB7EzDOrqILMiVaWwcLqDWFKOfKqAEVIgydbUYnV0ylgfXAJzIvHD0esQhso3EjMAYYJInWB2pGb6RMdx5SClAWVmbObcXZOosSqFknbnAIN+fa3o4p57psqkwkxCiYAC3MJAv7ZEwWD7mKbuPdCp4Wtc2lHTZJXMaRO18pFG6C5Fuhp0pB8O0W1G/93dXDLbxZ3bNgEWVkm0kp7RpynX2eRfj1jt/huaWdplGcjDLW0PRdFoNmQbMUb6kGOG6dWuRyTRL3ctoSWMrVytiZIODg2JIrc0tkupKOt3cjFyxgvnz52FoaAi5fB5NlZIYeE9PD4aHh6UdQwMeGRmRw+A94OXLl+Pggw+Wn+P70XmI0VbUm/JnaaDVmk+xaJShAUfBtCu/9Bksmj/XVozaEi3U8PSTT2Dj4BC2bR/C975/A84/9wx88ctX47vfvBqfu/gL6GjvwPx5c/Dchk246vJLcejhb8VZp5+MB//yMAqFAt759rfi5FPPwq0//CYuufwazJnThyPf+Hr87Be/wj2/+g3OPP0U/Pb3D2Dxovn4z5NPxP6HvB7f/OoVOO6EU9DV2YG3HHk4zjjt4zrMHlk8FqRgnlLLgIFK4ga0RUdPg2311nuVto3XEJriBZrNkZOkG/bUqMX5GVtLfkRALAJV4XCJc4vJhaaMa/h76hTY8qHAui9818F8Vb0UcCzQjbbzKG0szmSbwqelpFrzm/yvKZD6tJMCera/SUAnXecZjHy6MooPckhkNYctUTPsC7sjCzZkOgkjyP/DLZDqmMKZ4CgO8f/PgItZMWBHQbUAAU4/87O4446fIpFKKo0y3YrmDCOxspfCutfTaqLOFYm669atE0OtVKsSSZkGM5LO5LJiyKxvS8USWH+PjY1LLUzj2z46KkYq1Mw4mStAe4fudR3YPIC+3l4xeMra5vP5YHKJ1/TiF78Yu+++u1wfHcLk5CTKhbIATwH5gxFYQ7IcRhow/3Sm1399+QIsWqzDBtGvZ9euw/uP/7hE4EP/42Bc/Nmz8dZ3vg/DI6Po6+nBS/bbF/PmzcHGDRvxhYvOw5FvPw7/eerHkM/lcdEXrsT3v30Nrv3OD/Db+/8gmcdNP/wWHvzzw/jyVV8TZ/nFiz+De+77HRYtmI+PH/9e/Mcb34Wrr/w8Tjz5DFx+6WfxqXMvxJcuOR8Hv+JAmwwygxGRAUqkEqmlDJFKAIVqjOGnYFopwnpBu8gPqqav4pAjgJPfJ9HyZsBJEQGOWrai7CI0EEF5xSBlgwbr8cj7869SM9KgdHOCOyD5FExvRRNaASqhRscp4UOEnDPakgMHu405+0t6qWhJy1gf20c6PqgreWytatRIpZ4ldbNe1sadTnRlSghQ8f6SvdXQYvJz5AJ3kSGEf8VYw4zQpUOsbgawdcuOXVhuRirlisUmKer5P/Cpsz+LG2++HQnWoGwVJUinbJaeajxl2+ZEVZ/sLOb5VWwaeBa5qSxKZaKzMZm3LZer6OvrR7lSQblWFsUOHri5c+ZibHi7GFshz54pkE7HROkyN5PVaieZEWMul3UbYP+cOSgVijIcQVx2Jj+DTDojjmL1qlXo7++X96KD4OHg69LYJyYmJJVHTdURFfiqIh5TDq2n2NdcdTEWLVpQd079YfB1ivks2lmzx+OS9lMMIJniPh7ePtboFREGGJ+cRktrqxjrxMQk2toZcSDX0ZxOoLWtXdLz8YlJefmu7i5Mz+SQiMXQnI5jZGJGkHg6oc6OTmSzM3KuOzs7dNOeDVsoXdVEE6THqQMMMqcb/bKlZpLCJtO2cC7yAzb/G8zAmt6x7zDSAfuGzYCiocXRRpeRDTdNCq1R2jr6pYJ4ZZ17JsAnBhl8VwYRhLyh7igAqGTwn/9q6hza/qEdc9m5qXkGQwdcmWMjsSZArw5C2z+yfcJnd82xONPM22KBQ7GMRnjNwQqbsKxQNQ2N7MEgv75THfr/QoasYKFJ9pi4CH9HMgY0YXBw264YcA4rVyw0TV6jmVVL+NxFV+Cr3/oO6QAaFWMJ9Hb2oK2lHc3dXYhxlFAI82RipTA1PYb1z/0DrRkSBuJItbSgmJtBIZtDZ0cbent6UKvkUC6WxNtm0s1IJUm+qCFfyIsTWDSHm9jjyGULKORLmCrkMZ3NocBozb5ZJoNSqSLOYHJyBolUQqN5qYTe3l4sW7q7GO6SJUvEKIlgE0BjNiA3pgwUigX5d3VVusrT/h+++uXzsXg3Tma54ofL3shvK0JPYMtIEY0pkjAhbRa4SXjT+tJKvLd0nqASgbNg5WZ9mJJeNfvMorap0xu+mVG5zAq4NMqw6OdwxU8eAB1oEFK+9Nh02ieaJkukFBzHWGZC9jcyj7Vv2GbUtNw0lqVXXRFxARn4SLNnG2lZGaNKxOftgMp1y4ywb15Uw9IITcGErHxeHySQu02nY3uhtN40NLtWln9XAXndjyUOgjpjvlo2AGR9LNBqbked3XD4RrZOpS4SetkQ1NzuiRQTUQZZuEP4+QzVC5QQlVbQzMl4wrurq5WjKc4u9oGVyDE/YB0xivDr4osvxze+932MTI7LGyaTafR09qCjtQPtXT1ISBRWT8GW0cDAJuSzk5LCqvgmECsV0dUSxx4L5mFuTwfmtDWjr69PZHrYW5uezqFYLGB6akqmYfr7OtDSTOaXGlCxXJZUeWhkDDtGRrBlvISxmRmMZmcwNpNFsRqTCM6bz35vR3uXGPC+++6LRYsWSS3OlH3+/PnyekS4WX/ncllxHPwie0s6dNUqrrn8M1i4YI4eFheXs5FC+TxONrCWRSOvSW+/9lgDRpZ2RvWBKy4pBqDRrf6BWbwScIarV9Vl2CY+n+N1vrXxsqORTMAo/oO3kyw6N1X5ntqzratzA76zssM42eTc7FAbTbdbiONw/S++riyIS+l0kJ9vPnVeu4FtLhwnZsp7JiICtszbFSqk5dMEpFVKls+So5Kiq8Wlbt77tjq3SnAs7TuiTO1RwFcCbVG1T1PTDPSvrI0kgwsqUKAtN2vDmePR74Va3cG1mzSvgm+RPtPzWa9+GnNiIU2yEZUOy4idK+ZdA7HYB2YKHfSutHa48LOX4YZbbsdkMYfu3l6JmDu2jaCnowsZMrPYZ5X0pYZiKYctWzZLikj6ZHMyjjkdHdhrYT8W93Wir70Zc7o60N7SilQqjXgyIak5H5zQCiy94XZDLhwvVYool4pIxJvA7DmbzWPrtm3YOpbFaDaLsXwVW4ZHsXF8SlLkttY2MZgYVBOLqTT/O+SQQyQV5aHYtm0b4gkFswKeNtsPZkQ8dGefdiLm9HZoi8C1iSNpkc+gyqwtPaf1ZKUGlUa+zSPIzawAHMVsSMjVGxOl5QGl9KqlXbbrSe4IKaGO/EYPCHcc2eYAuW6Lzsorsf08sli8fuZaXJWM6VltauN3/Hcy6aT+lLK0frEYHVFZQKcWzSRkqkkjpwr+mdCeGzCBwkpB9wEHWx30E4p4u+8ZNsKFyL0ajZMR2uVbgzrdlS1NlE+cHz+saIjpoIYOLFTD/U7SBiMmYBM/co+0J6srSK2W9Q6aR2PbWhgatXUvpNdtCP0/MVbPZizfsiX0qvelU1fqvP+Vr3/ZgNVjKEJ73tkX4sZb7sDQxCiKNn+7aMFiNOUq6OrsRYKGmEii0lTC0I6tYnjZwgxyM1PYc24/Dlq5F5Z2Z5COx9GeTqG9rQ3NbV1ItzLC8vfo9CNRsFpFuajrJvhaEqUqZamnc/miOIehkXEMT0xiIlvBdLGK9VMz2Lh5QLZAdHZ0SPon6HUTsPuSZdhj+Z5y4GnMHZ0dXi5qW1TALR1VlCGCWhVnnvphzJvbr/OltqjMtaVl2kW9nCH2JihufT5Nu40A4QYTFS6zdMyyRgFkDGaxtk1UV9rokLPJ3QiXl3OrlHQx0XtJGZUzzOe3Uw3MK+MicJNzlcQ5UMJQnrfMFXtGIKWAMYf4mXwaKXA2ptgoI5nmrGzQg1mA0jIjuQHTdypZ+uI3yyZcQ1pWykiKrwMOTIdJ2tAMxOp8WTVbEOmhYGyS5BlZ4K7rVwXE8rZQ0LZynSvrnQfjiyqZI1W3zDzrBQcllcz1ui54Pd95ZyP0SGvyunIfQ0xAA/a/Zrz8nV00YKLQC8MkyIS8P3Pepbj1tp8g1dqCWFLnSSfHp9Acb0VLIo1ELIlSUwlj+VFppleKReQKrHGLeNWL98LL9liAruY00skUWtJptLa0oq2rG6k0x/kSkkTSSEnCYB+2VCRpv4pSsSigFL9IBKmUK6LmMTUxieHJLMZnpjA+lcfkTAWbZ2awdWQSuSoBsLQMMUzNzKAllcLKPfaSh8/U3Icb2O4gspkw7jEPizLIlFl2xRfO1T6wLDfL6wFiC2pmTNZ9UKmjMr1DlDmKW55CaslLREkjs9vL9Xq3P4Pk3L0MKGPKWBBdqEAY3JQppLViAI1vGfATL/WybBckddBpoJriK3ta/y7CdQ2HQhk/PGw2eWRCdyHKyu19IbVU20KsVQoy6+zIs0LA1NaKyOpGTq2j1oFyZLBPuF6LS42bbC7qa6kmlVNfxfIJbPnopq+LMecnBinD++GGy4B3ZjVxkzDxQtAn7BNr+hptVYXva1YqJA1D5YPPZim5+MP6pWezRU6t8S37qkvLNXrr4/nXDdffaxcNWLcT1iNwVZx7ziW47ba7pPUQTyXR2dWNocFhtGbakIqlEW+KoxwvYbpMgxpHrVwRUCmfncHrDliN1Qu6sKivB8lYHBmRpU0jRW1pUbMkq0vFz1iDcnkaDVWjb1lAKRpxPkdpHmVucUviRC6LyfwMpvMV7BiZxsBUEWO5Esan85jJTqOvtx/jUxOIVWuY3zcHc7vnGV1PdXhF7NBqWyFvONpo9/h73/sili1ZoLKiohbBUb0MCgNPIdm3DPGWLuTX/RHxjjmYuO8a9Bx1IXZcfyJ63/llxDvmY+qP30XHKz4U0uiYttpri5KkGC4ZOkYe4MNtGKQPAA+mhzLJpEAWGUhVN1gqTBhI5g9bkHS+tgy1hISVmK2MkRo0An45XipGLyi0kfMdbRaWGrdIsBa36MRDKmtJlZYZ7MzV2IUKp6JYn8r+KSVWyKZHEjFau01QQM2Qonmi80y02hlO/rOsk0WVkhGZ01ZE4Sm23x60yAQszFOsvc3E6kyNVDYy+IxuqCYSzBB7Oh5tY9lMr4B+AUFjFoGDgIllDlV7XcGAxf8kyv6zlPpfMOBF5hnVa/CDnHvORbj1lrvEuEh1LOZKaGvuRHOqFXHyVeMxDE8OYSQ3hLlz5wn1cXqGBpfDofvtg/2XzcWi3k60slY2sIDMKspkJtL09jwWGg30vtRQqanx8ou1balUQKGQFyPO5QqYLuUww/cpVMWAN4zOYHSmgFyFEzclJDJppNJpFHN5VHIFrFywT4D+0hBYBfpNFmKHYdEO2Fz34yuxbI8l4WIxkQWqoTD4JBJ9uyGe6URhPQ24H+P3XYPeoy7B6E8vEeXJ7rd8FtMP3YaOlx8nLTUl9BsJIpjIoTHq1C9Zb0whYxnuu9XHKJHV6jVRlhSkNQRaLK7o9JFQCw0bd9VNGozQXfk9/1T6W2zhiNaXE+1l9FJFCMQYLToGDoHXx7SW4JLzkekdDM1m/WvjGPorUrfzWcZ18blsDyTdUdehupqIjM/JoEICNV+2LZ9d+c5xEWa3elG2hHB9Df/NtizIzxb1HiTpLMLa0qeFfDY5rDvpjAxpN1nfgJDnes+ulWVRszFu1rV8hK0WEbxr3Prxz6zyX/jev2DAlkIHKVcN5513CW699W45BnwYpUIJrekupFMtshmQQYTRd7I0bsLrNeTyWZRLJRywx0IcuGIxls3pQWtri5D1mba2tGSQzjAlT+veWjoCIwEw4jJKFouqR8XDky9lkc3lkM8r4WN4bArZIiNxGcNjOWybymJofBq5WhMK5FaL7E8clUIRS+csxJzMHEnR9csTUCeaqw5U9Ot7N38FS3evFzegkRW3/g2J3t0liuTWPYBE5zxM/Opq9Bx1McZ+/gV0vuYTyK+9XyRwGIHDjMwlXGzUT7FnNVbpo5IkYStJgraEyeZwMoNTORbdIuRG261M0oNi3fISlJOVPivHHBvAKOl7694jiWReAEt7yUXeA9PV1wyAOauvrZ4X9lWDFI44Asq6EtTyYXuJBPz8TtAwZyaz0hyQ4BnyGWSVnJU2GNtSBkRJBObPprSvr0QQng1OeHG3kpUD2hy2lowx6CKc5sDRREYGdaWJ64CFSHpwF5xp5bpYcoSiY4f/giXO8qONHePwf/tIaRO27Oo88EpqYskFmteu1iA18C13a6lSqyIZTyKdaEMq1SaD8fxvujiDDds3oL27AzMTk5LuJFNp7D23E4fuuwKLezqEIkkvyRq4r7cLbe1diKfYlmhCoVKS+rRa0tlNaT/JlA9T6RIK5SxmcnlM5nLYNLgVg9snMTkzhelCGdPTZYzMTCJXKmGyUMX41Iwg3Lyu7uZ2LO1fhlQtZcLwmoZKxLVNEW5E+rG1xXDdLVfVGbByW2uojA8i99yDyCw7EPk1v0Xb/u/AyK3noOfoSzH+s8vQ/ebPYubR20TYveeIz0Qely61loOtiIweGkdFOfuaJMLrggYqgi/2wxq8jpBhEz0u4SJO1Iw92HpglMjIXlyt0Vw83rSvvDYT1FjZVBqtmBpa3VqcFh2vqNKGRk8avPe4rT1CcokZVEjvrIIsLvlZYWbpIjNRNgm202taL/WiLXcPyBykPkr0ZXuJmYJK5TIzkVWppoUVLg3T1w8/hw4jeLcgKAMkOKg8bDirvbOFafZkqbJlUH5O/m9SZZ36M29uh0OzMAd3B7cM74KkTqSNZK8mN/S8cy7GrTffFUQL1rzN6U6kZc8se2U1lGMVbBjaIKlTfmZGGVoA9lrQh8MOWCUUyXUbB4BEC1ra2zF/HplENSRqwPLdl6O3u1laQIzFYsi1ohju+MQ4RodHsWMii4ef+BvWbx3GeLaAoZkSSvlJJOM1JJrS8idTxsmpvIwOEhhLNicwNTmN1ng7Vi3aS2pqZVvRgUbZNKFsDB8IW0vfvuFLWLrbIhW2kehmlL9qGaXRjSgMPInM7i+Tejf/j/uQWfEfUhOnl+0vKzELGx9C89J/VychT0epfd7zldZGpJ0gPXdZMqZGI9M2wvllsGGdqf1yJXIoWKO7oBTEin7JS5B2yLFPmbbxbfJ8LdbMPtDv+bqixyIeJzxhm76RJ8i2SVjbhRmFzcQS2JO+sJL6FcWmxrPvKzIj4efxSSWrZ6t5IsxpqecD5lduWqa+RC5WjFtZZdqaY7uO9sYU2pQ2GXkDwgi53fXqo1TjEGVJSbvDLEvHHwkoGJOwztWGhBtN53defrYrMTcg7OyEOkf3eIXPRkkuSkjxYOLvs8sp9KoVLqkTplHnnn0Bbr357iA60Upb0xRBJ0WOBlxFvlrA0NQQCuUCSvmijBym2lqwpKsZK5fNwzMbtgs1jjVMIplCOt0kbaVkDdhn+Z7Yc3EH5vT1y1ADylWkMgmMjo9h+9B2TE7P4OkNg9gwsBXTxQoKtRi60+wjs+ScwfYtQ5I+0zGMTeVkECKRiqNCZLJSQ1e6G6uWrtLow+jOnmbN5lftocaUvxCInX/v5iux2x5kccmtDLCVANHkjZYIqTpXDlCp7pTK9HibSO00ptRHtj7sgXog5p+iRxWwumxJtMjmsJWSR41RzeiD4v15WaZmEdVY0vrMBqKt1xpM2Yidqppjnb4znQTJEqKaYQu9ND1RbjRBsiCSax9X1pjSEQQkCPonMqBSYoCqExXSJqmGoZ9br48KkdJfjwzRU1FDrkH67lZelExlQzIXuzZGYxqgaF+pEJ/z9j3wsA6X97N1Nhox7ZrU20SUN0JzVCptdGcRv/fCTKvZDDpwGObAw/4wz4vJ1aqp7mSwja+3iwZMJlY9gZ8vfa5E4LttcF5Tq/bmLmRSbcH0VbFaxHNDzyFfKqCjjZE5iZlSHsv62rC4LY7lixdjn733RombAFNpTGfzGB0ZQqxaQioGdPV0obe7E3OFK11FNl/A2OgoBrZuwcj4OMq5mhyM1u5ezFuwGK2xMmamxjAzM4Vtg1vxxOAkNg5uxXixjGy5itb2VkxPjaE13owV8/ZES6oLZSMwUGO6AkW5+WArXKEK1eqKNyWQiCVw3c1XYemeS0MRuiCxYY+Ihy9cJRLUnxIubRO7sKOsN2tOwqOntzgCcMS0qqSNEoY41WoWtNrbSP4bVhuZswhTSIfiSCLhatbQEKRMMOaRsLOkTW10QOlzsl7WeVUT+FEwSkT7rRVl+4J8lDHkRFtZYqokGh3DSs7VNtR81YhkyF+G8q39Yq00nbCymy1UVJJgbOk6X5U9eF5vIJ5nxmUSREoGUYfpjk4+kauJ2obBxrJJ74+BedZS2pXWz04tIhuOEYqpdeY0Mtiz3UmFsrECnj2276IBh0ys6MucfdYFgkIrZqozs50tXWhJtIFzPNKeq9YwU53CyPQOYU9x+DlXzONlyxfitfvuiX12W4iJqQIGxqaweWQMyZ5FWPfMGqzaYwn621Poa8+gsyWO/q4OJNPN2DY+iU0bNmHTwDZkqxW0d3bLHpx8PINto9N48sEHsHjBfEyN7cD8OX3I5rPYMjyOoZkCxvK655fPbEH3PMxt4frKFMpNZZRqeeQrBMNMWIB1bbmMcq2CFM+lo1cAACAASURBVJJoT3eiJd6G62+5HLvtuXvYu6N4unMznMkUzI9ayuNG7hMrDc9Cie8lWwROXnm45Y/RB3SI3gt1qE0Q4LJEZ4c0xGdLlNX+peQNJpKgdY5KntYpcjhvOepUxL/wPil5o45TXauhnJ8U/Wp9SUtR+D8k+hmYpJYgGURNptOY+salLSiZA08Ir93plwI8lVBLtSrL3ITnSbuktE7AsJLVKgVpF+kBszSf9TgF4plmW3YkFyhkExPkc9qoA4TiuFQVM1qzhhEyXGRWV+fPbksRF2t9ZPscgTMyDSxF2yP7Yl7g9f7Zt/93Bnz2hbjl5jvFMTqxorOlGy2Jdp0U4rgfe6nJCrYMb0YinUChUsHUzAiOOvglOGTvZXLQ7v3dn3Hga96AUlMaT67bhEI2jwNfui+2rl+D3Rf0oDddQ09bBq0taUxNTeMPf30MG7ZPoLm7H5mWDFJtHUi3dWHd5gGMbHwObR1d2D48Iqn5nBSBtDK2TmaxbusOZJJxxJDG/O556GhuA9Ikg5QxPjmKeNokZAFMjE/ojHCthEyiBW2pDjHgG26+HLvvtacaLY1XGDpMmzU+cchA6YM7f1WEEdQSadubAiZ/zxdnSVpmy7O8By11uYcfGqkBPbJw3XSjZWRQRc5liN0MSf241ngiYC7yr0pv1Rq1imphCvHmbh0m8Ms2dNhXjMpZlExCQSklUISi+U66jwJUBBslGkeIIezjy84jOhZhjOmWQQ0CZnDET2yYX0YK6Qh8bzIn1SzVl0yBRBgaeTNbbcpskjvlGxCEL+79X/W0qpShnO/Z4pzK4CiPO4zWu2Zl3kpSUo19NouyGpUbpXd37XWf76d20YC5mcGZWPpSfJhMoW++5e6g1iPlsKe9D+kmgiGJYHVsJVZFicuqUEB7Zxz/eHYN3v26V2L/JXNQKJSEPZVp6UBrSxdqLTEUS1W0UH6nSs5zFT0tcXS1JpGiEMDkOP7y5DPYuGMajI2dqRTmLZgn7C0SSqr5Yczki5KKZwsl5PNlzJSq2Dw6iSfXPofdFy1ApZhEW3MX2ruaMZ6fxMTkhPSSSRzhOGORkj3GYeaOIRpwvMxr6MVNd3wDy5ZSncQlYuzW1oC169aJ6se+q1cLgX98YgJr163HPnutkPWk01Pj+Pua9Vi+5zJ5kNu27UBXVyfm9PdhZMd2bNw6jBXL90BbSws2Dw4iO5MTlLV3znz09fdhcHALtm7Zhv32XYlkjC25PB5/6u/Yc/me6Ovtk5bXmmeelVRzn332lgtb8+xaZLM57LfvKs0DnLUUWKrWtFEj0wdsaYXQO3X2VnrTdFAe/TyzYGtKcAwCataS85aP1e9Bx4bql5T1sWhMQ6K0joBqts1AIyfpq9L01f0LMhxBsI9ld1LSeJHKsddS3bGoiLqNHAaNcI3UgnZHhvH1oxqIFfCvtX/7Qgwp/z1FyLW2VvhDB1Pqhp3/d3b6vL+9iwasTKzGr3PPvgi33HKXYiP05JUqetv7kWrSjXO2ZgbVJrJXmtDR3ISX7bsQv//zn/DKA/4Ne8/rRSxZQyKTQUe6WSiVBSSQL5RQzueQaqqiFquCs0st6ZSws0bHJ/D42g3YtG0YlWocbc0ptLW3oqOjDR1tzUgyVWMroQaZx902Po3NQ6PYNDyB57ZsQ29rM9KxHlXeaK5hYHS7EEOa06QzAmUUxHipEEJFTFI1m0oxJJsy6Gnpxc13XoulS/qtjgzvyMOPPoETTvokurs68bJ/fynO/fRpOOzIt6O/r1cOzZ03fhdvfscHxMiYRXzy5BNxwaWX4y1HvkG0rV79xqOx29Il0sv+xV034viTTsO69Rvk9d72liOwYsUe+MTp52Lh/PnYc/elOP/s0/D29x6PBQsW4Nln1+Hb37gKDz3yOL79vR9KHfmh447FPnsvx2mfOlfGKQ94yb649IKzde2Ip8syv0Akm6tIImtERPmR6bP1piWqcSQvHFoPPrm0WxR8UZlYExJgei9cZc8BlC0l72XotWQ4HPuLJVA1BpiAfAWOAjIIeI1IxzwhpYQbnIN4pKw6oq4ql7axIcqIslZfsKDMwSH3vS4FK0bHzCIkrT6v5fiklLT8nG9evwHk/5PN1r3sLhuwTyMFTUjUcNZZF+Lmm+4IBb04UN7ah1S8xWSTTGlPhtmbkE404cNHH4RcYTt2jI5j+YJ56OQAQwunlijqXsZ0tiApU1oWd1cxnh9HezKDjKDUCYyMjeCZ9Zuxecc4xmdywtNavtee6OtuQUuiikolhioYQZPI5pk6j2HT0DSe2zaG4fEJJIoUmm9FJZbAaG4SO8aHRMHDJ5LoTVftu1pkbjgsv2b9GjQVa2iLt6OvdS5uvOOrWLJ0rtHjdGyMh47KG1MTE7jtrp+J4Z15xil41/tOxC/vuhGHHHYkHv3Tr/HVb3wbR731TTjyqGPw65/fjnPOv0QGI0496YN43ZuOwXeu/S985KT/xO/vvUs0s/ZYthjLFi/AW97yJnFqE5OT+Ns/1uCGG2/DFZedh6PeeyJuuP5anHzamfj0aSfhi1d+DR87/n3Ytm0Y9/7md/jyZZ9DsVTC7Xf9HI8/8TSu+/Z/N9R61vIJRPBVmYS1aDyycdAlYKUXLf1dS+cJOpVmtGSwtovEMq7/ZDSVDRdE47XHLDKu0mK0u1bh3LfV8YLau/olF55xvtgSAVtjKmfP6JNsIQkYJ9r3tiwsUNEMtbVCJcpoGh1YrvLNI0P3jUYXtHz4jci2BeWu7rzjSJxStSpnh2eIv0+lGeqzubzT/02PWDMHrlbhGC8Djss3N+VzlRpnaElVHB0dAeeBVy5fYLZruVcTcM7ZF+Pmm+4MPjO9dFebGbB8YO2VKUxONDeGfXfrwf77LcLw0FasXDJH9LRIbZRhAkmPyIjLoFyJYevWIfS0NSHB1LgJ6F1IcGoS/3hmHbZwsXG6Geu2DktUe8NrX4W2ZBW1fBEzuSkUy1UMD09g+/QkBkZzWL9lBCNjE2jPdKBcpuJDEhuGBpBn/WSrUVkCvPSA/UVUjyoZoyMjsnS8JdGMrkwnulq6cP3NV2PpEtsPbCr9jiQ+9vhT+NDHTsX7jnkHPnbCh3HE0e9GjjTPfAm/+8XtaMkkcP6lV+Hpf/wDN33/Wpx06qfFgD91ykdw6BHvUjWNag333H0DTv7PcyQDaG9vw3Q2i+9+42o89fTf8YETPoH3vudtOP649+DN7zgOPd3dWP/cRtz4/W9gcGAAp597MTra20S84LYbvodf3PNrnHP+xTj+g8fi4x89IXhWfCbV0rQMXQRkBGkJaYtI+MrW1pLanjO2jIo22inrSWRTXxJNKY7uaWElY4civWNEDkY3WetZtc0Qhi6XCjq618KlYkqzZD3Lr1hzCFpV89My9kfAK2BliWQsW3LWZnED9HTY6t/o7iL/4EGN6pFTUnTH14O6IrRjAflsP5II9UWMtmGLBV+bI6mnn346nnnmGdE55xczoL322gtf+tKXZAb9/+qL70dFDko6v6ABr6IiR9jvlo98zjmX4GYSOQRkIHrahJ7OeYjVVPe4iSQKVk42OcRGfmu8iP1W9gOVHF65ei+0t7UIE4tD/hSniyXJk41hYop6ynF0NKeQz1GoLYGWrg5MTU5h/boNYmBz+uZh4/ZtePbZ9XjFyw7AsgVz0FTMYyo7gamZPKYmc9g4OoK1W8YkAg8Nj6KntVeur5pswo6ZYYxMqMCAr0Pt7KTCZgbDwyMY3jGEZrSgs70TXa1dSNaS+MHt12DJsnm25iWcqf3lvb8WGdi+3m7c9bN7cMN138QXr7garz/sUJxxzufwm18w4l6Ip/62BhedfyZevPpF+Pgnz8bcuf049OB/x4VfvBrXXXsN3vCWd+H3v/oJfvaLe6VVQnWQG2+7W1Lup57+Bw579Stx/Mc+ia9f9QWc+unzcfct1+Ojp3war3vNq2TIYtPgdlTKVfzl4UfwmkNfiemZGXGcN916N35+501CI9W+p9Wqtk3Da2OJSL6axFJJoZParK6yB1Wih4CWUBWd9yHAF9tUprRhVEQRAiDYJshfZJOCidApLVbplCq/o/POOrDfqhxnSYkruiKGS8HF0o3cYBNTgQazqFzaPl/NuTVnMGKHXL9J8OxsTJbyWxvLiv9QNud5rI/G9OSTT+KUU07BgQceiGOPPRYUUuQX9d9++MMf4v7778dVV12F/fbbL+IcHWS0/naEMx0QfSJ2F4yq2k0f3DL0P2Fi6ac4myj0TXdIaiG7jBBDT+ccxLgRkBE3ScTNvif1TBKZZAkrl3djbHQH3njoy7GgKy3KlGLAnB1OxIXwQXlY9nLXbx2R116ybBmKRLAnprBx0yZsGxpGU7wJbSJE2IQXLd9TJpuaEjHkCjOYnsljYqaAjSMj+NuG7Vg3sEOkd/oyfUjE2TqqoJgsssGAXKEoI4q8YUSkqanF9J1oaX9zv4gMkGXGT/WD2/8bS5b2K4oZQVcHBrbgE6efJVHzqLe8ER9+/3tx3gWX4bEnn8K/7bcanzv7dBx9zIet+Q985xtX4aqvXov+3m6c8IFjcPwnPo0tW7dh7xXL8dUrPo+HH3sCn7/8KikrzjrjFFG0pCOYnJzGUUe+Hse9/z349LkXiVHTCXz5sguEMHHGeZeJHNA5Z56GZUsX4+Onnilg19vfegQ+/MH3heO8jJSsUSO1r0rH8jFlNO3lIWHrj8bF/raJsonDtnlcQX1dEF00silQoJRUmY6iCqboW2lPmOlqhbUw/82AH05hcbULlSg9QgayNFKHkzdaUoUPSc055xzhMwcbDXZuk+nr1cvAajZcH201gVBL8d5wQAQRRzZLdDZjVvCshsMPPxyvfvWrcdZZZ0kKzSjML2qUUyfuyiuvxF133YVf/PKXsmFDv8w65b39WnVgyOec5VqjYFzk2ncxAs/eBz7rrAtw8813Ik7Sg0zJJNDV0cvWvyhxJNhLFEetM6jxphTitSr2X92F7MwoluyzHPsv7UWLtHa4KT6JAlPaagyFUhXrNm/C+sEJjFQrGBwekwmnF++7Lx596gmMDI+gg9papSks7u/Bqj2XYl5nC6rlJlm/Mp4rYrxQwbbREawZnMDajQNIJ2toT8wREk41BuRQQjnJHmETpiamUaSWFkGVWgItiRYhpaTjurDNdv/hB3d+A8t2I6lFF01Fci0hSbB9wHSfNbgztQyaFO4yRw9lnM+7QhzaN3kZbzOI1+ehKM3IzztlT8+YKSAKTTJ8qjq+p/O/Km9q7DGpW3mdrixCp6q7e4LOlADR1vbw4QEf1hcZV9IoLV3VE27Rz0Ov6UoJI4wRXPWhyUmWkUZ5PxtKcdkZnlVeg/SzS4hlWkUPi9NH1L+SFJxtHBGQKKvUbEbnraPtmEBFJBCuC1s1chNI+hAarCmFuPpGVNfajEeXd/NnlV4Z4GCzGHxjIL777rvxla98Bffee6/INB122GHSkeAXa+Bf3XuvLI1//esPx0c/9lEc/ZY3BeYbouJ2j3eiWPrscIPT+Zdq4AYmFj/gOedcjFtuuVtqSEmTazF0tvbIVFGSN9+ohH7DOeCfTFbw8pfuhnJxBs8ObMTRhx6EuR3q8YvVJgyPTWBqOo+xyRy2Do9i3Y5RZMnAmilQAAvd89qwbXQMBRpquQnNCaLUNbSmY+jr6kJPZxfmdLWilM8Ku2vjKKP4KLZsGcX8nm40N1GCljO4NWS62tHR24nt27YL+lup1MDHnCRgxiyiKamRJDDgJvzozq9h2TLOEDN9JI3RyATCm+DIIrcfEAmPGLcYYw61KNorRkwGEVsjutLTfG4gwia+2XSv3Fer5hT/PdIblrl0Luo2ZpQgOzrzGhP53ZATLWkkr9GXg5l3rxUmbbmZygBJb58GSEcRGXX0Be+eEkuJxNqVqTd7z76EjH1tip+LU1F8g68nqa1womPKKJP7qwOSMrQgU0i6/sX7vDIW2ExxdouDopYy26SQk/+NcmrLw6PElQCUkpaPDeebSoe3jp4PZAraTWa9IUYAvP1tb8ORRx6JD3zgOJx6yqn4+S9+UWfjr33tYbjm6qtx00034YYbb8Ttt98ROOD/Daj1P0Chw+s666zP4Zab7xIDJmsJSKCztQspDuOzD0z/6ZgX14dKXcKG4gz6utqxYcc2HLjfChy0chma02n8bf0Ant68BZPZGV0aXmtCKk1EO4a9l69AOhZHawoYHh7D1uERDI2OY+vEqIwTksdcjTUhFaPWVhr9Ha0oFctYPzyObWPTQCmGeW29MuYYF0G5MkpMo8slqd9Jk5SReFkn6p6HkZoHraY1fQ348d3fwLLdF2t7pM5ILdOzjfD1D0U3+GmLxV8/kq4FUy8G5MnkG6O1zsgGX0GtqBHOp4gE/OGhDyiPtiXPkFrXgJYDa8u+nYopkd6kVpXvbEQIOhYRZA8dkUR5WQXqmtOq2yUqGtIysu2BrF3ZnzXNMDoNqWclDaeLVLYZyHsmy8q33tN4efdl/actOGedG9c2VxSA0tRdryMwJPsdX/fp922ndNl61JpFRWrlF4i0WkMrdlCnIlqr4YCXvwKXXnwBDjv0UBxw0CGyIyv6RRT6oT//EQ/++S84+ROn4uGH/mwZmpJa/qdfu2zAIuzeENpJpWQKTXicCC6Ntr21G2nh+5KUHe75Jcqc4IA2651YEaxiduQn0dkFHLT3fKzc50W47/6/YGi6iExLGn0d7ehvbUfPnF7M6e2XtlIyk0a1UEBuYhpjo8PYPjGOgdFRTGbz2DFOHaycyNe2JUjpbMX41BRGpnIYnZhGX+ccdMXaUGEJJYBbBcWqTiEpG1CNSx6POB0ijswqdDiBtzhOA/7ptVi2lOtF+ex1Ftd+XA2/QmPy9NZSXjnAeUBI/rpwSyeOGLjYcglFxIVi6Eu+AzKB6ynpbmOdT1cUVrGdcHWoHwQXZ5PRPk7piAPSpV86+G7Ss54+m6ia1oJ6vars6BmGLesWqmKopKGbEnT7okjhSs2rssFqjdR6ZsqdsGVpzEa0Vai1sYoRVHLjZuA2TCCXoWOJLgur60zYpw2NzsEpnxUmGUS0ne3LOyDa7DMQTUqAEE2ORlZNm50ba5I+snZFnzTboYLgV1njm0E3NeFt734/jj7qrXjfMe/GR076BH7z299rRmXl6ytfcRC+9fWv4pbb78R1P/gR7r7tRs06xOm4qonfSwUJ1SFGvhpQb35nFw04i5V7UnY1IpDGYYaz2Ea6XRhMJEMkYim0t3Tpys9AyE1viOz85Ssk2O9jEaqHL1sbQX9fEq966UsQy1Xw+JYt6O7tRHOshq5kGgsWLUFna6u2mxJpis6gmM1hx44RrB/cjI1bN2Myl0UtEUee/ct4GqV8AVPTOQxNjmNkOo/8VA5L+pegucbMwBd46xRKzuc+hTZpm9tl9MyM2Mjwcu0Abv7Jt7DbMsoLSfIXILAiFmc1KiOtbEBwXy01raaIeqgbmD+R/bgSnZhuSxSikdocsETKsg6zB0MQ7Jv6kvBIpLSdvJo6q7KH0CzpnhLcfOiUUYvIEuEMBSX6y8jtmw4Cg84ayGT1OT9QmbUree+KGmvtTh3oZj3unE7i+GKqVetdOayqehGNzgJOGQFD2Fjkf/PukvFla09DgYCwDpSIKJiAblIIprkigUaeiaDhKkwYPAO3LMcVLBMRPCLiONUILfp75JbDYJiCGHwTbr/jLnznu9/F3XfeJls2j3jz0Zie1jYStdh+esct0kJ601HvwLHHvAvvesfbzMDDMUedZ9UIIqUS/+TnkhFKo9c2ZAm7aMAq7K6Hz9IHotBnXihMLN4Yyuqk4hm0ZtqRTmckGgerWAgMNMWErsh0tZUc5BpBrTjysRmkM3nsPq8TrzzgJVizdiP22G0xOpszaM9wnjclayaTVDGMkZNVQ3ZmGlOTEzJWODo+jImpSUxmp1WxsJLC8MgEBkZHsGNqBiPj0+jKtKOnpROlfBmZpC7yVi9aFcEAb7ALmmg3iqohsrfYNj545nvzT76J3QXEUtAtsGAOI+1Yi9ya+xFr6ULr6iN0gF2cvgIpXhcrNmD6yEw/A6O2HbOC1poCpPNobUSwOPgEknNW6IJrm+5xjWJNTdWrTz96O1r/7W2BD1fCArcE+t4ji0aRmVvlCesKFo1Q5mx8uZhA1KqQIZFNnIxNLvE+8rWZ9vPnCUjxT0ZxeV3bgMhrpgi8MjC0RxzjnK9lLS4t6wiS7VkSEC0KLJn4uaTSDRFXTMBEAXV7oKfbWh6Io3agUAzbKhKfuPJWjqt+BHwyFcAP+d6Bj5az9Lo3vBlHv/VNOOmjH8HI6AgefvhRsZeX/Nt+6O/txTeu/TZ+dOMtuOend8gqodCX18VZzx0006k7YXrm5DmafO8uEjlmQ6Gb8OlPnY9bbr1L698mIBNvRntLp0RkotAUX6dcjfwp0q858WadHV0SheO1OPIoIFedwII5afz7yj2wpK8PC/p6kY6pfOxUqYDntowgB04iTSFWocZ0XlK8/PQUOls5Q5yS1Sp0GNmZMp4d2IqxQhnbhieQL5axrHced0NgfHpK3lO2MJgHLjGKRKZRKla0swnPQ0q5H6Y4ShwAbmUE3p0ROCKxSuMdG8T0n3+A9kNOQGVyG7KP3YWu152ByvgWFLf/HU2tvUgv3g+lobXA/2PvOuCjrLL9fzJ9kslk0hNCAknovQt2BQWRImIvoKKoa1ld266u66593V3dtSAWVEREFEVBmoqodKT3Duk9mWQymT7vd869d2aC6ALLor6dvOd7ZPLNV853zz3tf/7H50KgqQqGNr0Ql5AKb/FGBFwNMGR25ZGavtKtbNVM7QbBU7RezP4xWaC1pqNp+TQY2w+EudP58Nfsh99RBp29LTNdBtxN8Oz9BrqkLLj3r0LSeXfx66ckk69qD/z1xTCkdYQ+oyPce79hK09xran9AKZ5DRLlEO324XGYIcBL8EfiwxLlHN4fONEkABACxkgKIXDLgq6Dfoh8QSDweGMkN5/7hyWDJME16dxmGm4m3GiOxdXGKDeLH3QJ8QZD1/jh5IOIK6xqzaSadJzY1LhzijcjZYmUlyRdZkUXxbzaIn8jyAWj/diofyu94x0ZWLd+Pe6970GMHDEcl196KXJyBBFkcUkpZs+Zg3nzFuDvf30Spw0a2Ep5w9WH8KnF/YhsSQSMGikzkSNBA9/iUF7VCIPB8u+AHKTAP0SQPPDgY/hozjxOk9N4El1Ij0RzIo9A0WnFiM9gyM8TEcSkgyDzRFsTElmBKWEU0Pm5nONsLEXH3FQM6dkJHXLawGo2IqQHjBo91u8+jGUbdsIZ1MPhdEKj9UMT8KJDTjbaZ6SwdW9uauJSVmVdLYrqHCipbkSjw43UpDSkGBM4u1zX0sTJLFpUNCCbB3AHA/xvFXMoBaZaKlHVWokQPkAzc6i7Sos5n7+JdrnpUaTuQupNG+fAUngWNGarWOBM6mCEY9kUWAdfD9fuZTBkdETL7qWI7zWGXc/mjZ/CkNMLgeZqmDsPRePXL8I6+AbUzLgNKddOga90CwLOGlh6joZj4dMwd78QnsMbEd93HLM4Nq99H4nD7kXT8jdg6XohGr+ZiuSRDyPY0oCGL15A6tUv8sL1lWxFy4EVsJ37G9Qvfg7xvcfCsfRfSB75CIItDjg3z0PSsHtFryyXkaTXIEnzBNm6sM7MscwlHrIEcUxvJGq4kpCA2jWJPYM9BDWzSII+aCNgOlxJmcMejEB/BVvqhcvMwJJIHKzWNJfGuESl8gUR1zOcxGKiAB9Cio+Leb19YlyLZNJkRhPKzdDfqLykSkiK/yqKbF5YSIV1PkJxo5U6XM0LobS4FJPvuIuxCj6fKOfR/Ku2bdtiykvPIy83h13ucP2Xy2RH1KWVK825mpBgGuWBAKqYJ+N0DVBe1QyDKeFYFDjCCy1QVyE8/OgzmPf5EjS2NGL4RRdjzbI10HhCbA3ZLaXMMw0e47okB4Gc7U1MoII9zUjQwED9pVqgLlAPuBvRu2t79GqfhvZZGTBbEmHVUpyswfKt+/Dd1v2wJtjgaKyBIS6AnoUdYE3UQ+P3odnpRnlNEw5UVTC9TmNTC5KsZqRmtUNOTjsY9SZs37IBQaegpw1wAzgBcuJgsVCMJvidtX5hQZpbWtDi98Icp2MFJ65oep6PPn8T7dvnhKlF1Yto3jofpoLT+ZiAy4GWrQthzB/ASqpLy+cd1ZTXH57SzbCeNoFHiDStncW9zAHilCYPscUBS7/xcCx7BSmXPA3n2vcQ3+8yTg65di6CzpYFT9FGxPccBW/ZDrgProIuKYdBFcY2PeBc8z7Sr5vKcq5b9BTsIx7i8pVrx5cwtO0OXUoBPHu+RdDdCNeur5ByyVMci9Z89CBSxj4uXFs5/UEscqK7kXQ0rHiSRoZw0vTDEMmQsNqUGCNaXlJ6UnB2w0nBielSktORgvGAN+p9pqYK+jcltMS0QDVSpFWdVxHGKYrX6Pg2GnjBzaNyiJsc4MYuKFcRwg5XmIhBtFKKvIXYAMQw9IgVF1p5pHVsnbRURQX5qfQ+iHiioqIMTU0UA4d4YEFmZibngcJx6BH/UvuByr1EeEbD1P7hvIzycuhyFXUuqcAJP46FDngpBm4bfji1470+bTZemfIGqmvLceHwkXDUOLFv204BiBdOAmfrGMRB9UgScSgkxoGSFTQbuBEhEBeCN9QMT0UJDhw+gOysbJw/uDdy7SYEvBqU1tbjcK0Djd44dMhvhx2796C0rJSRPvEGHWN/AxoN9hwswsGySm4HTLXTeBctdPZkdOraGzq9EbaEeJQXlaG+uhbVJeUIen3MSR3w+ti6KtgnKTOXATgBS16EyAjS/y5ZMgMFHdpFxm/IxeFvrETjqrdh6TYcQVc9/JV7YD3tejSuegemzufAc2AtzF0vQMvOJUgYz9V6QgAAIABJREFUcBVbGufK6TAVDIK7eBOMbXrBW7IR8b1Go27hU0gZ8yS7z6SwpvzBaN40F+auw+CvOgBtUhb0GR3QvH4O4nuNRMvubxHfaxSa1szkY6kE1bJ9EeyjH2duKW/VXri2zIel+3C4ti6EddDVqF38V6SOeYKTI3XzHkPKuKfFkuLatF88H8dZslbKKCsxh0h9pkpSwo2mbLOkqwk3HJBiKjYPcuVp3Awh2MzsdlNpjfL+ZK1V5jgM15WZX04oyVr7D8tBxHIiXXaeY6zcdxU4CrWgdcdsYpzwojyHdFHDkzAizfVH1npbO89KUWXQ3MoKh81wK1PNzxPmVuIARBWhwuguUZIS5xSzFyOJTpFLFd9jtz666qHRoLxGKfBPNTPQgO9CInJrzSLw0fzl2LlrL95+/WWMG38ttm7cjtrSUsbb0sVE3OvmeybyOh5YptWw0tY31uHSKy/Fjr27odHHAX4XXAf2wWLR45s1G5GRase5p/XC3kPlKC6rhi0ljc+VlpbMGOfiiko4nNQv62XlJL7oqopyzoTnZmdwOEZNCdUtbhgTU9F34BB07taZJydqQxrs2rINa1esQkttvSCQ9/mJqhkhvdglg5S8oq6SFif/Tg0X9HLnL3gbBZ06COpXZQ2klaC/u/ev4CSWsW0fTpT4m+vgPbgOuoxC6NMK4avZx/SztDB9VfuhzyjkWNZTtoOVjwZ7eUu3wpjbh+M1il1p6oMuOQdxxkQ+d8u+5TDnD2Y32r1vJQxte0KfmIVQnB7u3V9Dl5rLcqG4mHHJpCb1xXAf3gBzwWDoEjPQcnAN3yOBJNxFm2DKP00m2SjZRNaIYn7FXRWExiTGfTJMmWCU9PiKNICyzTSL15golU3OI+Y+Y9k3zZliwV1Flpw5tQgvEJ4vJQo9vFuS8so5xZEarxpgI6cckDegYJLsCpPFV+ohLaeycipbzZpBvcU/DGujr9NKaWWcy9+RlQnFQKNCaQE6DRMOhW2rKFuJi7ElVzG2SKUJAvywcsppl8ojkF9Vlljsra2J+ej38upjcqFd6FqQJRIUatFqNFj6/WF8/d1KfDTjDVw34TYc3HUAW1evEiUjSeqmZepfKQWtBgPPHowefbth78HdOOvcM7Fn+z6s3bIBCaY4GKur0acwE26vF1+u3oQDtR5YEi3wBgQBulkbQp2zBVoaeKbRwE1CCPjgD2jgctQiN92OPJr0oAnCGwiirtkLR0szaluC6D5wMK6fMBFut5enFXrdHqxatRJluw+irLiICfO0lOOgsSrk3MmMPmGiqXWcwJ4k7I/mv46CzgRSj0LHet0IElyRnptemMzUE9OFoH5RWzVxGAswBC9XiUTixUzteApIwXBID2dyWUmEMxNGJjHAX/o43P3DMZ/IGnPSg7ikKfPPdKvC2lDfLQwmxDH8k5oHvIJ+1ZQksve0yKn2S4rDNK+UvVXzdQlsQJY5IEZ0kqvNtWtwFplnK2qNgjmRlNNNg7VpGgKxadAeQUkvnWh+YAvvEWT1USURMSpGDBZTRHStElhcwhElLk7whLuIFDpLZGyjFS084YIx3FKvhDsV/vlRxVVHRCWqwsZUGVXlQYtUYdjFlQU5YVE5tpYxbzRgQ5aLImtD3FZY0YmVJKri2NoTiPx2bArsk1no6Gx3KIRVO4ox/Z1ZqCwvweAhZ+Pjd2ch0OKCXr44TVAgiP06P3Lys5GRk47BZw5GQ0MdP1PXzl0RCGqw6MvPsXn1SuRYLDi/Zz4S4w1wh+JwoMqBbfsP4UBxBdz+ALNz0Nxfekh/MCiSTGYD2tjtyE1JRoJZj0DAy0PDXd4gKhpa0OLzwAcd+pxxLnoMOI1dtrTMHJSVl8Pb0oTNqzZwDLz2u+XwNTUzoouWhHCoaVyo4LwWvpgGH82fhoIO+RFhc5hA7W2ROmQYJRW9QFmPCF5IGW0xmT48GUHR8IQtugB48CKNRmIpKybUX1gg6v6RA7TFZk6WTjBChG0WASLCuG3RA8yLURLAcaBADQZhbmNac1puHhCMmLLHV94fueUCkikmZHDpiA6SpPGsrKTMtPnRJsbTI7h4KtkqZNM9b0xR3MyKcC66I4c2BHrndG5SRMVzLd8PwzNkGCOSzYJ6V+iHnI7ASeIo91qu/6Mpb3TMGy7LKjeWFoNUxgjYQ7CHhGu4Mp5WvoCq60ZUTjjBTGUkd5IIXONIpY1WuKOr8LErcKdcWsmtdq891S145833sPLrL3Ho8GEk6xLFTCStcL8o1ghoQ8jOzcCFoy/AqjUrcdppgzk7l5KSjJTkVFTV1iE9IwUzp01D0fbtuOK8AWibGs8YXq/WCK1Xg6YWDxqaXQxr9Ls98PiI0N2HxqZGOL0etE1LR7xRy7Q9bo+H5wU3tfixv7Ra0OwYzDj7orEIMEIsBJ3ejPyCQricDfjs43moa6hDaqIdh3bvRVNdgxzzIlwmcnPCTFFkgRe+g4IO7VtbRUlWJ0Qsd10iZJf9s6ww9GLD84IE/QsfzQtTZHTFOpEDwo9kyWArTZaQXGLpRjIvdDSJnMA5c41YobTIslGNVvE7cWKJ0F/UUidq0Pw7oZx4ZAlloUUNl2NbVQNmCKZJuMSSWI5RWJz4Eq42fS9On8DPSlZWLGqKYcmqEt2JnErIPmWEY/pI3Dh7CCqjzO6MqvWGUz1hD4jhDhJAIhZnVGhDV5Wu7xGYph9oQ1hxZRdW2EhLz0fYUFE7j+SQSeGIqE9SCLfCTQk3uZXCSBPOgFN6rLCbfGS9V2aZj6Kz0ZE2fb+8thkG47/LQpMF7pQr5s5GuRabD1Xi/Xc/xPw5s9gtTTEmUxDJimtNsfIMIcpQXzBiKDLaZOHggX3Yu2c/Bg0axCWcqqpqdO/Zi+vI5cXFeP2ll9CvXQbO7t8JSWYDQjo9dwP5AgR7DLAlDHhFgoyYJgjHTOCieJOZaXuaPS40N3t4hEpDswc79pewNXLrEtDvrPNQWVuNoeecj88WLsLYMZeg+NB+fLd8FZJT7chr2w6b1q5Dh/aFqK2pwYF9+5m+1k0bR8APPS1EfwifLHoH+YXtwhA45jxW7BUMBIhq/dLE4YWXpqKysgpPPfZ7aVE1PMv40isn4i+PPoj+fXuGh0WHgfYq1SEtnmKNEOMxoyCBcvaOUHzhFjNXs4rbCNEUp+NElnLPxBgSSeDOkMlm0dssmTJ4A5GD23jRUzsodYgRqEXGgKx8zGNNiDoCY1Ct2CQBGlTPFcpKSS9yq0MeIg4gGKmAcHLjgyS2U5sWn0eitARTpZo1LI1eUA5nFYGorJOqpgUBMFFZZAZbhI+RiheldkezZREFVucmnnBJAcsejWiNDeNLeFOWI2jkucPy+RF/V9AB061THC50iTLh0UrO8ufr/IT1VaUtAGU1xxIDSwXmbSPq58nnp+D9t2fC73PD6wvBZrYhyW5Hr/690KF7AbN51Nc2ITUtBZ06doSdmt3nCQqe9vn58Hl96NytOzZv3ASLycIcVh9Pfw0XDuiCXh3awZIQDyvR3xAIkEdg0IIiSyumFVKZw2DQQRMgNzaA+iYnmlucbMUqapuwt6iCw6n8vmeiwRviJoSMlAx8+MmnmHTzLfhy0eeMJT1tyGAGd8z7+BN069cHHQs7MMUObSzNDY3YsmkT1q1cDZfDiU/nvYmCgnZR8QnFinqezUTZcYpb9TotevbqxXo04abbcf65Z6JX105IsCWhQ2EBDyK/4OLLsOSTGTBZE7Fy9TqcdcbpSLCY4HE1YfX67WjfPhe5uW3ZEm3auBGBUBwGDujPz7Zi+XKmIerbr79cqBH6U35DKuQi7HkYJy/mELHlpVVIdDZkMSVUj11D7v2lDiI5uYHRTOR+E2hAOuSq0Z3HmhBlTIBpXxUvVaC5TjBvMPBDsFgyIi88m1dS7MihcEw1q6wbeTsMoKCbpv+U2ytRWCK5IJhOJS5aZGaFcqu9U8WRytqIfVACSpR7rtoKw94Ad5Dw6hYgHY4xROZaMUnKRJXytML+gBS6GH8TFWBLZ17wbUp+IMm+KXwFAdMQll24/GqjPXIPiArFZV5D3GJZ7TFmockCi9hOnjoUwsrvN6G8sgblZWXYsWsn458JRploT0RCQgKS7UkM3vjiq6XsOucXFiLRakVFRTmSk5O5X5JOuXXbdixd9g1+/9Af8MHbr6Fs3zb0ys9Cj4Ic2GypsHDMFYAvFIQxzgCd0cBKrKExpJTpDQR4PlKDo4lryjTVoaisEntLq5GYnY2B54/CspXrMGbEUDQ4WuBwONGlSxdMfXUKLBYDBp42iOPmHdt3omPnjkhOTmFwCgE47El25jaiB9+zazeuGz8cGempAtlDdVAqrWg02Lv/AMaOv5YJ7ex2O/7+zF9Y2QafPRwvPvcYfvfI01zEnzFtCivsw396AjPfmYqrrp+MXj26Yf3Gzfh09lu4496HOQ4/dKgIf37kflRXV2PWnM84LLho+AXw+7xYtWY93B43Rl10Ie647WYEvWThpCvNWV7Ja8W4aWHBxIQFUkxmoJPgfNGQoVx5Xrw8o5cSTtS8QGNYIn3H7GpzgiuyYSh8MTUoCA8gQdZeyTKLEaOic0gqZXTyhteSGAMj3G1JKMf3LLO60tpE2DwIIcPZCbGQozDNanGGIaXKR43SKZX1FQ0ZwoIKpWvtequElbLfal8UWbJIPB0ue7Vyn4VyqhyHGpAnAkvVoqDiXfUMQrGiM81hJZY6JyZ+yKeUMMuKY1Jg5sRqo74ZtvgffboQ+w8VoW+/fti8cSM2bdmKpCQ7dyYVFhYiiSfea7Br1x7s2r0X11x3PbIy0lFWViZivVAI7du3x6GiErw/630mUrthwnWY/c6baDi8B13bpCKrTTZyMzOh18bBE/Ag3mCG2WKB3kjgCi10GgG6qKNuJEcjZ62pTLRz3yHsKa/BGSMvRYNXC0uCDXnZ6XA0Ovkeqb2LaE7y8rK4Abt79+58X3V1dejXrx+7+HR/tMlQVj0vL49/P6tfF8RbTHLSvQDR0/vfu/8gxl85ETdNvAr5+QWsXFu2bsd9v/8TFn3yLqa+NRMrV3+Pd6e9gscef5Y3uKuuuJTJ5gYO6IuhI8bhxb8/hd/94TGsWLoATzz9NzQ5m3DR8GHoUNgBU16bxljye++cjDpHE1585XUM6NsLk2+8Vnb6yI4gxUklO4RYmck1Vd03aiAYde1QPMsus08Q0TF9jRj3SSSDvATpeG6hixNZZo7fQtBI7mleFJLuVQwip1CDAB6UBVezkCS6K+wdSBw2x/LSfiqaHuWmqxSsKhXJ7ilhpUTbIjNlqmSe9DqEi6uglmK6JLcuSiSZil9FzkHCJKViCERkxFpyviqq8BJJcKl6LVUmePv7kWg1kvQSSqPSVpHDf7ruHHVa5f2q8TmM2wcqj7UO3L1TnnSJIje7ZsNmrF63Ht26i/lCc+d+Cr3ewNbC4XCgX98+yGmbg3Xr1rMCp6ZnYPy4S9j6UsxMbisRfn2+cBEOFxWjsqoGxoR4nN6/P3asXYnK/bu5Ob8gJwuZaXYENCGYtRokJliZSZK+zxMQm90oq6iA3x9Eoo0skQ47DpRhd3U9xk28A7v2HES3Ht3R2NCA4sOHMHDgQJRXVmD9uu9RUVmM/v37M+1JTU0NK2t5eTny8/ORlpbGyl1SUsLgFFLiYUN6w2wUaCIxPExs7wcOHsLVEybjrttuxpN/fR4bVn+NF19+DdW1tXj2yT/h1dffworV6/DuGy/htLNH4N03X0GHjgXweH0Yc8lVGDxkEMaPHYPJd9yDb76Yh3+++AoOFpXipeefZdldfs2N+Gj6FBR27ozX3pyO16e9iycefQAjhg+LcFSzXgQ4AcgbJLX3cXJKAOB5nXLGXE5IIOQUlY7o72zBSZkFJpk2R2aaZKI6+R1aPERuJyctCA4qn1jyVLLichVBLWVJTM6JEpliGsom3GImfOcMsQSKCAiNFKX08mQJhuvR4ZZGsaBFeBhhPFXGIOwqqyy09EQEgUBUbiKqakuJZZHoimLyUHVbFedKfLxQYFEWVdc6mvLys3I7Km0gqpohslZqExCKK9YObTiqwSZ6J1BeQOt0mEh4iWgiiPLaFhhM1n8DpVQxMMtN+evAgiVLsW3nbmRnt+GZQ2vWrGUWx3bt2rEy5ObmoEf37jhcXILFi79EfmEHmI0GVgQi9iL8NClIvDURe/bsw+IvvkBuu1wE/SGcMWgAZr71Ojy1lchMjEe7nDQkJsYz4TvxCyUnJsFEXM7aIBoancwn1eR0QceACy2+2bQDF193M7xaE+w2K2NfKZnUVN+EdvkFOHz4IPbv3Yc+/Xrww5OykrtKuG3i5yIB02e0UZA1Jpeanuncgd05481lkqh+zbKyctz/h8dw7VWX4aFHHseyJZ/hhlvvxGVjR+Haqy9nC0oW+Ik//g6XXDUJXy+aC38wgNvuvJ89lgfvuxt5uW0xfNR4TJ40EZ/OX4gLhp6HTh3z8Yc/PoHbJ9+A8845G3974WUM6NcHBw8exqGiYsx45zXhAlJOwEdZXqoRk9UlRaRBYwJcwZaH2wxFiYgxyXIQmMAea5i2hv4/dX9R5ZuaLtgNlJZVJLVEOY1tldcjElfk+rIyU3KqNVeYqHdHlYvk8DC2pOFuG7GYqbDCZTaOmwWxuiKEUIrLyiaVWC5lSRAgVrUa9yraI8VzCSsv3HLZdyD2j8hSjoQUav9Q0x7Z9Rcuc7TSHdXqhq1xOGINtyJEznE0ix1xt8W9Sj9Bxemq+0uFDNKPpmcor3XDYD4eBZauL11kzmcLsfdgEbM49u3fH9u2bMVXX36FrKwsTgJ16FDA/96yZSu2bN6G9vkFSE1Lxr59+5Cbm4u0jHT07NmL63y04y9fuRKrVqxCdtu2SE/PRGKiFau/WICWilKkWXTIykpFfLweSdYEWA0mmE1GWOLj4SVXt7mZ6Xg279zPCLDkvI4YMmoc6qmZPyWZ3WPqWc7OzkFZaSmWfv01swZmZ2fyPZLiEhHZoUOH0KNHDx5oRtnsDh06YseO7Qz1y8rKRM/8dFj0Go45o0tBxKf10tS3sGPnLvTp3Qs3XXsFho2+HP/6xzPo16cX5n72ObZu3cadKE8+9wKWzPsIW7fvwKuvT5OAfuDB392B4pISvP/BJ8jMSMc9d92Gl6a8gaLiUg5FCgsLMGL4ULzwz1dYaX9z283o06cXu7CiviySLyouYyWQfbgcr3NfKYO+w4udh4YxiIOUnfqCiaBINN2rHlsxBoVgj6J+y1lqirXJDSdbQ8kvwjxzMiuKIJ43fNknrGLMcF1b9ruqmw23B5LOSeUVatMK5RRxWSVtkLqGQlfxxnp0p1ZYt0ggKaUQdoAVpDE6DRV9Jn7f4Zj7KG4zK590whXvmUzRqSRa67hWWVNZ0w9fWLneCsglY/SouJo3Pw0gYuDjUWBlhQG8/d6HqHU40TY3F5ltsrF961asXL6C+aRJKYjEixad0WjG10uXIdFmQ7v2ediyZQsnkQ4cOID8ggKcNmAgNFQ71miwceMmbN6yBRmZ2cjNy0d2agIWfTIH9RXlSLEnwW4zQef3ccN/uj0JNnsitAYTQytXr/0evXt1h8enQY8zL0CjNgEp9gS2cCJxloLyikrs37cPFeUV6NGzB7vHpLBkhcltJq+gtrYW3bp1438XFxfzfOL1G9ajW9fuOL13ARKoxTC8IzPuMty/qxIo9Q0NGDHmSny54GMkJNC4S2Edpk6bgS3bduCVF57jhc+zftk6SGAEU7AKIjvOipKlpG4ptS+z+0kunOC/EjEukZwTc4Xg1WKWD+k2M7CDWvdo4ck5QWFOLB5XQrG+tJyKRI6sObmJDNAgtJvITHNzA0FkidqVklU8V6mR+apoCFqUJsgZSoJ+hpv0ldUMu7IyDmY6FKGmigRBuIyR2qhYvsJC83HcZSTmOrGcqNEk/PMj6qs81nA/u2wXZKWUQ8v5JoU7LRSO3HT5YfT7VptAq6vK2q5qAAy7yBIhxuUi+cNxdRTEkt+/aHtkOK+qVfHnkTg87H6Hs9ZUbSEXmurAP9HM4I9yoXkXkniO92bPxZ4Dh5GVnY0+/fuh+PBhLFv6Nfvz5CaTxaLZPwRfXLVyNeOJh10wFIsWLeLujI6dOqG4qAh1VVVsdU8bMgSbNm2Ax+vHt8tXwGq1YfSoEWhuasbcTz/FdddcgyZCcbmacGj3TmzZsB4JCXrs3rETnQifrNGChrOY03PRf/g4aExJTHYnaHOC3K1B3L2ff/45brnlFtjtySy0HTt2oGfPnmyFyaU/ePAg2rRpw14ECYa4ordv34aOhR2Rm2qAKdyMTf2yLtFZI7mjOB6j+T9aM3MyW63xcnIAKYQJ7hbRwWMk3CYtS8ryUpzEJAM0zFvALBl0L0EDlBUWpRE5zJqtlXgmUnCtxCmL7DPFqAI9RSUhEc8aZFmH9gRRn+V1QbBEOt5I42C1XLslTDPDK5kOyccy5Y2C/u5pltxbBjFcnGuvRAMj5v5ySCF5qUQ3kmQJiYR7YkOQxAFsC2jDYldXxskqLuRFLOJcFUMz8wbT4UTR7kTbW+WSR2GGVVlHKEYkpxx2U1kQMskl/XVVg41WGDW8LmJBxXd4u1BjUVUFj55JJZtY/1vb9Ci9b70VRBt1aWGjnQbRly6rSFKm1MxgPC4XWpgeVuKFX33LcTAt9vwOhTDodFiyaDErMCWFKG60221ISkrG6tVrOYY859yz2bKtXbuWLV6nDh1AQ7SraqrhRxAdCvM5liUswOHiInhafHD73chr2xZGTQi2tGQEAyH4vUHUVFVjy/o12Lx2BXJTrCho2wbmhHjk9T0N6e27cEFcQU/oZZSWlmLx4sU4++yzkJ6eweKmaQiksJR4a5Pdhse30Eune6UMebI9BZZ4Cw4eOIht27diwvgRsJhEO50iOIvMwxVxpuifFTVEVkphf2QJR6KvCPgg3UqRcKKSDcWTnPkQ7JaK0ZGtt5/dWp6kwGNbBcaWk02Kl1u9Xb43v5hSSG6tKi3JJgEmG5QE7gTD5KXolcopIaF8fjnEmzdt+l2SzYl4Ws4+kgom6HJIuQR8UT2zdFUiTq1Cdsn4VkJfWEmVhRehnrSADFWVgAlptZT3E1bOKIWNVg5l9dVnUk3DBkgmhqOaGyIaxEiwsPaIenYYovkDpZSxtlRg4YpHaticHDxaolrpkipYq+vJNRDxQcSdqxpSNMhDJLGOwwKHX0gIWPrdamzavhO5eXnIy2vHbtfa1Wu5SaBHz54wm00MmezUqTPWrV2HDZs2YtBpp3FmmsaW7Nq5A0ZtHPr26cObQIvHA0dTM9ddU9My0NzshMFogt/vQ3FxEXxuN1KzMnlsiMcXQF29A+kpNiz85EPsXrcGfTp3QkZWBvoMvQim5Aze6SnLS4mo6poazP3kExQUdkBKcjKjbEhp83LzOGlFmWcq0wwc0A86vR61tXVISLAgMdEGr9fHGe4NGzZi1HmDYLcJ95EVSqGwpIvMiRxJW8MWkRoGyCJKRsowP1O4hCPBAzydTyZWmOhOMliSpeWeWoGoUptngGu05DbLEa70u84oM5QyQysHhpFLzSM4VdzOpRhJNEff9/vEyE29nDXMdLIGEe9yp5UMEXgdCY5nwTUtu2PkVD9FAyQSSVEuqoKX0nYanfxTmV/pe6sQU2C8hYvNRlE240cU6kg1lU0ACrmmMtWtvOlILK2SWkInpPtMPck8RURuuJxxp+YOATThvYMaNrjVUjZ50IbIcFSl2lJpozPaP7zViBFX9ykfXHhZMnqSXq5IVyjtj+AwhJcdQkWd+/hjYFGOCGHxspVY+s1KjmetCVYk2ZOwfv16HD58GGeffTYrL+GiqdyzatUqVqL+Awcw0IEs2uHDh7grqKAgH126dOUyBrF5EEczjaOg43r07sVurS0xEZb4BM5yc8KpqQmNzU7Y4q3QBH34ftVyVJeWYvToUYhPz0JQr4OvuYU3BKLHycjIwGuvvYahwy7giX70GS1+e1IS14RpKgRdM9Fm5ew2NUpQfJyf3w5WayL8vgCanc3o0NaOJCvFtFSu0SPo84tojelktbL/VQxw5rGZzKooWxTJ7SRrojiZFUskxbNMR6OGgAnmCQFVlMlUruNSfCvcSI5P+XhfhEydlJyuS+T0EtjB8TBbW0GOBh918wSYOZKSh9SRRJ8TAR5nqWmxqF5gL7VrinGi3LBBCsjtf9IaSKghDzGLBlyETR7F8NINJkvNMZ6ACYaXpOwY4LhTde+wESfPQtLvyOspVJQ6/ZHtdcIwytKMKtKEcRIiZOHNRRFMUBskPR/1J0u6XSZ3Z6YHwnwLJg92h1WHmSTN59y0HAcjQiai9RWgGKFcP5FKiyoPc3yvks5hRT4CQy2z4EqXI3m0E1RgvstgCKs37OCMaWpaOnJysjlm3LtvLzZv3sQudOfOndmKUW11zZo1TDPSuWsXFOQXoLqmGnV19WzpyEVKTU1FUlIScrIyuXxDP1TW+W7FGoZinn/uefy70+XkOi4NDWt0OlFfWcPzg8gVJnhdTU0DoItDUmI8/B4PUlIzOalGpa3p06djzJhLmF2DABpkeZlUPBjg+Jhq0o2OFlTX1CI9PZ09AGuiiSlRaCOiGD4vxQQxB5zKK1FWKOBG04q3EXDVI3HIjdy3663ZD1N2D4EnDlEzu6A8JUVxbV8Ac5dhsnVPLl5uTjDJOq5wk8n6afUmseBJecndoqSNjH9ZKbjMI2u0ZK0kiINpaNiykrseh4C3GVoimSMlp8wxeRAEe2RGziDiCCdNuGm6X5p4z7Q4QplY5TjmFYkv/oO0TkIx1EKMUM7yPUnwRxSEOVLvZRdSWHWhnKL7ijHGHP6oA6LNmMIjR/mkqnyjYk0JeuBxqNIV5hKS4A8WI1U5dBCxqoi/RbglWb9aObXRVz8CNo+DAAAgAElEQVQq8ELFq5LMj8eleqk/mkafEgxVlK9UhUCUtFQ9O9rCiisRrl/E6BL+yrvCD4/jfuDjrgOryCAYws79Rfh80Zfs0lLSymy24NChw1i3bh0fRRPZKIlDlpSs6KrVq2G1JWJA//5IsFoZ9VRf18Bkd2YTKYoe7dvlwZZoQ4JVzMmprnXgyy+/hE6rQ7duXVFUcphryLQzGkwGGOPi0OJqkdho+pgyuB6ef+TzEwpsC3sAFwwbhsVLlqBLV5FdJgtMaCiCdnrcHvh8XrhaXEzZQ4vU0dCAgoIC3mBMJgM/h1anQXaCBmYa6cLKK9w8Jo0r287KQKUUT8lWziB7S7Ygvs+lDORv3jIPurRCfqlaWyYaFj0L66BruY5qbDeQF5rnwCqY8gcxoyQBIixdh0Fvl0Pl6DpMV0NxsojJ2BIzw6OIeRkRLEejcHsgNRAwS6R07RjPTFZNNtcLBLGAWRL4QjJKqkQlbRTMmkGKJctN7EIz5FGhoNTiknBIdnvVgOzWmWRRhlH1V4XCEq42b6StLJOyQj8WPKqFKMERrB1izKjyEIReU1KRuLppjAvNNxZWsnWtSWadmShYXk+51zIeF6f6iXtp9SeK50UXG+cymIVEQFJVpSD6BtT+I7Yr6UZHKW0kKS3AJuEf6kaqO9YYuGOuAo7IBRPCnkMl+GblGugNBoYi0sAmim03bdrMpZiuXbqyYpMC0e8bNm6EzmBE37592A0uJ/CFw8GxaHyCaIlKTraxQiXZkpDTtg1jfimO3bJlBzoUFGDPvr18/W7duzEk0qQHu7ZElEfncXn8cLma4XZ7sH7DZiQkmNC3b192k3ft2oXc3HZwOBqwd+9e9hjI2tPmQM0RiVbRwEB1bWo4IM+hXV575s8SSCIgx6blsaYsX2qX9HnYQvobq+BcO4N5sQyZnXnBuA+shLnwbNTN+xNSxj7JFrlp5XRmq2z44u9IHvs4nGtmIqH/FWwpiRLH0u0CuHYsgaXrBfCW74ClywWiRZCUhplOdIK3meq1aiQrZ5tpABkNKad7lQPKeAiU6Mnl8ZzSteNjCfBBWWiezxshT2dkFpWxKBnFiSpRJw7XiEiZo0H9vKglAIM+l+yd3E0kLaiKEMVClUTm7CbLUhjHglTXjGLSiCaPkMrDi5edFXk/4ZKQ3Ji4jVUoAIFaxOXlTOHwzqGAGczqHQ63+c+yPCOSTj9dTY62yuycqPCULy6eRRhNSeFD3g15U8SRzbBQyWp6RLaZm0bYK5EmO6olUeluJIYPoLzOK4EcP1VGkljo8BflTlFW48T2fQfZkpK7nJgQz7C7vfvJjd4Mm82Ojh06sZLQd3fu2oXyyipWKLLa9fX1nO2l7DApeW5uHhIs8czzbLMmwmazotnVBB0ToFFZI4CGRgfmzp2L3/zmN2w9OR5FiEEaPNPY7ePpfFQaIgUk15yQW3R+ApAkxFs5gVVbW4OGBgcG9B8gR4vqWclpo6lvqEdOmxzs3LUDZpOZkWaExqLuqsG9O/CUCLEZizqtGOYlCna++sNoWvsBEs+aDM/htTC26clskfbRj/Ehji+eh+3MyWhY/AySR/8FjWveg3Xg1Zy5dyyfhoTTroH30PdoWjcLiYMnwJDbW6wVNS9I9b9Ki8VDv3Qm7knlZA9ngqmhXsdZZLZKchwKu3V64tcWM5k4bqXEFxPqEdunLtysEIlBhbKER47y1Aihz0RGJ7Q0QhTPSiHXflhVSFhycBhZblViCW8EUtm5xT2qBhpWIfoHwUIlJSy715JlQ1gkoT1MqtfSKAkERPIr2qDKghRCFIdzJl8AL4TyhiN7WQqj1+kT9EE0NZFCCu6X1ot3zvGuUrLoBJlS7dbWWpXZGG7qb+FaP9fOVSVCeUlxVEKMUMlyCU2ykbC8eNOmzUdk+8uPNYlFpHZHVrO27jmM5avXcxMBgSJMBgO7ckVFRTxasU1OG/Tq2YsViZRr1+7dDKskkAQpMAmfMs6U9KKEUfv2+cjKzGYLTEpGySMirMtMT2egBylpSVkJA0Aoa3zppZfCmkgJJfEy6H98vgCDL0ghyHUnxaXrUIxMIBGq/dIoUarvEiEAxbcpKal8PMW5VLulmJkU3+v1oKnJyeemLDnFyBlWGtwmaFdFaYWUNwhf9X607F8JXWIm/A2lrJSOb6bAOuAKOLfMZ6scaCiFv7YI9uH3oXrWvbCddwf8jgoEndVsET2HNyDxzElwfv8B9OmdmMfKevpE7nii10bDwdidJaVT12flEgkXssw8opOhlaSgNIBN0fcI8IfoGya3mNYiocmIXI4Go1HWWSCgIEtaIu4V7rBwH2VUSgtYxsTKzoYTKyqzqsIL1QAv2TYia0ja5fA6Fw0CXBOX8R6X4DhYFOoVYScR1k0165OHQpl6TrDRYpcJwegkl4ptZQVUgjVIR12C0YQtu9yMKaHFwBTVt8vaLmGZkXida+py1hNnrMm6qp7wVvXpsFDExiefjzYHyuizIvOHYoKH2BYikuI/hc2vdCzkPnFCWWi1x2zeeRDfb9qJmppqAf6n+bwAiotLcOjQQXY9+/fvxxaQElV19fWM3yVkFB1P2WBqzHc2NbHCk7L169OH/04KT+Uft8eLJLuNB2fXO2pRXeXgeJqO3bhxI847/3zOMFP2mhSvpLiIk1RGg6jVUqKKLCsp3/bt2xlKqVw7ioOrqiqRkZHFCk5MIbRJ8LAzbRw6derIv2/fvhPJKckcp7XPiIeeCLM4QymocYRv6oev9hAnhgxZXdi6+WoOcjJLa7bBfWANdOn5HGNpk/Pgqz3M8EV9eiG8ZdsEuEJngD61AN7q/Qg4yjg25low7do8qEw25pOycvZUMmgwg6PELNM2RguLrJle4qI5BpSdR1zbNQvwPJ+HFisBPfRMa8ujW4hfi55KYqRV7KoSZ4JlQwI8pJuqDKHUhKhWPZl9loqqsMzRNVV2VxWrhmwYUJZJpnRbgyFkxpviS260UHOa5SKPpsoRVRl1cVEi4sw8Ec1zm6oobUUgkjIS5aRXJFsus21RiiUMhgCvROq+ovQkPTQiAmBXmdxiuerC7r/8ndx1agDhAXESgSdDDxGmRW95CiUmt1IqI9V7jr+MpBR4f3E1DhZXsMvZJjubIYNUmqBY9MCB/WyZ2+W3g8lsRrKd+mqpNFMKV3MzctvmIjklhRcSua379u/jWLR3n978fbrFekc90/jQ5IXMzAy2xuXltdizdw9OHzIES5YsQUV1Nc444wy2thQv79m9mzHOtAkQkIQEQB4AZbjJrc7MyISOp8UH0OhoRL2jAbU11cjNa8f47HizBVXVVWioc8CenIKkpARx36UlnFlPMdFwtBa2XuyK0ktWw67lyBZyYxnFRNljCYIQ4A7Zvs0xtRpGTecga0ksj2KmUJwEDdA8IYFa8oqsLHf3yKYBCfoQ6CsZqzI7ZCN0FjvH4Ix/pows1Y8lvJKQVYR+0kjUVRwdS9MpiOmfcdNEnCC4p1T9UTBkqL46SQgQXmTSfZUWlztruDVQK+YeR40E5WdjhJIggBOGSCbj1AcSvXXUvli5WXDpjN3pCOVsdEyqEFTiM5KPHJ/CG1tIUg6JODN6gqZKerHKyMxS2EGQsa24L3GAUq1Iqk648ZzFF/SdfBwPQzcQaX1kmoTCVXN7NhN/CDAPYd55ppUkKmAllsmzyL1EUhLUzHBMSKxusqE/ekc4UFKNorIqVFZV8YtiVJUGbAlJKalWS7Q3lI0WDBcBVFdW8/AnKtOQm0rKRW40ucVUhyVIJuGoyWLTeTyuZs4akwLSOagMs3z5Ch6gXFFRgZLyMv7uZePH8xiUXbv3cDKMzkFWmhoUKCam661evZo/pw2CFJ7OR9em65I3QJ/R8WSxS0vK4PEG0K1rB96YKBtNbCOWUJOcri45rIhJMcoicYcODTfjOq1YoMSrrZWjQoVbSPVUVRqiiXvSokmWx3D7H2GSvU0CfcVN9qQXwp7wIvER+yRZT0pWedm9Fj24cVzvJZrZMPSQWCl5ThEltWisZ6JoRKAVQsks2mAYMCEw6eGB38SHwm6fJCWPFCFFJoQ8XMZaiyYEhkXK9aUSSsr5FuzMcnAXbTpcYlHNC9EqGHETFd8GL3A/MYZEepuPlhNWmWJWDG7IoHjHjziSk2qGl5cSiadIHCsDhIiVDaeHxV8i+OtInCvYQ+SP2KF+UPFR/dQ8uZK7tYQ3FO0pRJ6Yqho+MdJW4QWiou2wRyI/OzYFZmL3NtKNiXjnm3YewP6iMn4wcnftSTZoNRp2Oymx1eQkihsXKweVjRz1DTAZTKx4xNmckZnJf+MEjsPBsTMtRsIl0/koUx3werjkQ0kkcpVpkaxYsZKBImSZm91ujodpU6DNgBSVrC+5zuS60w9tAHSPFGdTVpyOoR8qPzU2iiw4dStRfTohkaCHGng9AbS0eJCRkcweBn2fYutzBnRjjmux8P2i/5ZcMfm7yElI95JBFjTdQO6o3M4nwR5kCzhOpYSI7AhirmQ6l5gayAkPrQ7vb1yE7w6uh9PjRJYtAxMHjEP3lLaylCVr0mTJlCtJik9JIzoXoarYPTOKcooqNZHycC+wls/DtDnSZRNlJMW0KOuYYbVU7m4UXFBmwwV8RTQiRKyYqn9KvmeZMVIwUhHbSkSX0qUoXRYejKgCcOzOUM9otmQFu4y4yQysUJZcJYqilUy51ErvJG+0AqOwWiv0mc8tB97JphWSKXsjZE3FexZx1A+nOrTyClRwy2yetMnThqmYTFWbpkSUqY1Fsl1SlYN/Ivm68KmPOQamJJaIUyL73u7DlSgqr+Z4lRQmJdnOCky/83qm2qbPy64sKRO9hBZnC1tWZRXJWtK/OUFVUoLahnrOaJPFZaBFKMgKRkpPDRBmczyqqqokc0Zf+IhHiYjr3B7+nBRRjbAgC0uKRwkz2gwo201MIXR/BNwgd85utXFmm5ST7pG6quinorwam7dsRceO7flz8hYa6uuRl2GFyaAXDQpKWXnSISWDaJQmUezIAdiULVR9rXK8p2CVFHzK4iVSU7tCB4nSCiuwRE99smMZpq2eLa1giKc1pltT8MBZE1GQ1l7OGVJNEYoelrLSlJGmpAxdQyuAG7SzkzXnrLCXFZ6tP/8nHXzOeKpFqQZ7qRqJfPeEyyYcNjfbq7Rzqypj2CSxi6/iWwoBouuYPzS6kcQuV5yEe001bcaJR7cqHlGTZYWTkE5+FvUO+NoKlqXKM9LeyfY/RmFRQwbX2akXnC8eiZHlnqWUVVhU+k/wgnHsyolAinflgLeoiYnhvUPNNpK+N2+oXPJTc6YjVEfhPYYThlRZkCNG5Yah3PdjzkIzJ1brLQW7D5airLqBFxxZQ7OBMpkaVlC6DrnQRpOJXVq9XoeqympWZq/HwzxWlIwiq0d/N5qMjI7atX07MrMzkZPdBgFOJtFwKD2qqqvR1NiEjKwcJFjj8enczzB27FjEWwy8UdDy0xv08PsEXzS9BcpkO5qcvBHQKFMqYzW7nOjTuw8nz9LT0pjdg44jiOaKFcvRvqBAQCv1ehw8VIS8HJF9zmkjGh10Xgc0IZqvJJJKvPv6/fAFQtDS33U6riV7mx0w2QhRRjuuV1hqQzyWffMdMtJS8MhjT+KKy8fhsnGjEXQ3cfb4o7kLMWL4+TDpNNCZE+HyunH59LuY3obukeTw12G34YU1H6FHVhfcPGAsdFyTJjyzVyg+Wx7hNjKAgLqKqIuIElpMvE6bqyhBsPUN11Zp0UocsFx8omwoaiwUe4umAonMkvXLcBwYpSRcypKAfoVE4nX3A8tHG5ywXoxBDkMnxWYScDcKiKIa5yKVli02rUVGPol8Am+ePF8pQnMjUF3iDiMbh3CaQyQTRn4JGSgCAZWsEtZOFZeUqx2l+BKDHk4xKRhkwCOy+jLDH+YAV3ZPUWrJU8cRloDr+F7uMafrMoRFltOYMUQynxCIRxAVRBJbwgIfbzODVGRCSa3ZvBdxWhpipmEgBJVeOIvMdVkfaLIBKUR6RgbjeCnmpEVOVpf+o7+RtaXPSLLUXkjWlBrptToalC3aAN0tLazExN5hsZixbdt2dOvaDWkpdh5Q5iMl8nrhcDazZSCrTW46FcbpfDlZOUw8Z09OQE1NrTBCAT8jvrSaOKSkpnJdmpgu+vTpw3VoeqmHDx7k5Bafs8WF3DQLKwHHpTL1Stb4mb+9yER0U19+DgsWfYnHnvobln25AK4mB/zBEHz+AD/n3b+9D4MHDUDbtjkoLMxHfl4ODhWXIzsnB6cNOQcLPvsI2Tlt+R1VOipx60eP4eFht2Pm+s9waY/zMWvzEhyqK8GZ+f3xwDk3Cew1s0lS1pmSZmKCoJYGb0toH9eQyWUmV5RYJqlxn6yH2pAV/penO0jliI7/1MwjtXhkGUQYg6jsqmKOkBY9XBqh1DMfHKXlwl+PlKcUtpASgERDS0or0W6cGGplPWQwS54APQ9l0cPWOUpTwt8RVEFszblsRNl72twiyiAeV9xjBMbJH4bdV4WH5g+i4Mqi3CbVSj4XgzmYJleQIXAszpMVZbVIQSnDCBBRmmQiQJpqET6hBLnQNWljoDOq+crkKf6YAovUuAzrowLuo3k9sc9iEohJ4OeXAGf86b/mZm/IaNBCq1MF/Nb1qJ//VmN3EJNATALR2GzG7vipfTYAjc8XCOl00TQlMWHFJBCTwK9BAjSbWxOU4wT/bcbw1/BEsXuMSeB/SAIijP/Jvqn/IWnEHjUmgV+ZBASrR0yBf2WvLXa7MQlEJBBT4NhqiEngVyyBmAL/il9e7NZjEogpcGwNxCTwK5ZATIF/xS8vdusxCcQUOLYGYhL4FUsgpsC/4pcXu/WYBGIKHFsDMQn8iiUQU+Bf8cuL3XpMAjEFjq2BmAR+xRKIKfCv+OXFbj0mgRNW4DDx+7+jTYnJOCaBmASOKoEwipkJAlrTGByryE5Ygd1F69C4/G05/OpYLxc7LiaBmATCEqBuIp0eCadPgDlvwAkJ5oQVuPyVsQg0Vp/QRWNfikkgJoGIBLSJaci6fe4JieSEFbj4mdNb0R6d0NVjX4pJICYBlkDOQytOSBL/mQKf0CVjX4pJICaBIyXQ5sEV4ZFIxyOdE1bgkmdOP57rxI6NSSAmgZ+QwCm3wDEFjq3HmAROngRiCnzyZBk7U0wCp1wCMQU+5SKPXTAmgZMngf8RBT7KRKyTJ8N/eyY1I1Yc+PPey7+92V/UAWqS9YmBFX6ORznVb/d/QoENWZ0RZ8uCe/8KHql5qn8Mbbrx7CFf9cF/P7jrVN/cEdfTZ3XmT3zlu/4rd6JLbovUy/+G2rmPwlux698iifRtuiBl1GOonnknAo1V/5V7OtaT6lLbQ2fLhPvgGhgyO0NrpblWNLXVhUBDOfx1JWIU6rGe8CQc9z+hwOkT34QhsxMc372BphVvHyE2KfEjJtnxQa3m3EZ97aifqyFXR5xPo0H6jdPhLduOhoXPRubohE8X9b3wJKIfu6fozyNDtSJL5siZP5Epkcf6LGnXT+U7q5o++UcWYmRkdXiWpRDWEd5F1LXDfwf0ae2QcdO7qJpxO7wlW364hKNlGwrB0K4f0q/6F8qnXoZAfXnUdaK/erLeoXoO5SlFrkFPk3TubYjvcRHKp1wG+8iHYel8Hs9KUvODnWvfg+PrKSdBLY/9FP/vFViXlo+MG96Gp3g9DNndUf6vi8VQZwCWPmOQ0Hc8D4IKOGtQ99lj8DvKoUvMQPKYP0ObkI6QzwXn5nlwrpsNbUIqkkf+HrrkPB4d6tq+GE0r3uJzpV33GnzVu2Fs05PHc/pqDqDus78goc8YJJ45iafReav2ofaDe8RkOgDG9v2QNOx+uPd/B11yO9R+eD8Sz5kMc8dzQAO8/fUlqJ//OALOWugzO8E+/AHEmW3wVe+DLqkt3AdWomHpy0i96gUE6stQv+hZ9tDTr30Z/oZS1M1/CoTWSR79Z+gSM3k6H91z46p3xbOM+hNbFBqZ2bjiTfhqi5F+/es89c9XX4qqN6+L3rWQeOaNMHcZxtMl3QdWw5jTm58/0FQF+8hH4CneCGPbPjwgrOn7WXBtms8Dwmzn3A5zh7NAg8u9RRtg6TUG1e+1VmBtYjrsF/0BOnsOj+N0bpiD5vUfw5DXB+lXvYTmbQv5/dG5G797DS27vuZJhYln3SzkpTMg0FjB7zDQVIM4YwLsox+DPiWPh5t5Dq2D46sXoTEnyufOZnk0rZ4O17YlPFiMnsHYpjtvo55Da9HwxfOtIL82VuCRKJ8yHvaLH4bWmoGqd2+F1miBpc9Y2M6YhMp3boK/av+xa+B/eOT/ewW2j3oUhoyOqF/4NNKunYqqd2+Gr2wnL5T0m+jlLYSnaCMSz7oFQWc1qt//LdKvm4I4UyIc30yFsf0AmAtPR9Xbk5A09G7oUtqh4at/Qp/SDrazb0Xd53+Ba+dSZN85ny1248p3WPkSB0+A++BqNK18Bynjn4O/vhhNa9+H5+A6MUMZgLnjGUi+5Bn4KnbCtXsZfNUHkDruKTR8/QqCjZWwXXAv35tj6UvInDwb/tpDcG78BIbsrojvOQquHUtQP+9xZN46C77aQ6j58CE+b9btH8JXV4Ta2fcj7bqpPHqz8ZupMGR3RsJpE1A9gzaJsxHfcyTq5v4R5p4joTUnon7+E0i7/nU2pnRN916J8gkBhpxuSLv2VbTs/BLuQ+tg6XYhjHn9Uf/5k/A7ypB2FR3/DVw7voCl23CYCs9AxauXwpDVlTdD56bP4KvYhfheo2HM6oqqKAUm5yftqn+ClNjx7asw5fWHuctQ1HzwW2gMFqRf+RJcO7+Aa/fXSBwyEVprOspfHgtTwWlIGfskmta8C399KW8ULIf370bqZc9Bn14Ix7evQWdNh/X0G1C/6BnEWVJgHXgFauf+EZYu5/M1a2c/APvFj8CY24efm3DGtqH3oGn1DDhXzwhb/R8qcDp7KjyAXGdE9m8XoWXnYtR/Tp7Wqfn5f6nAKmlEQs2cPAvNWxfAuWYmsu76nJWIFnN830uQdMHvUP7SWASdNTK1FIIuJQ8ZN7+Pmjn3w7N3Zfgt0CLLvnse/HXF8BRt4s/je42Cr3o/ambdjaw756Nl99eoX/IPdquSaUHk9ET51CuQOeldeMiFXvBMq7dq6ngGUi55FlXTroO3+gAyJr4GrTULzZvncaxsaNcf+tT2qJ3zEFIv/weq3rqRra/GFI/sO+fBtXMZ6uf/RSrwYdR++CCfP/P2j+CrOwzHkn8g45bZrHT++jJodDokDLiKrY6/7jDsF9wHd8kWOL//EN6SbQh5nEgnF1oDVL1DCzPyYz19Imxn3ozyl8ewhdPaMpF58/uoX/wcAo5yVsDKaRM4ztdndET6hDd5o7D0uIg3i4qpVyDkdcGQ0xPp105B1Yzb2IVWSZ+s3y5E05qZcK56lydeihGmIRjz+iLtyhdR9ea18NUcgrFwMNLG/41d6uTRj/FQ78o3yFMIwdx1KJJH/Rk1H9zF36lb8DiaNy/k6CHj1g8Aj4u9D/tFD8NTvg3N62bDU7wFCPqRMfkD3jTdh9dzMGDucRF85DHN/l1YCEcqsI4s8PRbxLBvTQjZd3wGb/Ue1H5w/6nR3p8DSnkqgBxqUehTc5Fx03vwNVYi5GmCnl1fH8r/NRKWXhcjadh94OaKpupwMkWX0hYZk95H7ccPwb33u1axXdadn6GleBNadn3FL4gWWbC5Ad6ijbw5kAI3LP47/y151CPQZ/fghUsKTDFw/YJnWuWghQI/g/Ip4xBsrELahNegtdjR8PXLkeNonq7HhbQrnkfFWzfAXyUUmDeMnV+jbv6fkXnLTARddaiacScvvqzfLoK3YrtU4FloXDUdvso9ZCf43gJ1RfBXHYTWmgpL16FIGHQN/I4KVL8ziRWY5HdkDGwdfB0Sz5qMilcuYZdZa8tC5i3vo36RUODUK/+Jyjevg6/2MAzphci44S1UvXcbLF0vgLnTuaiYejlC3pYfKDDdDylq9t0L4Vw7C02r3mk1nNqY15ute/mrlyPQUAZD255Iu/oVVL52JeyjHw0rMN1zfJ8xSL7wflS/fydSr3wR9Que5M2bWu4y75qPYGMFqt6+GXEJybB0OQ8Jg65luVW/exsrsLdyF1zbFiDEQ7uBkKse3qLN4dj+xxSYjtWltkPmpBmo++J5uNbPiSnwyZBAyvhnoM/sjKY174VfQtK5d6D200fhq9qLjJtmsNKxCz1kInwNJaidfR/SrnkZOmsaJ72M7fqzq1j99o2wnX83J8Malr4EY5tuMHU4C3XzHoO3bBey75oHxOnhXDuTh2gn9L8cLXu/Rd28x5Ex8U0gTseLs2X3N2JqvHShU8Y9i3JSisYqTtikXfY3NK54m5UkYeBVvFk0b/oMmbd9xG5i86a5MLbpwbFoy47FfH7b0Ls4lnd8M0W472feAvfhNWwJUq95ETpzMhzfvQ5DTneY2g1AzYf3w9L9QpgLz0Tj8mkwdTwTlk7noPSFEUi55HEYc/vxuVyb5oVfA2Xy065/A+79K+E+sIoVk+L9ugVPSgV+ARVvXgd/bREM6QVIv+FtjnPjLElIueQpuHZ+CW/pNsT3vJhDmqoZt8JbsjV8/tQrn4cuKQeO5W/AlNcPpg5noHrmHdCabUi98iVUTB3PmV5j255IvWYKKl+7gr2llEuehnP9bN6AbGfeBG/5LtTMvg+pl/0V+oxOaFzxFnT2NkjodznqP/8L4ix2dv8dy6fB3H4gLN0uQNnzI5A04n6YC86A49upiDNaEN97LBpXTEPLDrFZ0w8rcPeRKH9VxMCGjE7szcRZM2DpMhSaOB0qp13PG9Wp+vl/6UKT8OJMVqRe/TIv+OYNH4sdFeAX663Yjcbv3kR8jxFI6DsOGmMCAo4y1C14GkFyDxPTkP3azQIAACAASURBVDT8QX7xQbcTzZs+hWvzfGji7bAPuwf69A6caGneOh/N6z7iM2eTBT60Djpbtkg0Ve5i60TfN3c6C9ZB1yDka0Hthw+IaewAJ2jsQ+9B9Qe/RdBZx58lDL6OYzNKypAL17DkHwi6GqDP7ADb0HuhtdjYmlOM2LJrKStwnDEedkpIJWXDX3MQcRYbx8ANC59ja5M84iHoknPZhaVkUPP6OXxM0gX3cZxIFp6exbn+Y05qJY14CFpjAirfmRTJRGvikDDwSl78lJhy71vBiu5cNR0BZzXLq/aTP7CSUakoZezjqJ3/BPzV+zn+pIxtKBjgxJsp/3TUf/4EewXqJ45kPvRe6FPbcVLNuf5DuLYsgD67M+zDf4/aD++Dv6mKN1D7RY+gds793JaaeMZE3kgpXPLXHEb94r8i0FzL75+fOy2fk4a08TR+Nw1xpngOnfTpHRHyNsO1fQmc6z7gxFzSsHthzO2LUCjIm1TjsqnhzZbfzYDL+Vo1s++F7axbYGw3kPMeJFcyCBRvh1oaT5Xu8nX+nyqwcqJlyYPnKdLjRpdefihnFXupv4jygGA9CBdFZHwW+ba4Vtad8zi+dpK1D1fzNRzP0WUFc0JrSEf0dY7GrMDX53PJb6tra+LQ5t4v4NqzjDPdgtxExIx0JF9JPTOdgksz0feh/h59VXnTrZAI6pfoD+k6wfDz8MYYovWvQVBeXzwXX/hHi6JHAh6E7Dkd1Kp8FX1c5H2odxn1DsMHin8oWYSfQASqUlaRexMyFp+Ldxx550euEBZhVJE3cs/RzBinFsrx/1SBT+kmyMqSfdd8qcAz//sX12iEAu/+hstMsZ//XQnEFPikvPsQbOffCffBtfAcWHtSzviTJ9GQu/dbeCv3oplc+//+FWNX+IVKIKbAv9AXE7utmASORQIxBT4WKcWOiUngFyqBmAL/Ql9M7LZiEjgWCcQU+FikFDsmJoFfqARiCvwLfTGx24pJ4Fgk8PMo8JEFtWO509gxMQnEJPADCZx6Bf7rmYzIOdGRELF3GJNATAJSAnFa5Dzw7QmJ44RpZWs/+yNadi4Lt9Sd0NVjX4pJ4H9YAoy008TB3PkcpIw5MSDPCSswyz3mQv8PL7/Yo/+nEogebkbIT+qKO96f/0yBj/dqseNjEohJ4KRKIKbAJ1WcsZPFJHBqJRBT4FMr79jVYhI4qRKIKfBJFWfsZDEJnFoJxBT41Mo7drWYBE6qBGIKfFLFGTtZTAKnVgIxBT618o5dLSaBkyqBmAKfVHHGThaTwKmVQEyBT628Y1eLSeCkSiCmwCdVnLGTxSRwaiUQU+BTK+/Y1WISOKkSiCnwSRVn7GQxCZxaCfwHCqyGMR4/APvUPmLsajEJ/DIlEOavDvNUH78unbACe8q38/gLjZzQ98sUUeyuYhL4ZUsgFBfHQ8YNmV1PbTeSp2QTjDm9Wg2w+mWLKnZ3MQn8MiXgLtkE0wnq0olb4KKNMLTtfUK7xi9TjLG7ikng55GAu2gjTLl9TujiJ67AxZtgyOkVU+ATEnvsSzEJRCRACkxDyY8/AqZxxmFagOMTqad4E4xtex/fl2JHxyQQk8APJPCf6FJMgWMLKiaBn1kCMQX+mV9A7PIxCfwnEogp8H8ivdh3YxL4mSUQU+AfeQE/J2mmGMz9y2fNVmO0hQhPJI1yLKs/JAlMT9751fjtgN+DuDgdNHFanu9MzI78//lxTt71juUpT/SYmAIfITl6ud7SbfDVHkJ81wsArf6UZ8vdxZsQZzDDkNHpRN/rKfkeLXZv6VaEEIQxp/d/RYV9DeWon/9nJA29B4bMkycPv7MWFa9eBkv3C2Af/hBati9Gw1f/gqXnSNjOue1XM3QgpsBHWepV02+Gp3Q7bOfcgsTBE1pZF7aOAR80OsMPvhnye4/yeQihgA+gnV4T98OrhYJi14/Thv9WOe166NMKkDzqTz+qiKGgH5o4nfh7KIBQIHD0e6J71eqPW6FDfo88X7QlCkE8o1GeL4TKGZMBnxfpN7x11EVPx0P7I8/O9OBB8b0jLB49H/3464pR+ca1SLvqXzDm9Tvm52CZa+JayVV9maaCACE4N8xhQJEhozPKXhkFrSUVqVc+D63Z9l/0KI75EY7pwJgCHyEmf0MpKl69ArqUHPgbytDmni/Egg2F4CndhrpP/4iAswaGNt2QPPZJaONT4Ks5gJoP70WwsRr6rM5IufRZ6BJSEfS2oGHJc3BtWwyN3oSkYffA0mMkCIlWM+tu2M69HY1fT0UoFIBt6F1I6H0pGr99FU2rZ4LQ4jprGjJufp+tMSl51cxbEfK4YMzpiZDXheSLH4Vzy3w0fvUvvpa5y3mwX/gA4ozxCDhrUT3rLvhqDsPS9Xy4D6yBqWAwbGdOQsVrVyP5ksdh6XA2/I0VqJh6OewjHkR895Hw1hxA3Yf3we+ohD49H8mXPge9LQPeyr2o/exRBOpK+dlTxj6BQFM1qt6ZxMoXpzMi+3dfhaVJClT/1fNwbZoHnTUVtvPvQe2njyD9utcQ8rlRNesuJJ4+Ec61H7ACJ1/6JEw5fVmhm7ctgmPJ3wCtFolDJsCx9FWkXR1RYL+jHBWvXYmkEQ8hvttwfjcVUy9lZUy66GE4vvw7mjfN540raejdsPS8GN6Szaie/Tt+B01r3kP69W+g4pWxsA66BtBo4fj2dWjiNDDmD4L30HpYuo9A0oUP8L5S8/GD8BRtRNYddE7DKffIfkqTYwp8hHTqFjwBz+GNSB71KKrfux1p106FIbsbKy0tGnPHM2HpMhR1nzwMbWoeUsY+happE2Bo0xUJA66AY+nLIOuVcdO7qF/4DDwlW5Ay7ml4izbCsexV2Ef/CdqEZFTPuAM6exZsZ98G17ZFaDmwGskjH4YhuztqZ98DrS0b1jNuhLFND15gtJAqp0+Cr2IP9KntkNBvPLSJ6aiZ/QASz7kFxqxuqJ3zkFDSoXezUtLGk3jubfDsX8WjbEjBbWfdzBtUyvinYepwNgKkwC+Ph33kgzDm9kXlmxNgKhwE68Dr0Pjd6/BW7ETGpPdQO/dRhHwu2C/6A1/HkNMT9mH3oOrdm4FAALbhD8IcZSGb1syA4+spSOg/Hrrktmj46kUg4Ef6hDcR8rtR/d5vYMjpgcTTb0DjyrfgLd2BzFveh6/mEGo/egCmTmfB3OFMNH43DYGGMqRd/WKUBQ6h8q2J0NmykHzJ03AfXIXa2fcjbeI0OL55Bb7yXUge8zgCjlI0LHkByRc/jLj4ZFTPvAtxRgssXYci8ZzbUfHiaCQMvgbx3S9ieRnb9Ydt6D1wrnobLbu/RebtnyDobkLFa1cheeRDvMGpWPmYzOMpOCimwGFnkNxDHypfvxqmwiFIJEv14mjED7yClax582doWPgsMibPgt7eFv7GcoRamuAp34GGL/+J7Ds+hcZoRdBVj2BzLbQp7VDxyiXQJqTCXDiEpl+gecMn0Kflw3rmTah5704kj/kzbwbk0lW+diV09hykXP48qt46ugtdNX0S/PUlyPzNXMTpTKh6bzJ8VQeQ0O8yVnDX3uUINJQiZfzfUPP+ncLtzO3Di7D85UtgLjwd1rNuQeXUK5Ay7imYOpyFYFMVyl8Zh6SRD0Gj0aJ+wTNI6H8Z4vRG+BrK0LL9S2Tc9A6c389Gy+5vYOkxgpXXlNcfcaYEdqE17EK/3Wq5Vrx+JVvazFvnsBvr3DgHDYv/gYyJbyLoc6N65h1Iu24qjNld4a3cg6q3J7GSunYvZY8lc/JsdmU9xRtQ/Z58lvAGEULDsikct2bePhe1H/4OAVc9Ui9/HuUvjoIhuwuMef2BoB/O9XNg6nAG4nuNQs37v0Xq1f+CKbevkMmLo2EdfA0Sz5iEkmfPgLnbcKRc/AjcRRtQM/Muvh9vxS40rZ6BzNs+QpzefApU8vguEVPgKAX215Wg8o2rYczrA21yLtw7vmL3kHbi5i3z4FjyPDJu+xB6WzYvgKDfA/feb+FY+gqy7piLOGMCgl4Xu7fa+GSUvXgxtNZU6An3TVGX3w2drQ2MOT14UaaMfxbmwjN4yFvF69cgLjEd6Vf+Ez8WA5MC0znSb5zB56ucfiMCdSUwdx8uQmG/B4iLg6XTUF6s6de9DEObHgh6XCh/eQzMBUOQePZkVLx6OeyjHkF8txEQIcPlrMAIadCw6DlYeo7g+Jc2llDQB9uQm/jZXNsXwr3nW84PkJLbzpqMyvdugcbn+4ECl08dDyAOWbfM4ljUtX0xaj/7MzJvmCYV+E6k3zAN+rRC+GsPoXLaBKRe8Txadi9Fy46vkHHrh9CarJwkq5w+GelRFpisoL++CJWvX4vkS59Gw8K/ImHg5YjvMZIVmMIYQ3ZXCnMRCrg5xtUl56Lmg3uRceM70Ke2/1EFTr74EYS8LSh/ZQxM7U9jD4U2YQqXTmT+0PGp4/EfHVNgpcChEOo++yPce1ewVRQp1RCatyxE8rgnOSNcMfUKJPQbh4S+43nBaUxWpF32N1RMm8BT4mzn3I46ihPry5Fx6weo+/RPCNQVIf3Gd9G87XM4vngB9osegi4pmxWYFlXyuMfhXPM+XFsXwTbsHlj7jUflOzfxYiE3UJeYKRM8IVS9OwlBnweZN85gV44We93cR9mSG7K6oertiTDk9kHS0HuF9U/M4FjXteMLNK/7EJYu5yPpot+j7B/DeFGmksXbthBNK95G0sjfw5jdg5Uivu9o2M7+Dce8nqLNyLxtNmpm3sHxPll1il8RDCD96pdRPecBeEu2IO2al2BI7SCTakADxfKrpnOcT9ljUh4Eg0if+KaIgWfeydbYkNERvpqDvGmlXvECgq4GzjNYeo9CfK8xqP/8CXar06+KdqHFZao/uBv+2sMINNYgY9K7rJjlb1yNkMuB9IlvwFuxB3Vz/4ik4Q9Ab8tE1Qf3IOOm6TCktEfA3YiKF8fAOvhqJJ5xs7TAFyLl4j/yuZ3b5qNh/tPsOWXd9iG76/+9UtnxK676RkyBpST8zbWoeHksEgZdDdtZt4YlSi61PrMjJ4xcOxbDsfQlBF0O6CjBM/rPvGjce5ejfsFTCLQ0Qp/SFvaRf4QxuxsniBoW/RXug2vZjbQOmQjr4OvhKd3MLnTCgMvYxaMkDF/3zFuAOC3ce75B/Zd/hyYIZNwyi5NStJCqpt8E+MldnS7WUggcPzpXv4dQwANTuwFIGv4gKz3F3jTGNdhYC2PBQHgPb4a5w+mwj/kLPEUbeGEHPU6YCgejZfd3sHOMdzHcB1ajYeFTCDjroE3KRvJFf+DOMfpO/YKnEXBWIy7ejuSLHmY3lSxh7ce/54Rfzn3LwnILeJyoX/AE3HuWI85sg3XIdWj48sWwC00bQvrEadCzAh9A1bSJbIEp5m9a9Q4aV83gjYtc3+b1H7dKYqmLNG9fhPp5j8PYtidSr3qJZUyKWb/gSd6IKQlmHXgVrIMnwFu2HTWzhALrUtoh5CEXmhRYuNDFz5wBS/eIAtNGWTFlHL/7tMufP3EN+y9/M6bARxGwSFSQflB+VJX9pXEJ+tkF1BriEQqDLchXA4LeZnY1W/+EEPQ0cxaayj50bk/JRlbgjEnvQGfPZRdaozMJjZTVVGZckP9HVFgi5RzBxhD5hDK+oYAXGv3/tXcu4FGVZx7/n7lPZpLJdRLkWgJYBFMoV0GhpbUCMXiJglSF9QFUvOBqqdQu7hJ3Fd0tVmkL7iIIi4IgpQKy1rLFfXALohSEwlosoJAQkkxmcp3Mfc4+3zczSYBcJpNzTs6E9zw8T3iS77zfd37v+Z/v/r0pkd+3WpAQDngg6I0of20GTIMnIuuOEr4wgl9sKopPMUXzjf0QRYh+N4TYs8R4iCLC3npoTLaWPNpd8BAxxj4SfBQ/NpXFF6mwf1dMT7X6DZ+qC/ohCiLv63d2sRH7iLXoQgxB4KPygk7fMtXWppGWpSiX0xUQrK/k4xLpM57lXQ21DV5RDdzZWyHT3/nih7JjvAltX7AJhpwhMuXUyqwYQvlrM/kUSdYdL8ifXxLnEFuJVf27n8F3/gtc9+TuVvPe6nswqoEV9gkXcNVXqP3oX5E1qwS69H7yl0AM8zlhQ9+Rl3UP5M84+XJgdXLY7UL1+8th+c7tsI6YoepllSTg5HvHqMREoJkACZheBiKQxARIwEnsPCo6ESAB0ztABJKYQI8ImC1VixzElRx7LpPYv1T0Xk6AaYktDU3kSvhMLM+5P0GflQ9B08b2ukRKQvcQgWuJAJun55VfGH7HGaTk35zQ0ycsYLbXk62zbXN/bEJFoZuIwDVEgAmYLYZhC16iJ4ok8vQJCziRzOgeIkAEpCVAApaWJ1kjAooSIAEripsyIwLSEiABS8uTrBEBRQmQgBXFTZkRAWkJkICl5UnWiICiBEjAiuKmzIiAtARIwNLyJGtEQFECJGBFcVNmREBaAiRgaXmSNSKgKAESsKK4KTMiIC0BErC0PMkaEVCUAAlYUdyUGRGQlgAJWFqeZI0IKEqABKwobsqMCEhLgAQsLU+yRgQUJUACVhR3/JnFogjwQxNiAR402sj/o1EW2ozzw0K1HN7MoxlYx93Hz0PuyqFHPKJC7OrivfE/HaWUigAJWCqSEtvhMgqHULX5YQQcX3PrLNpg+q1PIeWGSCTDtiLtMQGyeEDspJTcR3fw8DJdCegVDgXgeOdRmAaOQdqUxZEzz7ryBZCYA5nrmAAJWM1vSDiMyrfm8ZjFLBh4wHGGx7llAbpZrB8mLO/5IzzeMIunq7dfz7XmOfMJDwdqGjyJPx0L/ekrOw6d7ToePC2qah4jyXv2IBe4Mf8maE1p8F/6P1TveBZ6+1CkjpvNw3PG0qsZ1bVaNhKwmj0vhnkIVJ09H5lFK3gERB4j+PqpsH3/CTjfXw5/2V+gs+XCX3kWtqmLkDZxPio2zoOg1SL3wQ1oOLINtft/A4M9H8HaSzzmbs6cV+F3nIPzvZ9CDAVZAF4eUTF79qvwfHUADQc3QWMwQd9nOHLuXcX/Rpc6CZCA1emXSKlY0HAWw1hv5CE6WaDsplP7kHXXizw2cNXGBTzAuLH/KDT+eTvqD6xH3mM7UP3bZVx09jmvo3x1ISxj74Zt8iL4Lp6Ac/tSZN//Gy7SYF058ha+y3vY1e89DX3et5E2eSGqWID0b01A+o+WqjIgtppdpnTZSMBKE+9KfkzA6+dD9LPwngYEXWU8oDcTbMPnW1G/fw0Ec1rkZNBwiMfVzblvNeo+/hWg0cA2bQmq33kcGmMqoNXxD0KoqR5pUxbAc/p/oM8aiMxZV0Q6DAVQ+eb9PAoiF/AVoVm7UnxKKz8BErD8jBPPgdfA86C3D0HqhAfg2LgAaVMfgXX8XHgvfI7qrU8j656VMNiHwvP1YR6RL3XMHFRtWQxBq0PWXStRsaYYqZPnwVJQhICrFIHyU0gpKIRrdwlEfxPs89fz0MINn73NI9ibh30PFet+DOOgsciY/izvH9MYVuIulPtOErDchBO0z479Zn3eqg3zoWd94Nv/CTze7defI3fh29CY0+F45zGEPXXQ510Pz+kDsHynEJkz/wGVb82PNKHnb0DtvlVwH9sN87Cb4Ss9Aa0lHfaHNsF79hBce0qgTbNHau/GamTOWgHz4JvgePcpPphlHjoFGYXLIVAfOEEvyn8bCVh+xgnlEJuPdR/fBW1KBszDpkIUw2g89DZ09sEwDpkMQQTcf/kgIrYht8A0eCJvTnMBa7WwP7ie15/esmNoOvV7GPJu4H1pNv3EpntDjQ4+yKURdLCMKYYuNYfXuCzvplMfQvR7YBl1Jwk4IQ8qcxMJWBnOiuXCRF7xRjG0tjzYf7w2uuiDGsGKOUDhjEjACgOXOzvH9mfg++YIMgqfQ8qIGdR/lRt4D9snAfewA6TOPuD8BhpTGjSWDBp+khquCu2RgFXoFCoSEYiXAAk4XlKUjgiokAAJWIVOoSIRgXgJkIDjJUXpiIAKCZCAVegUKhIRiJcACTheUpSOCKiQAAlYhU6hIhGBeAmQgOMlRemIgAoJkIBV6BQqEhGIlwAJOF5SlI4IqJAACViFTqEiEYF4CZCA4yVF6YiACgmQgFXoFCoSEYiXAAk4XlKUjgiokAAJWIVOoSIRgXgJCH5/UNTpNHR8aLzEKB0RUAmBYCAEwemsE1NTU6DX61RSLCoGESACHRFgZ5YFg0E0NHgg1NTUtIpmReCIABFIDgLsnLMwqA+cHN6iUhKBNgmQgOnFIAJJTIAEnMTOo6ITARIwvQNEIIkJkICT2HlUdCJAAqZ3gAgkMQEScBI7j4pOBEjAPf4OsGl4NqcX+9njBaICJBEBEnCPOEvk0QEFgUUQvVy4LHIgXUQgXgIk4HhJdTMdixoYdJ5HoPI0Aq4yhOovIeyuhWAw8cDaWtt10OcMhqHPDRB0hm7mRrdfKwRIwDJ5OhbfVwx64Cs9jro/rkbQeaHD3FhQb43BjNTJC2AZOR2alAzaZCKTf3qLWRKwXJ4UAe+FI3DuWoFwU02kl8tXnYtXibKt3q9gsMA6fjbSJj1EAbbl8lEvsEsCltyJrH8ronbfq3Af/wAIBbqVg6HfjcgoXA59Rt/oB4D1namf3C2ovehmErDEzgx7G+Ha+wK8f/uTZJa1mf2RffdK6LIHUcxfyaj2DkMkYCn8GG0Di+EQnHtK4PnyvyUXmtaahdxFW8Ca1lQDS+G03mGDBCyBH9kIM5vLbTj4Fuo+Wc/7u3JcupxvwT5vHTR6sxzmyWYSEiABS+A0NnocdJxD1eZHIfqb2rAY7yKNztPZfrAEqePmSFBqMtEbCJCAJfCiKIZQ9fZjCFw82aZ4I7IU2l1rxQa9Is3iWN0dqdHbugRDCvIe2Q5NSjo1pSXwXbKbIAFL4MGQ24lLa4rbHHFm4rWOmgXb9xbzKaS6A+vhPvrbK3IVkVG0Aub8Cfz3ji1LEKg6007JRFgnPgDb1MUkYAl8l+wmkkzAIsIBH2r+6yWkjJwOc/4kPmXTc4M6rPEM1O1fjcbPtrf5LrDypY69B+aRt6Hh0y0IOM4i5CrladndsZrZ2HckdBn9kX7rM3BsfQKBitPtvlv63CGwP7RJtr52Zy91rKFf8eYDzWXQ5QxG5qySHvRFZ6W+8u+Ro+DY3HzYUwN/2QkY+o+CxmRLomdA8pyJxXCLTbVw/WEVPH/dzxc3ZMxYhpQbC3vuRWaFCvlQ/toMiEFfu2+QdUwxDAO+y2toXWb/iHR9brj2rkTew1sQqD7HV125j+6CdcIcVG97pkMBs2fPe3I3tOb0rr61kqYve3lSc1Pf0Gc4cuatS5qXn6+UEwDfhaNw7nwOotcNjSkVmcUrYeo/WlJOchpTdQ0cg8yruUATHNuegT/az4zVXmxQxzr2XkDQKC5kPnhV/Q0q33ygcx+JQNadJXDuLgHEMLLnruYtibxFW3DxF9Ng/W4xF3bj0Z2d2mJcMqf/BJbR7B4FLzHS4mAX67KXvnxzM3N9nxuQO39dy2qzWCIFi9eVrGItt+odP4X3zMFobSwiZdgUZBW/3BVTPZpW9QLmh2f6GlC1aSGCNRevhiVoYBlVhPRbl0LQaBSFyV4C34VjqN76ZKf5srRZd74A34UvuIDNw3+Amr0vIveRrajb9zqMA0bDV3oC7mOdC5hlllJQiMyZP+80XykTxNZ3N538EGG/B7X7VjXPd2vTcmGdcD+05jSYh/8wKnK5JtS6/1SRykGA872fwHv208iHRxBhHnoLsotf6X4GCllQtYAZA9+lL+Ha+TOEGqo7RJJy43Rk3PYsBJ1RIXSRbJr+uh+u95/vPE8RMA25CbrMAbymDTU44D13GJaCQt56YL/znT/aweDV5Vnoc4ci96GNnecrQwrv2UNw7no+OmXWIlLBZEXO3F/DkDtUhlzlMen5+jO43l/OuzSC0Yqsu/4FpkHj5MlMBqsqF7AIz5mDCNVXovYPq656/JZZUwGZRc9DZx/Kt+Qp+d13n/w9aj7457hcw0SntWbzfmPYUwt/1RmYBozmPzWmNN4XZoNa8VxaWx76LL5yNDueO6VJ4/3mMzh3LIMY9HODGmsW7A++AZ3tOmkyUMyKiFBTDXylX8DIBrHMybUDTOUCjmx4Fz21KF9dxGspra0PLCNu432xhkMbowdZCOi77H+jO36UG5VmZfB8dQCunc/F9bpl3VECv+MsH302DRzHWxaW0XcBbP+vKPIaOXDpy7hsGQYWwD53bVxppU4UG5sIui6gasPf8f3LuQvf4SKO9wMkdZkSsyci7HPzXWMh1wVoM/rDNGAcNCZLu/PwieUj312qFzB7dLYdr3z17ZyCcdA45Nz3Gv9/2Ss3R+YBBA36LftEPkrtWWZ94PKTcGx+tN28+WAJ+7QIQOasFXDteQFs6aV97utw7l6BjJnPwXfuMDSpOXD/eSeCDVVx1cGp4++DbVrnfW9poVy9Usx7/gg0ZhsM9mizuTlJ56vKpC1bnNZEQBREeE5/jPpPNiBYU9Y8f899pTNAl9EPaVMWIWXY1DiN9lwyEnA32QfrKlCxtuPRYOuYe/gglRgKQDDbImuyNFpUv7cUxn4FMOVP4n181pTLmPYkHNs7nkZizY6se3/B58GVvGI1b+DiqegZXrE9zpFR6cglQN93hGprYvYModqLqPj3OdFjjS7/0LSem++zeAc/LUXNV3II2FOHinX385eG9VMy73wRgiCi/FezojUw0OeJPYrPQfIXWhRRsfZuPijV3sUEzEY3a//4OkKNToQ9dVcl1dpyobXmIHv2Kji2LulwHhgGE/r+/UcQNMpGlOSTSCJw6ddR7m09sBDxBVN0fL15heUhAgHH3+B49+lOM86Zu5qPqaj5SgoBM5GE+SYBVnPpmkeaW28c0BhZv0XpK/L1dp/ci5oPXupAwMVIm7aET1PUf7wWjZ9vuyptZvFLMA6e2ktPUAAAAp9JREFUxF96x38+jEDlV+3aMw4ai+w5v4TAR6+VvCL1Exux7eiK+EKdTWi+c4x9hwKeTsEJepPqT0NJDgFfhlp9L0bY24CKN2Yj7K3v9KWQIkFG4c9huXGmSgda1OcfKZir1UYSClh9KFm9VPvRv8F9bJfshdPb82Gfvx6CljWfVdlIlZ0BZdBCgAQswdsQ6QuHUfEfcxCqvSSBxbZNsLqN9cuMbF01H9gmAcsGO0kMk4AlcFRkXS3gOfcpnNuXSmCxxURL3AYRqRMfhG3KI4ovGZX0gciYpARIwBLhjJwYK8J9Yg9qPnxF8rrR/O3vI7NoBQStlprOEvmsN5ghAUvtRTGMxi92om7/GoiB9rcYxpNtbNomZcStyLz9H1U/IhrPM1EaaQmQgCXkGdutw6pff8WXcG57GmFPY0I58Ga5RgPbD5+ClW0bZPOqdB50Qix7800kYBm9y47aaTz2OzQe2gwxFIzOjLY3zXL5703DpiDtlgUwZOe3XuYkY2nJdDISIAHL7jURwUYXmo7v4tsF/Y4zED0NzRvjYwse+BrczIEw9h3B9/oa8oZTjSu7b5I/AxKwzD5sfWZXZM84E7QDgarTCNVWgu2hNeRezxfQC1p98/olWg4hs2N6iXkScC9xZDI/RvPYAT+qh+a2u+JLEnBXaEXTlpaWYs2aNWhsTGyAKoEse/UtFosFjz/+OPr160cC7qKnScBdBMaST5w4EYcPH07gTrqlPQLjx48npgm8HiTgBKAVFRVh7969/LQQurpPgDWbp0+fzplSE7prPEnAXePFUzc0NODEiRPw+yPnQdHVPQIGgwEFBQVITU3tnqFr8G4S8DXodHrk3kOABNx7fElPcg0SIAFfg06nR+49BEjAvceX9CTXIIH/B4qlc+tqywRhAAAAAElFTkSuQmCC;" vertex="1" parent="1">
          <mxGeometry x="70" y="40" width="180" height="390" as="geometry" />
        </mxCell>
        <mxCell id="-I--7wGIwqfK-wc9E1gI-3" value="" style="shape=image;verticalLabelPosition=bottom;labelBackgroundColor=default;verticalAlign=top;aspect=fixed;imageAspect=0;image=data:image/png,iVBORw0KGgoAAAANSUhEUgAAAPAAAAIICAYAAABQC2PPAAAAAXNSR0IArs4c6QAAIABJREFUeF7sfQd8lUXW/nNLeu89pFNCSaWF3sUFRKUj9oJ17frtf3fd8n3qruu6KquAIk26IFWKdAgEUiC0FAIkIZX0Xm75/855700jwA0mmjLz+wWSe+edd+aZeeacOXPmjGzp0qVaiCQQEAh0SQRkgsBdst9EpQUCjIAgsBgIAoEujIAgcBfuPFF1gYAgsBgDAoEujIAgcBfuPFF1gYAgsBgDAoEujIAgcBfuPFF1gYAgsBgDAoEujECHE1ir1UImk7UKUdPv7pavC+Mrqt4NEWjLuG3ruG5r/g4nMPWfIZUyJE83HAuiSV0UgaqqKlRXV8PCwgImJiatCimNRoOKigqoVKq7tpLGvkKh4HLMzMzahEi7Ezg/Px9r165FcXExbG1t8cQTT8DBwYEboVQqGypHjf/iiy8gl8vx1ltv8edXrlzBzp07GRhnZ2fMmzePyxBJINAZECDSJiQk4NChQ8jJyWHBROM3ICAA48aNQ//+/ZmIlIi8KSkpqK+v53ytJdJMnZyc+Bm1Wo2ysjIe920Z8+1KYKr0X/7yF4wfPx6jRo3C6tWrufKLFi1ikr7wwgsIDAzktmzYsAHGxsaIiYnBxx9/zPn+8Ic/YObMmQgPD8cnn3wCPz8/PProo52h70QdejgCND7//ve/Izs7G46Ojhg7diz/f/PmTSY0SdrQ0FA8//zzPJbLy8uRlZWFL7/88o4SmAj8zjvv8DjXp4yMDHh7exuMdrsSmN5KsxTNKPT/119/zTPT4MGDkZaWBk9PT5iamuLq1av45ptv8Pbbb+Mf//gHE5jSp59+ynlGjBiBJUuWYPr06RgyZIhBKrjBLRYZBQL3gQAJp127diE4OBjm5ubYv38/CgsL0atXL0ycOBGJiYk8TkeOHMn/l5aWMtmJwCRd75RIsOmFGuVJT09n6e3j43NH21HTstqdwFT58+fP4+eff2aV4KmnnuLK6BNV7j//+Q+mTZsGV1dX/O1vf2sg8NGjRxkYUiEIgMWLF8PDw+M+4BaPCATujoBerSUp2BajVHJyMv7973/Dzs6Of4iklN5//324uLg0vLSkpMQgApMQIxVcn4jABQUFrIUaktqVwAREUVERrK2tYWRkxETetGkTqx7R0dEYOHAgkpKS8OOPP7Jkrqurw759+zB79mwMHToUv//97/Huu+8yaWm2ozXEG2+8ISSwIT0p8hiMANljSJCQTYakI41bWs7ReKTU8vemBVMestOQ1K2trWXDU3x8PMaMGdPs/b+EwJaWlmw3MiS1K4Fpwf7BBx9g+PDhmDRpElatWgUyatHs9Pnnn2POnDkM1rVr17huZKzavXs3Hn/8cQwaNIgJvHDhQoSFhbEKTXlfe+01Q9oh8ggEDEKAxtStW7d47Lm5ubEaTKQkVZjWrERuEiAkWSkvrUdb2wYlLZIEDBF31qxZt72b1sRUxsqVK/kdrSVaahJfyHClT5mZmfDy8jKoLZSpXQlMDSbxv2fPHq48AUSq8p1mE1onb926lUlLz16+fBmkRtPn9OyUKVMMnokMbrHI2OMRIANTTU0N7O3t2fhEgocMUqQ9kmSm8UqkI+K2NnZprFZWVrIBloxZZIlumvTqOU0INFHcbQ2sf47eRT9kA6I1tqGp3QnMs4LOcUPs7RraDSJfZ0CgK47XdiVwZ+gEUQeBQE9CQBC4J/W2aGu3Q0AQuNt1qWhQT0JAELgn9bZoa7dDQBC423WpaFBPQkAQuCf1tmhrt0NAELjbdaloUE9CQBC4J/W2aGu3Q0AQuNt1qWhQT0JAELgn9bZoa7dDQBC423WpaFBPQkAQuCf1tmhrt0NAELjbdaloUE9CQBC4J/W2aGu3Q0AQuNt1qWhQT0JAELgn9bZoa7dDwCAC80FnyACZFlnFWhy6rMbMcCUsTPnT1hPFwr3DjQzdDsUOalBXPGDeQVB03WIpJLQMqM26iJr0WGiqiqFVqyBTGkNhYQdTv2EwdgrgPLp/2tRWgwisL/FavgbrolVwtQHmRxnB3Lh1+targFq1FpYmTb7XaqGhOFh1gIkSUCruSP02NaC7ZKZYTBR+hcKpUKwkjUYLihHs5ubKgdPakigsDAXJp3hOVlZWbXlU5G1nBGgSrk4+hNrsSzBy8kdd9kWY+Q1D9fUYGHsMRH32JZj6D4eZ35AOIDDPHtIUwuQ9qYKNhQzPjlXC1Oh2ApKcvnhThQMXNNBqACszYOEIJcyNgIIKYP2pOtSp5DBSaPHwYCU8bCmWEN2dBKw9qUYfdxkifKXI9tTwL/ar8Px4JUyU0ruOp6hgrJBjiH/zGETtjPmvXhzFyV6/fiPHZqK0aNFj8PLyxJ///Be8+OJi/r1l+NPWKqmX2BSk7T+ffYHfTXsQffv2hv5igEaFSMKz8cYAisfUvMSrV9OwadNmvPvu27hw4QI2bdrCsZ8o2mhQUCCmTp0Ka2srg2IX/+qAdqIXkuStunIA1kMWoDojAdq6SliFPoyyM+thZO8JpX0vVMRuhkXINBg7B7W55neVwFoiF2RIydVga4wKLrYyLIgygpFSp1K3eF1VrRZfHVTh+XFKmBjJkF2iwfl0Ncb3V2LFYRXmRylgbSZHdZ0WK4/VY9FII9iYA2XVwFc/18PZRoYnRxk1qOV/21aHYA85Ho5UsDp+PFkNYyUwxF8ieXdJH3/0DwyPGo6QkEFITU3Frl17mDh6AlOYXpLMRkZKHZGBiopyltT6AGh1dbWQyxUc6pQSSXAzM1PIZHLU19fB2NiEA7XZ29s1XP9Bgd2I7CSl6fem9/Kkpl7Fxo2b8P777yIx8QIOHPgZzzzzJNRqLfbu3YusrBy89x5diSM0qTuNQ219NUqO/BeQKyAzsYKmqghyY3PIlKbQ1FUBqlrIze2gri6FwswaNlFPAbK2Cad7qtCXstTYEauGj7MMM8KVd1SbqRFEzK8P1mPOUCXc7eQkXKHWAknZGly4qcGcIYqGGbugXAtzE8DcGLiUpUVFjRY3bmkwJEABH0epEZtOq2BqDPi7yJnIx5LVrH53NwJ/9NHHHFZ3zJjRfHMFRUo0MjLGBx/8BX379kV1VRWyc3Iwf/5cDgL+7bcrGNvqGrpDyoU/X758OVQqDaqrqzgs79GjxzBr1iNczsqVq+Dr68OB9lUqNd588w2O033o0GEORk6RFym28Ycf/m/DWCStYMOGRgIfPnwEb7zxe/6eJol//uMTzHhoOgYMGNBd5tF2b4eqPB+lJ1fCvPdoaOtrUHvjLEz9oyBTGEFTW46aG7EwC4ji91Zfi4HduJcgUxi3qR53JTCRjCSjmYkML01QwuwOa179G0nZvpylxskUDRRywNdJxmS7kKlhco/t13i5WdNabjitwuwhSly/pUFyjgZTB0n5Np+ux+RBSnx3rB5PjlTiXKa2WxL45Mlo0E9paRk8PNwxbtwY+Pr6sgR+9NFHEBERjl27diMvLx8LFsxDTk4uXFycUV1dg08++Rf++tcPmKSUnn76KY5t/OGHHzcQeNWq1XjrrTdhbm6Gv/7173j11Vf43iq68mbkyBGIiTmD7dt3GExges/y5d/A08MLD0yd3KYB15Myq0qyUHZ6Lewmvw11eT7Kz2yAzejnITcyg7r8FkqjV8KW/jaxRNH+T2A3/jXIlG2zd9xTAm+IUSE1S4MHQhSI8Lu76qpfg5HqDa0MMWkqXL+lRZCbgtXpaSG3E5gmieWH6+DtpICMgm6XAa9NMZIIHKPCrCEK5JcBPyWq4Osk71YEbnq9B7WXiLdnz16Wju+//x4+/PAjvPjiC/D29kJ09GmcPRuLl15ajOXLv0VGRjqrwiRRP/jgT1izZi1fYTNx4njU1taDpLpeAn///Tq89947LN2pzAULFmDN6jWYPWc2AgL8UFFRif/7v4/aROBPPvkUw4YNRVTU8J7EyTa1VVWag9JTa2A//lWWuERmm5HPsRqtKstDWcxaJjAtQ0qOfg27ca+ydbot6Z4EVqm12HVejUsZGkT1kWN0HyJx69tH5TVaRKdqMKm/nI0idWpg1XEVHo5QsJHqpYlGUEqaNX6MU2FUbwUSM9VQQIZ+npLaHJOmRoCLHL1d5dh8hgisZCPMrnMqXM3VYngQGbG6zxqYSPzVV1/xLYwUoZ/U3I8++gdeffVlfPbZ52zEkgh8iglM0vhcwnk89/zTKCoqwb///VkLAk9AXV09E/VuBCaJa2dniwenTsWOnTuRlJR8VwKTuv3mm6RCy3DkyFEcOXwU7//Pu222kLdlcHb1vJqaciYmDWAt78I231rVarSQyWX8vdzUGrajnuP1clvSPQlMhRHh9pxTIeG6GiP7KjEySIEWwej5nfVqLbbGqtmsQcapG7e0GN1Xjj6ucsSna5CQroG3vYwt0jZmwKQBRGwV5gxTwsyI7dGsRh+7osbjI42wRUdglk4a4LsjdRjYS9GtCExt27btR1y8eBnOzo6sHoeGhmDKlMkNRqymBJ47dxZWrVoDW1t72NnZID4+AX/+8x+bSGDDCCyXy9gwRUYsugGSDFZ3XgMnYvPmH9jYRVoC3d0zevQormdr1460ZQB277xaVF7cC1X5LViFPYLKCzuhsHKBee+xqEjcBa1WDYug0SiP3Qxjt74wCxjRZjgMIrBUqhZ7L6hxNlWLMcFyRAUq2GDWmg2yrFqL8lot3KylWxp4CwRaqDUy5JdpYWMmg0XbVP02N6yrPUDXydCdPSSF73VLO+3zktW4LVdwNMWDpD4ZrSwsLPkenrS0q6y6k5otUvsjQKoyGbHM/IehMnE3LCNmoSJ2CywiHkVV4m4obNxhFTbzviz6BhFYv52k0WpxNEmNE0lqvDDBGE6WpBfcocGkNjS5ZoUykiuHTCuT1In2x0mU2AYE6IZ5WjdXVlbz9tRjjy3gC75Eam8EtOx5VZV0ELU3E1ldlsnl0Go0vDVKTh2m/sMgY9W57awwiMDNZ2+guFILO8u7uFG2NwaivA5BgCSx/opMoQp3CMTNClVXFkFdUQCo6wGlCRSWjlCY29wXcfUFt5nAHd9M8QaBgEDAUAQEgQ1FSuQTCHRCBASBO2GniCoJBAxFQBDYUKREPoFAJ0RAELgTdoqokkDAUAQEgQ1FSuQTCHRCBGQff/wxbdeKJBAQCHRBBIQE7oKdJqosENAjIAgsxoJAoAsjIAjchTtPVF0gIAgsxoBAoAsjIAjchTtPVF0gIAgsxoBAoAsjIAjchTtPVF0gIAgsxoBAoAsjIAjchTtPVF0g0G0ILO4REoO5JyLQLQhM5KUYUcbGxrp7hTQcaeJesaV6YoeLNncvBO6bwFlZWXyDAN2XQ5H97e3tGRmKWkjxivUhWtRqdcO9PpSXyEb/U2A2fcA7+p0+p+f0sZLpM/q7tLQUJSUlfFEX5afPKVEZlPTl0E0C7u7usLCwYPJmZmbCz8+voVx9PnpGL61FGJnuNZh7Ymvum8BEEIqKaGdnxzfh0RUgdK8PkYc+8/T05CiLubm5LBmJNETCgoICDp6Wnp7OxCcSpaWlMfZ0GwFdnpWSksL56W96nm7to+iJlJfeSykwMJDzEHGJzPQdBTbXE/jatWtMbppQKC/VhcKh0juTkpKY3FQvkQQCXRmBX0RgCkJO5LGxsWEyEDkdHR2ZLE5OTiAp3bt3byYgEZFISBdsEZHp6kwiE0VHlC7uMuLniPg3b96Em5sbxyEmKV9UVMSEI+KRpCfi6qU//U3EpMmDytUTmCaFoKAgfnd+fj7Xh8qlOlB5IgJjVx62ou56BH4RgfWk8/f3Z6IQAV1dXVFeXs6kvn79Ovr168dkIwKTRCUJShd0kZT18PDgz4l0NAHQOpYmAFKbSZIrlUpex9LEQO8gAhMR9eowlUvvsbW15e+IlE0JTJMH5aHn6d2UhyQ1vZdu/BNJINDVEbhvApPkpLt2SAKTJCaJSYQl6UgXUpM0pDxERv2alwhFeUit1ROJyEiSmp6jMuhZks70PZGZCEzqNt2iR3lImlIiSUp/04SgX0vTOyk/3TZw48YNJjr96IlNRKYJIzg4WNwo0NVHrqg/I3DfBG66bdPydy5Yd2O03kJMhOrTp08D7E0NSC0v+Wr6d8vtodbytixLfxl2g5qhqwuRndRyktrCgCUY0B0QuG8CN2383fZg6TuSiCSNSRK2RpyWpLwTsHeaNAypC1nDSbKTlCbrtkgCge6AQLsQuDsAIdogEOiKCAgCd8VeE3UWCOgQEAQWQ0Eg0IUR+EUE1t9a2IXbL6ouEOjSCNw3gdNvpCPm9Gk8MutRyMnFkW4f17k46g1VdOdtbk4OvLy92VFDJIGAQKB9EbhvAp+JOYP9+/bh3fffw5FDh3H06NEGP+fQsFDMmPEQuzmuWb0ab7z1ZoMHVdMtnta2fwyxKOslvziB1L6DQZTW9RC4bwKTU8T1a9cRHhGOgwd+xpmzZ7Fw4QKQ1N3+43b4+PoiNDSUCbz4pRfZS0sukyO4f3DDNg5t7Vy8eBFVlVX8ud47Kjk5GXT7MO3Xpmekw9fHB07Ozg3oFty6hZTkFNja2aJvv35iT7frjTtR43ZC4L4JHHs2Fj/t2YP3//A/OHzwEOLj4/HO++/xHeOrV61GZUUFxo0fj9WrVsHJ0RFGxsbIyc3BoEGDMGv2bHa3/GbZcnbBNDMzRWFhER6dPQshISFY8uWXfALJytISdfUqlJeW4smnn4aPrw9OnzqNXTt3wsvbC8VFxbCxtcHTzzwNY2OTdoJEFCMQ6DoItBuBT506hZEjR6KyshKxsbGIjIxEQGAA1qxeg/kLF7Ck3LVjB06fPo3/+cMf8POBA4iPT8Drb7wOK2trrPx2BR82oAlh+dJl7L/83vvvg9Tljz/8iA8mPPTwTHz4v/+HsPBwTJg4Afl5eVjx7QrMnTcP/Qf07zqoi5oKBNoJgXYj8MmTJ+Hn7w9TExMMHDgQQX16IzUllVXo1998g08epV1Nw3crVuD3r7+OVStXwsrGGs899xw3hQ43rPpuJV559VX8sGUL5AoFFr+4mL/775dL2FA2bcYMfPXf/7IKrj8PXF9fjxEjR2DKlAfA4l8kgUAPQqDdCBwXH49333u32Xo0OSm5mRGrKYEPHTqE5KQkvPHmGzA1M8P3a9aCzvC+9/57+Pabb5sR+Ksl/+UuefyJx/Hh/32IqBFRiBoxgo8F0iRBRjOaIEQSCPQ0BO6bwHFnY7GnyRqYCfz+exTvgg1QlO5GYIVSgaVffc3SlE4Q5eXl4cHf/Q5Dhw3Fki++5M9faCKByWJNxrDDhw7j4M8/IzAoCHm5dCLKDM8vfoFPMYkkEOhpCNw3gelY3o3r1zF4yBBkZmQgLz8fgwcPboZfUWERrly5jPCICJiYmqKspIStzmFh4TAzNwOpv7QdRevmyIgI2DlIYXnOJSSwJB8UEsJ/n084x/8PCpX+zsnORuL5RDg6OSE8PIyOPvW0fhPtFQgwAvdNYD1++r1YcuNoSaOWn7X03GrtmZb9wieVZHqZLn2rf86Q50U/CwS6MwK/mMDdGRzRNoFAZ0dAELiz95Con0DgLggIAovhIRDowggIAnfhzhNVFwgIAosxIBDowggIAnfhzhNVFwgIAosxIBDowggIAnfhzhNVFwgIAosxIBDowggIAnfhzhNVFwgIAosxIBDowggIAnfhzhNVFwjIPv/8CymcpEgCAYFAl0NA9t//fi0I3OW6TVRYICAhIAgsRoJAoJMjcLfwyXckMN2rq9XSj1aEbe3kHSyq170RoPhvMpm81Ua2SmAirUpVB6VSKcjbvceGaF0nR0DiogpGRq2HjLqLBFY1RH7s5G0U1RMIdGsESBuWy5WGS2DKqdEIAnfrUSEa12UQoBtMFIrW7xYTErjLdKOoaE9FQEjgntrzot3dAgFB4G7RjaIRPRUBQeCe2vOi3d0CgU5NYLVKBbVGA2Nj4zuCTQ1ISb0KX18fmOjyNd2f5tjR5JXSSoD3u+1jt/yuLXnvVFmKfc0RslvsnzeU3SSYdcv3UTtLSstga2PdsAPQ1n34O+XXY6Svd0usWnuuJa70d2lZGczNzBoubNeXc/vzehxaCRjeBlqVl1fwzZamJrePj4aY5E2wbl4PLXUDKquq+BIBO1ube1amrXi3oSn3nbVTE/j8hYtIu3YdD8+Y1moDCVD62f/zYQwfNgRWlhYdsjfdXh1XWlqGQ4eP4oEHJvFFb/ow9D/tP4AhkZGwt7W94yVsdLfyqu/XY8GcWQ13JTcFpTUStmUSorLulL+1SbBlXrKGUv1GDh+GwAD/OwxIibgnTp6Cq5srAnx9+YZJ/cXuLSeOmzezcO7CRTw4ZVKr/bptxy4EBfgjuF9fft+9SHt7nTVYvmIlwsNCEBEW2qwerZV13yzrwAfbncDU8Lq6OgaztUQOIPRjSIo/dx6pV9Mw59GHG7Knp2fgcnIyfHv1Qk5uHkaNGI7jJ09h4IBgJJxLxLChg/k+JSLK8KFD+PmbWVlwcXbmjtInmnVjzsaivKwC3t5eCO7XB7W1tTgVc5bvJQ7090NAgB/Oxp2DpYUF0jMy4OLijNBBA5Gbm4dziRdY4kdGhMHCwgLnEy8iKycHbi4uCA0ZiIuXr6CmuoalErU3atgQHD5yHFdSUtC/Xx+MHzuGMYqNS8CZuHj08vbC7x6YjBs30pGUnApjE2MMHzYYpiamXGUi8Mo16xEZEQq6liY0ZBCcnZ24fWlp12FiaoKhQyKRknIVpqYmCAoKRFxcAhwdHeBgb4fo02egUEj1oDuXKZVXVODMmVi+DL2gsBADg4OReOkSLC0suY6x8ecwMmoY6uvqcSYuDmNHj+LnqqtrcCrmDNzd3bi+fXoHwsvTCyvXrkPf3kGoqKjgC+XCQgZyufEJ51naRYQNglqtwc49e2FpaYmRUUNhb2+P06fPorqmmomvJ399vQo/7tzN92JFDRuKvn2CcDY2nutMpA0I8MfW7bvQO9Cfcbh0OYnHQnJKKq7fSIeDvT0GR4bj6rVrKCkulSStqh4jhg3l8UHYHzl6ApeSkzGofzDjcunyFWTezIKNtTWGDI5Edk4OMm/eZAndP7gfHDvhJXntSmAibnZ2Nl8+1prKSp1PniN2dnawsSGV5e6pJYHp4u/V6zZiSEQ4iouLcT09A08uWoCVa9bhwQcm4+Lly7C2tIKvTy/sO3AQUyZNxLaduzBhzGjEnTuHQQP6o3dQIL808cJFxCWc48FBxKfn9+4/wLchent54uixE1g4fy4OHTkKrUaLPn2CcOTocSyYNxvrN27ByKjhTHilkQIuTs6sBdBgP3HqNMaPGYWLV5J48EWGh+PoiZMYP2Y0ampqcOjoMTwwaQKCAgO4HjRIdu3Zh8jwMPQP7oNvV32PweFhKCgqQn5+PubPmcUqMxN47XqEDAhGRVU1bly/gaefXIRDh4/B398HJ0/FYED/YMb+/LlEzJ83G9+t/h7Tpk7Btu27MDgiDBVVVdw/sx6ZyWUWFBRi3aYtiBo2GNdvZKCivBLDhg3mdk4cPxYHDx/BtAcfQEFBES4nXcHsR6SJtKysnMnav19fGCmVSLmahicem8/1c3Z0gJurC06dicXjC+Zh+87dvLyhSexKUjIefmgat9fVxQmDI8JxJjYBJSXF6NunN0/ENFnb2lqDBmb0qTO4cPkKZk6bivKKSuTk5MLT0xOksTy1aAF+2n8Qvbw8eRIbNHAAPD3csWHzDxgzagQSL15Cn8BAlJaXIyk5GcOGDMaxE9EYPnQw40QETklJxaFjJ/Dg5EkwNjbCzj0/YUTUcMTHn0NQYCB/Fh1zhvujd1AATzqdLbUrgTMyMuDk5MQz3J0SqVqZmZnw8fG5JxYtCZyReRP7fj6EJx+bD1r/bN76I55ctBCr1q7D1CkTuVN27tqL4OC+PFHY2FjjRPRpXpORqubj4YmpUyfze6mz3JxdEBEeBq1MC1VdPQ/KCePGoZe3Jz7/ahkemTENZ2Lj0DswkCU0EYLecyUpBZeTkmFtZYkJY8fgSnIKLl25AqVuQ33QgGCUVVbwTYyTxo/F2vUbERYyiLWA7zduxrNPPgYzM/OGSe7bVWvxuymTYGJijLUbNuOl559hybV+0w949slFjKckgddh4bzZLNV37PoJzz39OOLizyMpJRU0uYWFDkLfvn2wadMPmDRxPOITEjF2zAisXb8JRkojfh+tUefPnQUjIyUTeNPWbXhi4XwkXriMzOwszJo5A99v2MwqZXlFOYpLSlkC2dvbYWhkRAOBv9+wCc89/QRPGF8tW4GF82Zh09btGDV8GNzdXfHtyjWY9fBD2LJtO15e/BzfYbX0m+8w++GHcOT4Cfj7+jDpVqxai6mTJ8LV1RVbtv3I0nUgX8iuRUpqGg4fP4Fnn1iE4qISHDlxEkWFhaiqqcHCeXNw9PhJnXblhFkPz2DN5efDR6X+1mp5InF1dkZhcREenDIZm3/YDj/fXggPD+W7usrKyrBxyzY88+TjOHEyGpVV1ZgyaTwuX0li1T24Tx8kpaRg9qMzIQP5G3e+w3ntSuC0tDR4eXnd1ehEIyA9PR29evW6N4ETziM1rVGFJvVp1dr1GBIZzoOP1B2SwPTZ1CmTYGdri+UrVrGKOGXieB40e/f/jAVzZ3NepVIBfz9ffu+p02dx7cYN7vh9Bw7xGnrn7r2skpFKuGb9Jsyb9SiOnTzJUpukDQ02kky3bhXAz88HFy5eRk5uLkv2uPhzeGTmdB50jg72SLx0md9DBF6zbiPCQ0nldca6jZuxaP5c2NnZ8vc00L5bsw4jhw+Ft5cXvlm5Go/OnIGcnDycionBc08/CYVCksCU7zEdgbfv2oPpD07FwcNHMfuRmdi2fSdrHtSODZu38mDr27s3AgP88M3KNTwZGRubID0zA+GhIQ0SeOMP21h6XrhwCTezc/DozOn4fv0mntgAiJ3bAAAgAElEQVRcXZ1Z2yBC0CC20kkgksDfrfkeE8eNgZGRMQ4eOoxnnnqc+4HUWDc3V8aK1utbt+/EuDGj+IrXnbv2cL7dew+wMW70yCieiMzNzXm5sHbdRsz43VS4urowNmScPHT0OPfxzwePwNLCHCEhAznf3FmP4OiJaHh5uOPqtevw9vRAn95B2PrjDsyfO5uXVzS4aSKku6J/N3UKNv/wI3x8eiEyPJTLLy0txaYftuHZJ59gWwtJ6HlzHuExY21tBQd7ByZw0yXcPQftr5yhXQl89epVJiZ1+N2SoQSW1q/ZGDt6ZENxRERad9Ha6eTpGFal9v98CIMjI3itR7NyWXk5fvfAJGg0Wl775d+6xetYUq1MTXVryupqVpNJknt4uPMaiFTF6NMxrOr6+HgjIjQUJ07HwMvTA769vPHT/p9Zfb+RkQHSBpQKBQYNGAAvT3eWKjSpWFtbY8yokSADHKWIsBD8fOgIAvz94O7miqPHTkKlVvGEo0+xsfHIzs3FtKkP8No6Ne0ajI2MmIzOTo6craa2lpcFRJrKyipuO6ni1F5S5S0sLeHs6Ij+wX2RnnETsfEJGDd6JOzsbHD16jWcv3iJ6xvctw+vH6UBXMb1njxxPK5du8GDnQj48+EjrHWQBKNJg3BtakgkAq/dsBFhgwbxxEiTBEnNvQcOYmB/aa34074DmDBuLGOfcP4CtBoNT2J+fr7IzLyJuITzCB00gPE6duIkampqWTpGRoQ34EISkkhF5dHkl5CYCEd7e9ZAxowcgfMXLsHL04379GxsAiaOH4P4c4nIzs6BubkZRo8cgRvp6TweSIU+cuwEt0laRmkZR/ps6gOTIdMCx6OjkZWdI/XhyBE8OWdkZmHMqKgOMY62B9fblcAkgb29vduNwC0bSGtsUit9vL1YtSM1kIhwp/V2ewDUk8sgo1HcufOYNG4saxz6RAQmTeLZpx5nFVqk3w6BLkNgvVmfKlxdU8PShKSUTN76WcjfDtLu82aS0Bbm5lAomxslqS8kJ/o7Gyu7DwqduyVdhsB3hbHhVm+dq0QrThuGdkPT/T+ydDS/Prz1UnT3jPOX0vP0W8srzQ2tgcgnEDAcgW5B4KYb9FlZ2WxEc3JyvK+IIfqyaHuH9jv1Rq97QdpIfCDh3Dl4enrA2cnpXo+J7wUCvwiBdifwvazQNNBpu8kQK7S+ZVIl9apyE39DXQayGpJxgrYldu/dDwc7OwwZHHHb2rh5OdLDTclPThyUhg2JZEtzRWUlW3Yp3e1Zdgo4cgwWVpa875tw7jxbRR11Bqg7Pcty+hdoC7+o58XD3QKBdiVwQUEBe2GRhfhOA5P2K8nTiYh+r1RRUcmW34qKcoQMHMjeVrRHSVsa9XV1TNZJ48dh/aYtvE4bMWwY0jMzYWFmhpy8PHZX/N2DD7Ayu/unfSgqLsbg8HDeJ96x+yf2tiJrrYebGxN+7YZNbLkOGdCft6IqKquYzLSVQZZTD3c33kaqq63Fjt17UVVdhQH9gtGnTyBvodAkM3RwJDs2hIcORC9vb/x88DBycvPh4e6KiRPG4vyFyyguLuGtjbr6ejzyEG3v3NnX+14Yie97NgLtSmCSROQhRdsad3KlpC0mW1vbe1qqqVvIa6i0rJy3MX74cSfmz3kUq77fwM4NdXX12LjlBzz1+EJs2rKNHQGIhOQeR2555OWzY9cezJ39CBIvXEJVdTUiw0Kxc88+dsY4cuw4nBwc4O/nhz379uPZp57AgUOHmey0lUKueWUVFXB3dcGZ2Hh2BKCtIX8/H3aGoD1ppUKJg0eOch3I24lcKkeNGMaWctqWImeSM3EJeHDyRBw7eYonAPJISklOxZgxI3lbaNTIKHZeEEkgcD8ItCuB76cCd3vmxo0Mdnck0xRtzM99dCbWb9qKZ55ahLraOt6EJ2+gzT9sY3/mIZEROhXaFkOHDMbqtevZf/dsXBxKysrZEYHKItc42h8eMWwIP/f18hV4fOE8/ow02nFjRiMm5ixKKyrYCksufI8+/BA0GjXbpm5mZiMuIYE9lAqLS7D42afYIYE2/2mv+ZsVqxE1fAjy8m+xD+6DUybi6PFoFBYVwcPdHSUlJbz3SlqAj5cnBg4c0N7QifJ6CAKdmsBECidHB/Tr25t9oBfMeRSbtvyIEVFDWbrFxMbh+aefxA/bdsDKyhLjx45mZwIHuyYEHjOKHdxJtSevqOjTZ9G3b28cOHj4NgKfPhPL5CL/XzoIQAR2d3NDzNmz7MK4fcceBAUFsB/10MhIGBkbsRR9/pknsXvvPva0o31p8kIiCazWqBEdHYOF8+dh+67d7LerUCoFgXsIuX6NZnZqAufl57Nnkqe7G/JvFbBaTA4c5CPt5+vDnk+jR43g9SSpyeTJU1JSxqpsgL8vHywgd0ILC3OcO5eIgsIitiqTYzqRP8jfH/YODjh85ChGDB+G+vo69i12cnLgPebqmlp2z7t0JYk9erw9PTGgfz9+R2xcPNw93LgO5CpI61o6keTt7YHMm9l8qsbJ0REXL11mry1PT3d2uUzPyGR1fkBwP/YacnKwM8ge8GsMBvGOrodApyZwSzjvdi638TtaxUrnhO9kSGv6XbN933tYhRu3mxvLltb6Mt3e7+2W7bvVo+sNF1HjzoZAlyIwg9cQ1KJ1h4k7Eeb2zafbu+LuB8JpUiC3Di0fkmhMUsmN79WfWGnpyNFA/2ZOHoLgnY0SXas+XY/AXQtfUVuBQIciIAjcofCKwgUCHYtAmwlMKp9WqxZXq3Rsv4jSBQIGISAIbBBMIpNAoHMi0GYCUzP0txN2ziaJWgkEegoCdDuhGkpl6664rd+NpAXUahU0WrVwxO8p40S0sxMjIL9jlNc73g8sTtB04v4UVRMI6BC44+2EAiGBgECg8yMgCNz5+0jUUCBwRwQEgcXgEAh0YQQEgbtw54mqCwQEgcUYEAh0YQQEgbtw54mqCwQEgcUYEAh0YQQEgbtw54mqCwQEgcUYEAh0YQQEgbtw54mqCwQEgcUYEAh0YQQEgbtw54mqCwQEgcUYEAh0YQQEgbtw54mqCwQEgcUYEAh0YQQEgbtw54mqCwTalcCdMf4x10nXz/Tb/d/0qQ9WLYV8bnrht6HD6H6eaVY2V8GQ6NcG1KidiuE3tR4O24BKiCy/FIF2JzBd3UlBuPTJSKn8TS+yr62t40u86SpRE7ris2UsdgMRpDGqVqtRXlEJOxvrxkFr4PPl5RUoq6iEh6vLfdeBXlVWXgkTE2O+FuZ+JyMqg65/dXF2NLD2d85WVV0DtVoDczMTlJVXwMbaSkQz/cWoGl5AuxKYXpt67QbSb2ZDRqFpAb6Ie1D/PpDL+L4DKcZWs4sNmv6huwGh2b0GrczwLaRHU8nGpfFVKNKF3Uejz/BVob0DfWFrY9MgOpnHt0m0JgXf9g4tk/dsQiLGjxrOz1ILqT369zd/hP6iC8ulK2By8m4h71YBQgf0BbQyHYmleupvg9DKpFsh+O9WJhqajKLPxCFqSCSMjZXNe7ll1fkduvI1Wu4Xar+zoz2y8/JRUlqOfkF+0g0U+i6gEqVba6RfdM9LdWT9pVED0LU/+ep1vp1xYHBfnIyJRb/eAXB2dDB8BIqcvwiB9idw2g3cKizEoOC+qFepcP5SEny8PNDLywPFJWUoKi6BpaUFXHSdTJeA5RcUQaGQw9XFCSSx6+tVyM7N54a5utAlZBSRT4acvHy+NMzR3g62NtaoqalFQVEx7G2tkZNfCFtrK9jb2TQE4su4mcMD19PNBZ4ebjAzNUV2bh5qa+vhaG8La2tLJiUNQHMzc5YgXu6uDRKyuLgUxWVlfJm4s5MD5z0Tfx4jh0UiMzsXjnZUDyse8HkFhaisrIS1lRUcHew4L11eTleXlpZXwMrKnC9Sc3VyRHZOPqysLPjaUhMjI7i5OjM5SsvLUVRSCmcHBxSVlMDFyRHGxkYNHRx3/hKMjZQY0Lc3c6ywuBilpdJFb1QupZu5ebCxskRJaRkUCgXcXJwY94tJKbCytIC3hztPpnX1Krg4OUClViMrJxdqjYbfR229VVSsm+gA0hzo4nLSXjRqDZOf+tXZwR4W5mZI0hE4fFAwklKvo7yyEpGDBvwiLeMXjege9nCHELiguBjDIkJ5UJw6mwB3F2fYWFsi8VISXF1d+OpNRwd7+PfyxtlzibC0sGBi0iwfNjAYp+POwd7WBqSO02AJ6d8XFy4no6KyigmSd+sWTxByuRznLlyCnZ0d3+tLpBk1NFJS4WRA0tVryMrOYS2A7ui9cTOL1WlLC3MUFpUgZEA/lJaV4UbGTZibm/MA7xNAUklSVePOS7cmEhlocNvYWCE2/jycnRxZbaRbFIdEhKC0tBzpN7NYfaT7goP7BqKmpg5pNzJ4kFtZWMLISIGCohJEhA7AidOxMDczhbGxMU92IcH9IFfIkXDhEhxsbUELELoJcUhYCCwtzXlIEtHouQDfXvB0c0VO/i0kpaaxtKN60AXpfYP8cTQ6BibGJvxemiBIZaebG1PTrsPU1JQnKJqoKiorMah/P8SeuwAjpRGUSjlfdk7vTE67xpeu21pZo6S8nElNmsO5i0k69VjLZYwYGgG9BA4f2J/vZybMRg0bDCOjFhpCDyPWr9XcDiFwZnYOTE1NUFNby1IgYtAAJF+9xoO+l5c7SLKROhk1OBwqtQZ19bU8YCjP8MEROEMEtrODp4cLSzBSU6Nj4tAn0B8uzg6IiUtkieDt6YbEi8kYPiSM8xw7dQaDQwexdKNEKufJM3EI6d+PJVlM7DkMjQyFubkZzl+43CCFSOUfOTRS0iZ1+jCRMu78Rfj7eMPJ0Q7mpmYsXUiFpkmCBuix07EI8vdlSUbaQG1dHa6kpsHOxoYJdD3jplQugLQb6Q0EPhkTh0DfXjwpHImOgZ+PN2sdNDENjwhDTW0dTsXGNyNwXV09TpyJw8C+QayBHD11Fm7OTvx+wvJSUgpGDI3EqdgEeLu7wdfHE8lXb0iTTPggnkhJw/Hr5YWklDRUVFXB19uTJ8bhg8NZsp88E88TQlVNDcciJqmam38Ll5OvYtyIYfxZbV0tT6QXriRz26iNpMGED+rP/Xv45GkMDRvEWpZIHY9AhxA4v7AIYQP74XTsOTja22NA3yDEnr8AuVyhM+JoIZfJYWJihITEy/Bwd4NCLse19AyMHi5dmk1qZlZeHqtyQ8NDQIO+X+9AODnYIz7xEq/FSKrSABwWGQalQsGDJyJ0IKuQLQlMhDsTn4jhg0NhamKCi0mpLIXcXJyRk5uPYZGhEnl163T6nYxOWVm5yCsogJWVFYL8euFsvG4NLAOOnzqLQCZQIWpqquHh6oqMrCzY2dqylM/MyuFyST1uRuDTsTwZOTna48jJGPj28oaqvg65+QUYHhmG6tpanI5NuI3AJ8/Eon/f3nCyt8fhE6fh7eXOWkxBUREvVUgi0nNUHpGYNID8gkIMjQjBqbPxcHF2hr9PI4FpWXM5KZXfSReZnz6bAFtbG56IqP0hwX1YnSaMo4ZEICY2AQ4O9rA0N8fV6zd4wrientlAYCL4kZOnMSQiFJbmZiKmeMfzF+1MYC1S0zJ4QJEKTSrcuUuXETFwAHcydbqfjw8qKiqg0WrhYG+LK8lpCPDrxetgWh9HDQ7D5ZSrLAlonUYXadOaMzYhkW++J+lDZOgT4A8zMxNWy0mCEIEPnTiNSCKwdSOBT8TEInRAP1ZvaUIhazStnzNuZqN3gB9LaVpbD4sIaXalaHFpGa7fyISHmyuyc3NRXVuH/r0DJSPWaDJiaXH8dCwC/XyRev0GrCzMWZW/diMDrs6OrDnczMnF8MhQ7sa06+lMBqrfiZg49A3wYwITEUkC0/qdJiZba2vI5DLGYnBYCKxaqNCkEXi6u+JaeiZuZueybSEvv4DJEhk6AMdOnWULNZWdm3cL1tZWvGYm8pGaTu+6VVCMisoKDOzXB9FnSerSWluJm1k5iAgdxBMpLV9IbS4oLGaMB4cPQkzceZbgRHB6tySBM1BZWYPwkGDpYvbES0KF/hWIq39F+xJYC+Tm57PkCvT3A7QaVoutLC3ZmJKemY3S8jKWgP4+vaBUKnDthnSbPa01b2bnsJQtKStDVk4eq57uLi5M9Nr6Os5LhCMykvSpqqpuICJJ9EvJKfD37cXrS0qkltL7yYhG62waeKnX06FWqWBnawNvT3fcKizigRfk59OMwGTBJvWQ1tW0HAj09eHn067fwIC+fbh8UpdJjTUyMuJBb25uChnkrK6bmZqwytw7wJfzknQtr6hglZzq5O7qAmsrS1xOToWToyMb4mjSoEnLysICZxPOs2SkCUefEi5c5jXooOA+bGG/ln6TtQgzExME+vuwVnP0FEl0L5SVVUAhV8Df15vVfVqzkrHK2tIKMjl4jU7fUfuonVqNllV6VxdHpGdmsQQm3KgvabIL7hOE7Jw8FBYVwdHBgQ1ofQMDWDuhPvHz8cKl5KuoqalB2MD+kLXXfvWvSIau+Kr2JXBXRKCT1JkMZSS9bKyteZ1Jajepvk1vyKirr+elBBGb9oJbS0dPnUEff8lW8GsmMjaSZjGgTxBb4UX6dRAQBP51cL77W3hPlYxukiGMSEtbXrdZcrVaVFZXs8QnNbm1RFtXJiYmv7oVmDSCysoq1nRoCdAZvfI6Q1e3dx0Egdsb0fYqr5mzi1Sowd6PBmdsr8qKcn4rBASBfyvkxXsFAu2AgCBwO4AoihAI/FYICAL/VsiL9woE2gEBQeB2AFEUIRD4rRAQBP6tkBfvFQi0AwKCwO0AoihCIPBbIdDuBGY3yYYD/dLhUqVSyad9Ovve4N3qp//u8uXL6N27N3s5NQ0OYGjbCJuLFy9gwICB3OdNHTXaMggyMjLh5OQAMzPptJJIPROBdiUwRazYuHEDn4utrJSIbGlpBRcXF8yY8dAvIvCdCGIocdqre3fs2I4JEybe94SkUqnw2Wef4o033mLy3i+Bf/rpJ4SGhsDV1a29mtZu5TTtk1u38pGWloahQ4e1W/mioEYE2pXA0mkeyYsgPj6eT+hERY1oOOVTX1/PbyZPotYGLhGefGnNzBpPsuhPCFVVVfHnfNZXl2jCIO8lku76RPnphz6n8693eg8Ric7jUmr6DipLirIhRdtoWq7+d/339Le+Tfqy9OXV1dWxR1TLciQC/xtvvPEmP0vPNX0PtYl+WpZH2DR8rgV+2ksEDoWrq2tDG1qrL+FA9Wj6HZXVEh+qJ2FP76UjoE3bTZ83xbJpm1prH7VR/87U1BRER5/EokVP3PdkJQh7ZwTalcBNXxMfH8dxl4jANFjWrl0DDw8PHoQFBQV4/PEnmtUqOjoaV6+molevXrhy5QqmTZsOB3sHLPnvEg4C4O3tjUuXLmHMmDHo06cv9u7di1u3bsHZ2YmfW7hwEUv+1atXsnpKg/DatTQ8//xijvZBkwoNNpKg5GdsaWXJ73nqqadx48YNnDh+HH369kFSUhJGjx6NjIwM+Pn5wc/PH2Vlpfjss8/w7rvvYf36dXjiiSexf99+ZGXfhKenF0pLSvgAw7TpM7jMgwcPYNCgED6Un5x8Ba+++nsmACW9BA4ICIS9vT3Onz+PsWPHITg4GJs2boSZuRlPVDdvZuKJJ57GqehoJF5IhJ+fL7ePSD979hz8tOcnhIaFwMLCEj/8sBkPPjgNThyVQ5p00tMzcOjQz/D19cHVq2kYP34CfHx8sX//PhQVFbFWRPjMnTuP81P/BAYGobi4iE9VUf59+/bx3y4urkhOTsKcOXOgVmlwMvoEpk+fwc+tWrUSI0bQJA2cPHmCJxQ6ZFJaWsykJbwzMtIRGhqGESNGinhZ7Twb/SoETkiI5wEwe/Y8Dueyc9cO+PsHoF+/ftwcGpj//OdHeP31t2BjY42cnFxs3rwJzz77PD7//N947bU3eEZPS7vKg5I+//rrr/D0089wNImDhw7AysoaXl7eWLlyBd5++13+/IetmzFx4mRYW1uzZkAHzv/zn39j2rQZCAwIRHZOFpycnFFeXg5TE1OYW5ghLi4eN29mYPTocfjpp92YN28+k5oIPWniJHy3cgWefPIpJrCpmQlGjRoNkrZU7u9//waWLfsaTz75DMfhIvVxxXff4rVXX4ep7lSRnsBz586Hp6cH+w/TpPP8c4uRnZMNdzcPPutMEwWR6/Tp0ygqLODJgcj5xRf/wfPPv4CDBw8iKCgIsbFnETV8BDy9PJtJ+8LCQpiZmvGEQBMdlTN8+HCsW7cWr7zyKmQyObeJJrXo6BPo3bsPwsLCOWzOqdOnEBQYhO/XrcWrr7zGxxATE88jISEBU6c+yESlJZFE4O8QFTWSCRwXdxbz5s7j6CH/+tc/8eKLLyM3Nwc0ObecsNt5HPfY4jqcwMOHR+Hw4UM8mIYNH8YdfS4hAfn5+Zg8ZQoDTxL5yy8/x5/+9AHP0GQII0K88srvse77tXhh8WLOR2r08uXL8OLil/DxPz7k9bVeyw0JCUNgYCCvwV9//Q3Ov3//foQMCoWzi1ODmknSYM+e3UyGyMhIlgx5efk4cuQgCgoKUVdXA3//QJYwX375BUvoAwcOYMaMGVy3lSu/ayCwu4c7+vfvz1L1888/YxIuXfYVXn/9TX4fnan95JOP8dprr7eQwET219m4RxMLSfcXX3wJiYmJOHcuge0HNKnRRHQm5gwHOBg1ahSXuXTp11i4YBGOHT+KS5cuwNPTE7Menc1npZuqsyRlDxzYzzhTuCFv715c1+PHj3Ob9InU6X//+1+YM3uubhKQDGvSZHkIzz7zHAv17OxsbNiwDgsWPIZTp6Lx0EMzuQiaMEmyUr/m5uZi5MiR/Pl//vMZ45SXl8sEXrTocaFCd8A00+EEJhX67NkzIKvpI488wk0gFdPe3oHJQ6m8rBz/+vSfeOedd9mqWlxcjBUrvsFLL72KJUs+x5tvvs1qL6msO3bswAsvvIBly5axBNYnIhcNoHsRmAYnDdq62jp88+1yrtOe3bsxd958JhlJNBqsM2c+jOPHj8HY2AQXLpzHMzSQAXz3XaMEbkngFxe/jLXfr2Hp5OjoyKr5pk0bWiHwpzy4HRwceeDT5DV9+nRs374dL7ywGAq5EqvXrMTChY/hzJkzvOxojcBEyMuXLvHxQ1py6Ne51L5PP/0Ec2bPg7u7O3Jyc7gPSAJv2bKZJSPlJZxpebNv30+IjByCfv2CodVqkJqaCktLS2zduqUhb0pKCo4ePQzSHGj5Mnv2bJ4wli9finHjxt+FwHm6NbAgcAfwt70jcjRWsekamKQJrbFoTUmDKzOT1ndP8YF+SjQQjh49guzsLHh6erO6PW7sOHh4eOLLJZ/Dzc2d18a0/TJsWBQGDhyIH3/cxkYXWldfuHBBJyEVrRPY2YmlCBFhzZrVTC5bW1vExsayNDpy5DDUahVsbGyRlZXFUR4ffvgRHtxfffUlIiOHIioqqpHATzzF0r0lgRcvfhmlpSXYtm0bx90ilf7s2ZhWCUxrYCLwlSuXWXUNCAjAt98u59/pSCBpCs899/xdJTAZsRwcHLB16w9sFxg0aFADntu2beX1srOzM6/FSVMhqblr105W+R0dnZCSkoxZs2Zxn2zatJHLKC0t5fX8lClTOS+VQfVMSrqM6dMfgpubG5YtW8p9SQETSAuYMUOSxq1JYHoXTXqDBw9h6dzUCNkRA7qnldlhErikpJgNHjTAiDwUlO3KlUs88/fu3bfVA+kksUid9vL0gourC0eQpPUhqV+XL19iIpNE0ZOetidowJHqbG1ljeqaajb+kDGGJgVSH21sbBrUV/1zycnJqKurRVBQb/5OVa9CSmoKSx93dw9UVVXy/1TXa9eu8SRBa3BKVMdevXyQn58LU1MzLp8IQIY0f78AjlhBcaUoFG5VdSWWLPmSCdzU4k2WWQ93T34nTSQ+Pj78LlqLE6mI+DTwqa1kRCJV3MnJidt0/fo1eHv7oKDgFj9L9aKJ7Pr1NPTpLUW3lJIW1E5a9xM+t/Lz4e7hAY1azRKWAg7Se8k+QO+miSct7Rq3x9fXt8EST3lJpff18YOdvXRQn4x2V9OuwtnJmSOPOpImweeZa3hypD9Sr6Zy+bTjkJeXx6p0//4DBIHbeYbpMAJLY0gKBN48KLg+tvrtWzSSCkin2zm8OYdqWbt2NZ555tmGQam3JktrX10Zdzn/ets+cUPeFmHYmwS00xNdeoPuHfpXafWRd1p/aXJSMnbu2s6TCE0mfn4BmDLlgWaB2hvr1FiGhBGFw9UHe2++jaWvU2N9dEHwddtdre2H333vvLEfmudreRC5+Xv040+/9dYs2HvTwdkksHzzQP7tPIJ7eHEdS+BfCC5JNjJoSVbkrpPKyspY/SbpQxKNJ4L7vQel6zRb1PQ3QKBTE/g3wKNdX6mXbL+2t1i7NkIU1qkREATu1N0jKicQuDsCgsBihAgEujAC7UtgnSHovu+97MJAiqoLBH4LBNqXwGwqbXk36G/RLPFOgUDPQKBdCUwXfMUlXuI7bkUSCAgEbkcgbFB/vpmkvVK7Eri9KiXKEQgIBAxDQBDYMJxELoFAp0RAELhTdouolEDAMAQEgQ3DSeQSCHRKBASBO2W3iEoJBAxDQBDYMJxELoFAp0RAELhTdouolEDAMAQEgQ3DSeQSCHRKBASBO2W3iEoJBAxDQBDYMJxELoFAp0RAELhTdouolEDAMAQEgQ3DSeQSCHRKBASBO2W3iEoJBAxDQBDYMJxELoFAp0RAELhTdouolEDAMAQEgQ3DSeQSCHRKBASBO2W3iEoJBAxDQBDYMJxELoFAp0RAELhTdouolEDAMAQEgQ3DSeQSCHRKBASBO2W3iEoJBAxDQBDYMJxELoFAp0RAELhTdouolEDAMAQEgQ3DSeQSCHRKBASBO3lI2mkAACAASURBVGW3iEoJBAxDQBDYMJxELoFAp0RAELhTdouolEDAMAQEgQ3DSeQSCHRKBASBO2W3iEoJBAxDQBDYMJxELoFAp0RAELhTdouolEDAMAQEgQ3DSeQSCHRKBASBO2W3iEoJBAxDQBDYMJxELoFAp0RAELhTdouolEDAMAQ6lMBarRZKpREsLSwgl8sNq5HIJRDo4ghooYVWo0VFZQXUanWHtqZDCUw1nzJlEnx8ekEmEwTu0J4UhXcqBEh43bhxA/v2HQD93lGpQwlMUnfevLmwtrbqqPqLcgUCnRaBsrJyrF+/ARqNpsPq2KEElslkWLBgHqysBIE7rAdFwZ0WgfLycqxb14UJTBJ4/vy5gsCddoiJinUkAoLAHYmuKFsg0MEICAJ3MMCieIFARyLwGxNYC2hluvbprGgy/d+GNVsul2H+fLEGNgwtkau7IXBfBCbaQQuyH4FoJ+N/7gjNHY1YbPnmwsiCRoXJdIUZDjMReOHC+WINbDhkImc3QoAIvHbt+vu0Qmshg5ypdze52UhgHdGJuLQJzfzVangPi/6XpLH2bpPBbdCTEevxxxeJbaRuNChFUwxHgLaRVq1abTiB9dvFMhlLYP6BHJIPlAwy+e3SuJkEJvJqNFpoNGrdjwZqtQZajYbFels3pInAzz//LGxsbAxvtcgpEOgmCJSWlmLp0uWGE5hIShKXSSuDXKFgD0aFXPpfJpe+b5pkS5Z8pSWeE7cl8qqgUqlQX1sDjboexqbmMDMxhsJIKUlgmgtkCkmjZtWaPiGC63+XdHj6Uy5XYN5csY3UTcajaEYbESAVeuOGddA02JJYrYVWo4ZMrpBWpvwPq72SlCWPRRnYBbOmuhoqtRYKhRJKIyUUMoVEYmaitE5mCUzParQaaNQa1NfXo66+FgqFAlZW5MOse4FuUa3Vkm+nFlDVQaY04hfT+2VypaRqk7ynv2VynkHmzhVGrDb2u8jeTRBgAm/cqJPAEnElVVjvVixxizglk0kCUlKSSZBqWADS31VVNaz9KhVGUCgVLDj1nslMYI1aywQm8tbW1jD7HR3tJduXAZZnrgDlJQJTyVxRQK5QYu78BbCysu4mXSKaIRAwHIHyCpLAG6FW1UmGYFKDJR2Wiath3kiEbi6JiUY6kvOyVo2KyhpJEiuNoGB1WqqH7L9LvtaS6qxSE3nrUFNTzeRVKpXS7GBQfen1t+ckvX3OXGGFNghCkanbIUASeP26tdDSIpVJqt/IaaJG64UkEVqjZqkryWCJUyR5SZvVaLWoKK+GsTFJYaWkGVPOJURgtRb1qjrUVNegXlULV1dnHZgyAwxXunVxKwSmF8+dJwjc7UamaJBBCFRUVGDDhia+0GwlVkvLTJ0IlUxIksbK62LWZPlDXpLy0pQ/06K8vIIlsFJhDLlCZ/Ba8uXXWrVGjfq6OlRVV0Glqoersz3kciM2aDWq0LoFNs0Lui3hhq1hmRayhiNTWmjZ/K1ly9mcuaRCi8MMBvW4yNStEGhYA6tpG1bayZGMVJL01Bmf2DAlfaYzT9HpJd3fZKji3R+NCmUVNVAqlDAyNoKcDVosgb/SqlUa1NbVoKqyite/7m5OXADPAFQm7wvT7wpoNfWAfsGtqYWm9hrkJiqU1VagtMoL1pfOwWbIeGhqVTC2tsbcxx4XBO5Ww1I0xlAEiMAbNqyHWqWSAlo0nIknFZqszmz9bTwrr/e54D1gaZErkZyMwwqUlpVDIVfC2NiYjcy85dSUwCTyaT3s4eHaUEcZWZ2bGrJ0inz9rWTUZMZAaeMIpVsFoKmGTDsM1em50NamQ1NnivJe4/H666/A3rbt+8A868hkbFgj9cHI2JjrVFdbi5ycHLi5ucHExMRQLG/LV1tbiw//70NMm/Y7hEdE3Hc54kGBwJ0QYAKvX8drYL03JI9rtjo3J3SDkNStgdkirTtHLJFZi+KSMlahjY1NoFAQ8WWNBK6prUZlZSWbrz083BrqRC+Usz+mlDR1GlSl5EFdtBWQ1/AkYurvD60mk902tWoFqjNqoLD1wp6KIVj9j7fg6eJwX7389Vdf47sV37Jxe8rUB/D//vRHpCYnY+ZDM7Fp82aEhIbcV7n0UG5uLoYPHYYXX3wRb73z9n2XIx4UCNyVwBs26OxIOkLSYFYo2frMMor9ldWSFVpOW0RN94qJuHJpmwkylJSWsyXa2OSuBFbDw8O9kcBchC6igBYo3HcF1Um5MLa/CGOfOuTXylFtbwx7Kw2czaVdrKorjqjNcIRxPxe88NkHsLV1aXMvnz51Co8tfAzPPvcsnJyc8fFHH+H1N17H8KgoPDR9BjZu3gSSotVVVRgzZixvdFMiJ5TDhw/z70OHDkVcbBz6D+jPanz0yWj07dcXuTk5cHVzw8kTJxEWFgo3d3ecij6FAQMHIDMjAwWFhRg9ejSrKvoyT5w4gcryCgyPGo5z587Du5c3/P3929wu8UDPQUBy5NgIsjGx1CXf5iax4SQXZWlp2qDl6tyXG9Vtjc4nWoaSklKJwHeXwGq4uzrq9HU5WIUmsa7VQKXKQ8m5BBTFK5DqZA2lbQbMbEpgZW4HCxMb+NioIVOX4dYGGdTFZtCaqfDmyZWwc/O4y3mK1jt0zerV+PMf/4SVq1chasQIXLl8GZZWVqgor8CM6dPh7e3NM1tWVhZCQ0Oxas1qVFdXY/68+bielgZbOztYWlki/UY6vl76NfoPGMASd9y4sTh27Bi++vprPPvMs/jjn/6ICRMnYfTIkQgJCUFhYQGKCovg7OyMbTu2w8TUFG+98SZ279oFV1dXdgtNTk7Giy8uxlvvvNNzRqNoaZsR0KvQtD1EdiNpJSpps5J6TNtLeuMVu0LqDF1kjZbOITQ1ehlMYA8358YZgQol1y5VLTIKNsJYXo0LefbIqh0LLQoxvpcWvk59QH7WNFeQSlCVcgvF2+NQppTh3RPfwdXFQXK7bEOite+UyZOZgD69euGPf/4zRoyIwpUrVzBj+gz85a9/xcLHFmL/vn144fkXsHHTRly7dg1/+MMf8P369RgcGYklXy7Bp//6F5YtX8YEHjZ0GLw8PbH2+7WwsLBAZEQkE3jixEkYOXIkpj4wBV/+978sjRfMn4/NP2xBYUEBFr+wGH/7298wf+EC/LDlB7zz9tuCwG3oy56aVSLwhsYTfawdSyozyIpMwLCHo+7AkN54RVJYo+VtpSbLZ8MkMLl7NRixdIcfyLB1vfgaDqQchJFMC9dKOfJkwxDS2xsDnUwl/0y9G6VGxbq9qjQPeeX78PI7e+Bi7yadb2xjIgBSUlIYhB+3bcNLL7+MCRPGM4E3b9mCsPAwZGZmYsK48Vi6bBkOHz7EBDsVc5pV5rS0NEyZNBlfff1VgwT++//+HfMXLEBhYSEiwyMaCDxq5EjON2nyZDaSjRgehX99+i+W8N9+8y0Szp/j2peUlCAsJLSBwNIs2Xy/XN9W/XdtbLbI3k0Q0G8jcWhZGv9qlTRWyPKs245lsuh8oyVvLBUvWhvdLSUwaB1cWlIOxb2MWERgd3edI4f+cDGA2JuxOJ+TCG2NBoNSy2Bl64iAhx5jty7pBU1OGvJ2lhrqyh+w8Nl1sLZtuwodHR2N/fv244XFL8DewQGTJ0yEn78fXn/9DUyfNg0/bN2K0LBQ3My8iQnjx7OanJp6FZ/885/YsXMHgnr3ZrX31VdebZDApEJ/+umneOjhmawmR4SHNyMwTQITJk5AXl4eq9uffPIJe8C8/957WL9hAyIiI3gdvXDBAibwm2+/zcYwsogTWek5FxcXNgZSsrS07CZDUTTjfhCQtpE2sA90w0TPcldywpB8o3VukyyFm6vMEq/0Bx2A0rIKw9bAHm4uks8Xy29Jch5OO44LOUkw02owPqsMDl5BsB7+u7tGC9DWxWHBE3+DlU3bCZybk4sHpkyBk5MT+vTti3179+L9//kfhEeE46Fp07GlKYHHjcPXy5byuvjhmQ9DrVbxM1dTUkFnMpcuX4rg/v0RNWw4E3jGzIdQVFTUIIEnTJyI0SNHYdmyZRg/cQKTkvL+85N/skSeMW06x/gdMnQo0q9fR05uLl566UX0Cw7Gyy+9jO07diAuPg5/+8tfsWv3bj6B5ePjg23bf7wvzeN+Bot4pvMhwBJ4/Xo2YjWuZXX+FezYQZZn0l51BxrkRs0bofuc1W2ZwUYsFdzdXKBV1UKmUEIuI1cuDa7mnkBGUTIUZWqE2NfBwi4QcsfJdx2gqYUpeOuFd+Hm4N6mQAD6c8dFRYVY9/065OfnY87cuejXrx///v3332PevHlwd3cHnblcsWIFZsyYAT8/PzZyffnFFzzxLFi4AJs3b8aM6dPg7OKKpUuX4oEHHuByampqsGTJEowdOxYBAQFYvnw5HnroIbYs035407yVVVX4ZtlyFBQUYNHjizB54iS88srLePLpp7F82TK88eabKC4uxurVq/Haa69h546dMLe0wKSJEwWBOx+vfrUaNewDN7H/SF5VuuOEbMzSqdf6LSR97fh4IXk1koYrWZAMNmK5kxGriWsk/X4jLxY3889DW6pCsIMK5iY2MPGdzzq7jGYOmZwX3tKJC0mf3pW0D8v/33K4OTXuK/9q6DV70d3jCt2tTrQefvXlVzBr9mw8OutRHDt6FE89+RRWrV6FkaNG/TbNEW/tEgg0P06oIyupyQrpYAPU+nPBjSePmLS0tcRrZCkqh6RKa1BaUnbvNTCZvJnATRK9rLAkFRk5h2CjUcFFrkLVVQ3MfMfCKnigzjSu5UU6FEbQquqQWZGPfenHsPN/t8Hd8bcm8P33N82YH/z5A6xdswYODg5sxIocPBgrvlvxizzB7r9G4smugkB5RQU2btjAUW0aPRqJvLT/qxd2jcZddthgWSNJXck1Wm+hBkpLaQ2sgLGx6d08sW4nsDQFVENV8j002jqgTouCQ1XQ1tnCcexDMPawBcg3U3ck+Va1CjtTDqG6vhD7/rEVHl2YwPrBcqugAOfiE+Dl5YneffoI1birsOg3rKfkyEEEruMD+2RS0rIlmtwgpYgcusiRbGWmta4+STsbaj6HwB5atAYuJglMBL6rJ5YKri6OUOi2RljU68LnaGrPQVV9GjKtDEUnqlCXawy5PBRG1uZQOVgg3dwYt1ztUFqnQV19MWpqYrH34w3wcGz07PoN8RSvFgj8qgg0XQPrDyXw9lDTo4REUrY+055vE6mrprPBTf2lDV0Dq+vh5uYEmf60BHlhkWospwP+NVBV7oFWVYCqpBqUJ5DId0RKnSduqWTIMwVktuYwH+ALmZkxFDINtvy/l+HueH++0L8q2uJlAoF2RqBhDayqlw7zNzlK2HhYgUhLEln3cvbGouOEktRtmoqLSznQxr1dKVusgRvEukYFjaYGqpJ9qIjNAGo1uHVLg4tl3qgzcsMtSBU1CXSHiY8zbUdj8x9ehIezIHA7jw1RXBdAQJLAa6HR6CJy6JwlpG2jRpJKH0vRX3lbqYkqLRmTpfy8Br6XI0drRqxGrDSQcwA8NWqunkZdegIyC1RIueUGtdITeeo6aGSAkY8LzALd4G5uhOXvvgg7G2uxZuwCA05UsX0R0K+B+XpRlqaNge0kCdtE6uqib7T0OKbIsLxmlit120j3XAPTYQadFVoXy51fo7OI0exx9ORJmJuZoX9AL2grCpGUXI/iIjVqNCrIrIzRK9gDtpYKJJ45jaXLl8PFpfF8cftCJEoTCHReBJq6Ukrxrejkkd7CrA8nS8Yraa2rj0jJJwx5H1gf3E5iumH7wLQGdraFTGHcEKuWX8AiXwa1qh6Hj55AWVkZCouKMCCYnCJqYW9ni9qaGlTVVPNRvYuXLqO0pJQ9k5yd236csPN2i6iZQMAwBCiGFUXkoNBUvD2kj3mlP41Exis2VOn2eqnYhiOG+s8b18EGElgFT1dH6WoViolF/9OGMnmMKJRs0FJrNCgpq8D58+dxJSUNC+fORvSZsygoKGTrNXk2kacT1evf//mCj+aJJBDoaQg0rIEpKiXv6ujiTerCL0vOGjrHJ13AdyKNFNyuqforIWcwgT2IwOSmeZcjgOTgQOvlzJtZuH4jAx7urqipr0dWZiaC+/aDk6MtTIyUmP/k87C2bltIHb0r5f2cYOppg0S0t+MQkMI6sQTTxa9q26HYZp5YXBRdWSQdE9QLRr6bgcmrYdfllqkhFK1WheJSKSrlXa3QJHU9XJ0MQkU6PaFfIEuP6MnH+r5ChvkLnoCltU2bTgNr6qtRdeWnBg3AoMqITAKBjkBAC5QdWgrXFzZBYdG23RSWwHQzAx0n5HCykmTV2bMajVr6c8CtHLmVTixJ+8QlpWX3Po0kEdhRZ+aWrklhiuoKp10qndBvIGXjuVf9CSYdkeXAvAWPw9qabmYw/DywIHBHjERR5n0h8EsJvH4da6p6tViSqI3ukQ1GLUn8NdzaIB0jJC+sxgiVhqnQGhXcad9WW69z3tBHkVdCo6qDWivj0LN8e5rcSBdBXu9B0vQqFkn9WPTE00KFvq+RIx76rRFoDxWaglHQtUUNy0GduizFhNXfNthEuOkcOfSeWU3FnkEEvpMKTQfb489dws2sfCnMq5GR7g5TcoOm6w8VfJmZ5OcpyVvyGvnk0w/h5Oj4W/eFeL9A4FdHoGEbida3+oP5Tb2x9AEziDANHljSllJr+mqbCcw3I+lU6OsZN3Hq9DkoFQq+alQpVzSciJDLlXzVA5FYf3saUVihkOGzz/4JRyfHNijQvzrO4oUCgQ5BoCEqJTlj/H/23ju6rus6H/xer+iNAAl2UqQokRTVu1wix4mbHFfZjlsSW+72rJn8yvw7s5JMZvxzHBfZaXZsWXIsieqyrV4oSmJvokgCYAVAdOD1Puvb+5z7LkCQBClZtuT3lmUCD/eee865Z/dv722jOU5xd+sv0oobUrHSSOXTTWZOBFwuFdE1r8W0PNSC0vxsemE7DvUcFcnL/1hYmiUu+UyRvl6PVI2Xni2mKbHf78O3/9c/SFWN2qe2A39sO6BhJGbwGRy0ewOkcSDTCrUnkjYzO52fiGZsRepCnx0LLQTcjErJ2sBleEoFPPvibiFgDhCgBGabQ5/pJG7SnVgfy+v3wWuKdrFW83f/+f9Da2vrOUMpZxaE+30XiHs9Q1uv51h/iETxWt7Va7n3fPbCXZTw9Q5bqgrN5mbVxgi2mZkGb6ogjtnnbqCXEs7yYZKF3c+azGAIWKPOhiMQPvncyzh4sM8Qrk8ImbYvpSwXztQnsYXlZ+0kzmu+/4PvnLME5qayEgbL57B9yooVK7B//34BiITD4fN5T6/pnuPHj2PBggVSF4u1ruyH5XyOHj2Kiy+++Kzjs2Y1S/WQmW3duhWXXnrpOTO1sz5kxgUHDx6UvXN/OA8W33Ov41zG5b18ryxucKYPr2MN7bm+LzpGWSyhubn5d74vM+dN0BGJ7fXWFG0YybZIkZCQTeQnsON0MteRzibNUIhda2KxudmZs5FKBXR1NFcrApjVPvX0Zhw4eFheHomV/9qf1YmlaBNKX/6dBEzi+/4P/gnt7eeuQu/bt0+qPXLsXbt2SZeEiy66SGbDonN8NomKxE4i4jOj0ai8BBI+N4+HoampSa5Pp9NyoHjweA8rR3JMjmMrS7KELIu383d2eGDtaI6Zz+dlnMcffxwXXHAB5s+fL2vds2ePjEUC5jMJL2U5W1amJAPioeQc+Tly5IiMu3r1amzbtg0rV66UzhLd3d2yxv7+fvmdqDVbzZJjc1yC4fk9S+jyZ+5LJBKR8bgOhunIGMhQWKyP+856YcPDw3Id18h/WdOL6yER8zvey8PLtTU2NsrvnDfXwDnZA20L6HNPuCbOj3vJOXPfuR98Lq/n7yRePo//8XqOyTFYdJAfMkR+z/ssgfM7jkeGwznyXXCO3B9btpdr57vm71wj3yW/4/h8Lq/lc7hP/Jd7zzE4Ft8h3y2fx+fw+fyP93CP+Xy+Gw15vj4fK4GlrKwRiLZpmX2CIyeFaE3oyMR9p/UkmzsSq4DODnJBG5ZSKfzEU5tw4ECf6YpmCdh4n0X6KuGSgK0jiyr0j378fXR0nBuUkpvPAu4kQB4kvjRuwpo1a4SYL7/8ctl0Hjg+k9dx49n+hAXaSSDr1q2TMVjojgdq0aJFAv0ksZFwSWxWSrD29NVXX42nn34aS5YskUPBf1nallKfkpPF7p5//nlce+21ztvlvHiQSACsQc1ieRyLh+Kll14SKWuJkUXv+DwyAD6H3SS4Nt5nCYaEyTXccMMNcvC4Zo5zxRVXSNF6/p3f7927Vw4bDybnx3Xy9+3bt2Pt2rVyoElgvIfz5pw4l927d8u6OG8SFxkGGQlb0XDfqBmwHQ1rZnNeV155pRBCX1+frJl7yD3gGkgEZKhkjJyHZSIkcmoqXBMJml0suOcs1M93RubBdZBIuQ52w+CHBEYmx/f12GOPSbFBviPOdcOGDXIN50GmynG5T1zriy++iJtuukmKCnJsrp3zIpFTa+M+cK28h/vOljm8l+OTwDh3EjrXw3W9nmp0tTODCSM5LUT1CHFv2ZiBER5bg04bgc9uDc/RiZVHZ1uDFKpj+Q+tLOvFk08+hwOHjorezkPE7+hlpiNL1WcjeY0UpgQOBgL413+/XSTSuX74cilVeDBIJFu2bJHDykNGTsrF85BQqpAYOCceFr4EHkAeXhIW58bfOQYJkwfd/vzEE0/INXy5vJ+Hj+NxDB4UjsGXT0bBZ/PFk4DtS+aB41hapygoh4UHiS+O0o9EYz+WgFetWoWnnnpKDhKfRybBZ3EM/seDTkZgpRelCdXdF154Qa7jh2uiRCYRkEFYm5rXcE+4Tu4RDzMZGQ85x+Sc+C44JiUR7+c4ZBJcHwnPzpnMjvfywz3nvvF6EjafSWZg3yvnSmlKRsG5kQi553x/3EMyXvshc7UhSDKomQRMYtqxY4cwVK6D7+gd73iH7DnPhB2LTIvvjeOTwfHD67m3b3/72x0C2bx5s6zV7i33n/deZjpSUiBwf0nA/Nvr+ZlZ1M6QrQNqsrkGtgbWmZgHpbMUtZuLCi0SmG5tFepSZfKxx5/D/gM98Pk0/suB1BOtNrAlYDqyNBbskUbE//GTfzlnCcyFUoXmoSBR8MNDxpfHA0T1kAeEkpcHnhKSh4p/u+6660S15eE6dOiQcG++ZL5sHlweSs6ZH3Jo3k8pxEPOQ0M7jFyZz+B4lFh8EVTtSCA8nBzbqu5WleMzeY9Vk3nA3QTMOfIAWqnhJmASBxkHDzwPEq8hIfCAc86UfFbtI6PhWPyO8+czSai8hwff7g3nzb+TQLgmzod7YVVMHmoSHtfy8ssvy96SACkdOT7vsYecktO2dOWecA/4d74bSj0SJN+VZTKcC+fN9ZApUD2nhLVSn+viz5TeHIsffsf5c5/57qnFkHFyvfYazoHPJdPlXLk2EiP3gtKaKjW1HMvorBlE04Jz4HuldH722WeFIfH51lTg/nA8zuv1+sxKwC5VWUwDqVd1Fow1IcsAxtnc7GxYaCYQd7Y3TVsDb/4NCfjVQ/CTgKkqC6FawjUxYYn9Uq1WG5gS+Kf/+W/omHfuEpgvhJvJw8EPbSxKYz6Th5nSwNqzlCz88Du+PB4qXs8DxIPKjaQE5GF19xTmC+bB4n0cw3rLeUj4cvk8rsfafVQ5+TcreawKbw8jiZBz4nh8HhmM+2M1AY5NyUeJwXv4Mw8Z12zVZN5HYuO1XJO1hzlnSlfOi8/nmGROXCeZEQ8wpTAPLOfAw857uT4+h/fbg8sxuB/cKxIjv+f6uAYSnltyuvdEIxEBxxdhGRr3nc/ifDkWx+b7IuHxHj6fv3Mu3Evr47B7xHlwTtx3vmPLHN2tarhf3Deu12ouJEy+A+tY4x5wHpwX7+U+cK/4PN5LYiWD4Hu113Bcjvl6dtNwE7B4u1HWZAZJ0Lf5v6dhF0atduxij8dU5JiLE2seoZSSguwUlX70t0/ilf2HEBCVWdVmsgXH9nUI2hAwkViBAO74xU8x7zwI+PXigrVx5r4DPNiW+EjQPORvtQ+ZnNv2/l2uj5oMW6uwU4jk+Uoiw2lCRxpfqvYSpqlkCt3Z6PDcbOCisYF9PqkabxORH37kMex7tVf68Pq9AQFssPO42r8kaOOFtvawh2GkAO785c9qBPy7PCWv49iUTlY6v56q5Os4xdc8FCUhtS63JvaaBz3NAOLEuuPn6p+SHmKzNxhQW5gS2vQJdmX4ue+YGwEzDtzRgorHoETM5B586LfYu/+QqMUCmWRqlMR8Ne6rBGw90fp9IBDEXf/1c3R21krq/K4OSW3cP9wdOKUzg3VfzZC2knl/FhglVzlHAi6gq51OLAK9TDPiCvDAg7/Bnn0HEAqpR49SV/MUVQpXbWJNSubvRGzdffdd6OyqEfAf7jGrzex3tQOnOLEcu7aqTku1mzlOYG4ETBV6nvFCs+6WelOw8f6HsXv3PgSDBAYQRmlsXQvcMKgt2sQkakrjQMCHjffdfd4S+GyQw9n+bqFx9AbT2TPXz0wIH3+ng4jOIDpg7Ge269zuf/6dqijVNAtScDthZoYK3OPNHHuuc69d94e5A24gB/tna9cUWy7n3Oc8NwIuGRuYBjR1czG6gXvvfQC79uxHMEQCZuxTw0hqmKsUtoSr6jQQDPpx3/33iPfvfD4WLcMYKw+3/c8+S/OSTWMoAwbgtfzY0IG1eeg15bX8nZ5YC/1kiImeR3pyOX8SH0NCjJsy/kkQgvW6WkQQiZPPcRMmn8lx+Rz+nR5VekX5uyVMOlA4Fp/B5/Nf/me/43rs/M9nv2r3/GHtgBvIocXb5yprZ1/HHAmYKnSTC9alceB7Nj6M7bv2IBAIyX8KpdSYsC0TojYwVQK6ySEq9AMPbkRX17kTMAmQxGWJh3FNaEG/9wAAIABJREFUgjkYiiDogM+l15QfBuAJ4iBRMFzAWC/jhCRCEiPHIFHxOoYc6Kjh7xyTcU3ex/ggHRuUugzu0wPLn60zh95ZBvwZo7QwRBI37yHhEaBA4iMz4L0EQjCcxGcx/sr5kID5YbiFc+M9JHJqCoTycVzef7445T+s41ubjVMX2un0+dr2ZM4ErEgs02hJUF4V3HPPg9i2c7dkGzEWHPAHEAgGnZRCh3iN+kwCCwZ9uP/+ezF/wfxzmjmfR0QNYX1UQxngJySQ8USipOzHInPorrdgDRIJic4C9t3gBP6Nm2ohgpR+hOdRTSYhWQ5JSCLRXQR3kLBJiA888IBAOBnDpLRmzJb32XguwRAEIfA7i+giuIFoLRKohVrybxyfzITJBiRuorHITPghwyGSyIJNzmnjahf/Qe3A7Eiss09RTEPSkVSoUpilAjnmkk7otoFdCf2/uud+bNm6Q3DOon56/ULk0UhUUpxsFUxVp+mhriCZmMDzm57HwoXnFk/kAgiBI/FQIvGAU6oyuE/UlP1YDDAJk6grSi4Ss4VBEsFDIuc4/J4f3kO0FiWwDfAz5ukG7pNhWAImqohMhATM+2hbk9ioIpNY+SwyAr4sfsgweA/HtpKVYxMVxe9JwFTNKYEJlqAUJ/GTMVHdtvjm16punf2Y1K74Xe/A+RCwFHS32GhJ/lfgB+1nFrWbWzYSVehS3lQI8ElFvQce+i2eeu55BV4D8Hl8iEVi4pUORiJaoNrAPgj0yOYymJgcwe5dO50slLlumLVTSZT8mdLRwuQo1eyHQHeb4cKfqZqSmGz6IZFEhPRRjSVBUPUmoojQQH5I4CRk3su/2dggpTmZFDN1SKz8njBBagS8lt9zXrzH2q8kXH6IIqJUpoQmEosSm4TOZ9IsoJpts2AsM+B4lNT8EA1GhkQ01euJCprr3teue/12YDYCnhYJdif1O6Bl09R7RrVXzmpuKrQAOeq1QzjvMtjNhx/+LZ55fjNS2YyskEQai8YQCYYRtlKYYlgykoDx8THQ87Zl+8vnTMD62GoStN3S2aSSdRC5/7WOKEo8YSou54F73Nm8w2fyfJ/NYzzb2Hbup/vbzPm7j0/NK/36EdPvY6RTCVhLVEnJZYZppce3qRFtGnpPc3PNwH3MjYCZD9xexfBKk2EAD97/KF7eth3ZUgHRWBQBfxCJqRTiYarQAfgCQYF+wVMWNXFycgLFUg579uwWsPkb+aH9yzm4pfUb+fzas2o7wB2wNbFYlVKT+bU9kTb3PneP9HkSMIPOFdx/74N4eetOJLJplKSTmg9NDc2oFEqIRpkOR3ill3BtTCUmpRZuBUXs2LETi0wi9xv1WmuS643a6dpzzrQDGkZib6SS2rHnANqYbdy5E3AbU/g0mUHEfQW4775HsG37bviCAXhM/DebySHgCyIIYqF9KHmKSBfTYoMzq4mfXbspgbUSQ+1T24E/ph1wwkhOe9HXtvq5E7CTTsiEBSXi++97GNu27RQblw6raDSOqckpBP0hBDx+UZ+L3iJypSwyWaaVlREKhrB95/Y3XAK/tm2q3V3bgddnB87HC32mJ58DAbttYFrSZWzcqATMfEaRtvkCQsEogj5r+3qQzCWQzCfFE1ssFFAql7Bj104srkng1+dE1EZ5U+3A742AO9saqxtlXN333fcotm/bJd+z8mSpUEIwEIbfF4FP9PsK8uWcqtBaZ0DSIYhIeqOdWG+qt1yb7Ft2B14LAdsYjKtzMCbmXFJHbGB+zO2VMh7Y+Ch2bNul9m25LIAOv5eY6DA8HrZMrCBfzGEkOYZwOIpcNgV/IIi9e3efVxjpLftWawv7o9mBcyNgQ7JO9NRmAtKJrJ+JubQXpfPJHUaSO5mNdM+D2L6V2GM6t0pSfTIQiMDvCwvqyuMpo+ypYCQxItcUmDQdDmPPnnMHcvzRvOHaQt/SO2DrQlPgVYNGpl2RNPzWnHvFTGqyjohNaZRQTdJxCJg1seZS1O4UAkYFG+9+CNu37jI1ejWfkSo0iVhUZsZ/KyVMZadQLJdQKhSFgHfSiVWzgd/SB7W2uNl3wF3Yna1R1LQ0REuoFBFPQsg2LKxO49PBaOfmxDIldWZO6b57H8G2rbsk20ihmhWEmBssKrRq2+VKCSOJYRRKJYSDQQSCEWzf8TK6u7W4ee1T24E/ph3Qkjp3CF0IgRipWiXQKtRq9mI703drbgQ8mwoNzQfetnWnkzNL0R8WL3TYdFbTAtX5ShapbAKlSgl+fxi7dm+Twtk1cP4f09GtrZU7UE0nVI31tX7Om4ApbTfe+yC2bt3htLmgFI4EYwj6QkrAXpXKFW8Fk8lxePxsdObF1m1bsPAtWN3wtb6M2v1v/R1IJhP4xZ13wfZGeq0rniMBM5nBFUZSLxY23ss4sIaR+KFhHgvH4fe4CFj/ghJK8KCIurogHn7iSXR315BYr/Xl1e5/8+3AuXmhz76+ORJwAV1t0wu7c+iNGymBdyo5U9KWgWg4Br+HQA7GgbWDGgmY6nIk6MGKxS343s//C12mwdfZp1i7orYDb50dEBv4zjtnzaw7n1XOnYBd2Uj2Qffc8wC2btlhnFhSKkBUaJ8vBGnHJARscoLZVsVbwbWXLsOX//v/wLorrhH4pa0pVe2bZu0C08DFutFdnjlbnUCrEtARQHe7y2unHKVan8rp8MZrzd+k+3k1RfFM6YXTA+h6jyaOOLM2LWdkQGdNcoW7nq+ZLwEuWnfQzNvG1iV0MCPVcTZLyYQZZGvM+LosnZd+r/so6HWOaVLT7Ltz9tA1fjW9Uec2a6pmFQmgo89I8XSebx5UTc+0HedPdc3oGKc+00mrPGWOmtA+26fqsT2DC0i2+fSeXfe4M9/9mYjsdGmn7vRQFmxgozYJI51H9pH7/fH+ORPwqSo0sPHeh6bZwKh4RYX2eYNycAjmqEg/JT1UPq8H81uiWLGsA+FoGJ1NDQLskM6FUjvLOuYCKFUqmJLURK8cPmY0xerrkc/lMDI8galkUioRjCfTyBdLWLVyGYLeClAsIV/IoVRmC5IskvkcptIFjCXSSGeyCAfY3hLw+v0YT02KY026J7KgnGk/mcvnpM1HKpVGJpNF0BdA2BdCOBjGBz/yZ2hoiOlx85laX4YAB08O4b4HH8VFF67CVVdchjvuukfmyUqcf3nrRxEKePHIY89IJZAP3/JePPDIbxGPRXH1FRvwk5//F6LRCIrFEj79iY/g4V8/Jpkq0VAYI6Oj+PCHP4CRoVHc98AjuHD1Sly6YR1+9ou7UV9fJ3W6/uKW96BUyOOeBx5FOMR2IDF85EMfQG/vETz+5NNYe/EaXH2lNvyyGhNYoMHPgn8mQYVFCyWcUILHF3K648nymPrmFAu0AIOSMGivJ+AwEpuw4pUSw4q8K0sXAu552DCZMirSXrMM+NnbWUMpkl4nrXi0CCGfUinmUSGj97GdjuFOTKaRHkL6cUo9OWtjWEaz42Z1FDGVT8YwXf/ORkjmepmnV9v6nO7DAg133323U43FXsdCDLfccotUWJHWoq/LpzJ3JFaXg8QyB4Aq9L0POTawvngP4pF6VMos8s4cR41yWQ7EDQt5i+juigPlIpbPb0c4xNAS62hpJz5mNbG7QybH6h9eRIN+AYDA70MwFkYuncXQ8Ciy6Szq6uoxOjmJoeERLF+yGC0N9UCpgGw+jVyuiGw2j9F0CsMTaYxMpJBMphENxVk7hOVDMJVLIJ3Nws+CA+b5LJXDBmyJRBJ0ODCvKhKOIBqKwgcfPn/bx9DU0sASfdMOzt59+3H8xADisRh27tmHv/7sJ/Hrx54SYvvVvQ/gf/v6bdh4/0M40T+I973nXeju6sQdv9woBHjBssV46DdP4tOf+hj+6fs/xt9+8yvYtXefHMJCoYSt23fh7W+7Xu5dvWoFfvbzX+LWj34Qv7z7fnzpC5/BHXfdi9WrVqK1uQFj4/T2l3H4yDGsvmAFcrms4NS3btuFr3z5r7Vip2STGZCANKIznJMkIVkyvhlpbkoQTmzQZKWpglUlEnnPDI/wOyPl9D46NPmdYuiVOrXQg2gcJPNyER4pycQul3xcGZViDh5/yMyHilYF5WIOXmE61ZYkeso86hji80jwpkGYm04UJGHqL1tpcQZCckrZiEJzmvYnrvtZhJDqMau6sFKLrWrKCiyspcZ6Zx/96EcdFOJs8V27liqjtairKirL6n3cg8nJhJSvOnuD71lU6Hvphd6yvaoyVoB4pAGo8CUwwYHvTFMQuaHcBL+vjK72MFKpJNauXIaGmBbDk5rSPr9ItVK+iEIhL9J2eColL76ptUXAIPlUDqPj45iYSshhDPor8JQ9mNfejqZ4VM4K4Zu5QhGZbAljqST6RyYxPJ5CrpBHPFAnHSQo0Qs+tkr1olgoSrI/n1Mg4KRY1HMHD+pCcZG8PFReePFXt30CTc114mUn0VsxMDYxiTt/da8wm0vWXYRrr75SpPGxE/1YuGA+3vPud+KH//pTosZFoH3mkx/BY08+h7p4FNdefQV+dufdmJyckq6NH//wLTh67DjYe4rc+l03vw0N9XW4Z+NDyGRyWL92Na6+6nLcc98jONE/gPq6OP7ilveiUi7g7o2Pylr+9Oa3o6WlGb+4624UCkVccslaXHf15ebgs1RuAR4/1+XCAxW1ZJLHqxJQJDPLCFMy+qslc+UvxYIQkq1Aqj6QAuANGPLW/SuX8irNpR8PP16glAMYqSBBKm6BrQjhcbQBPsAkunspyQkoUIlNrUTrq7lUaBEeetD5PmeaQ2pGuPoQzTAnqjRoq2PoeEK0rhLFZxKaXP93vvMdqWP27ne/W0o52YZqton4448/gZ07d+Ab3/iGnh2ZsLvKjOkJbJFY+rZkTYYjKnNTapJtmbMKPROJxQlbAra1lT0VD6Jhc7jZWsWoOcIZufEgt69g0fwoCtkEmjvnYVFLHEGfFJ0VTlssF+GreFAoVTA8PoaRiQwS5TKmUml4Kj4smL8AxwaOI5lIIuIPolLOoikex4L2JtRFw9T+JFk6k2cechmTRgKfHJtEABWE/fXy7slUcp4CKj7VHKgql0pUrTiAD0FvQAg3IBA2VgOsgBr657/yl2huIS6cJgJfgn0B5uWbtapkqtphooWWi6jIgaxIsoe8P0qaSsn5nm9FXhcPdylnVEcX9+fBIoLHHgBDaB6j4soB5hzcTxfpoeuw6jIl4jQbzJRJUtucp6SkmpNplzNtLVyWkXJqvpJ49R1zXyWRhU+i6uzzK0HLpuu44uAU5ZpvvazEGwgJs/B4/KiQwLlP7Hop21oCRPKG9fuqeJJR5GFmv6f3NOC8VC3nOtwSb6aFLARu9lD7Ebl38MyQCo7Lcsa0bb/5zW9KvbVvf/vbTp00qs3f+ta3UBeP4dv/6zu46cYbccn6tU6bQLcJIAn+c0FwGKfP3Ai4mMcpKrQH2HjPw9i6badTkNxT8SISiok96RVObOwYtk/0euCnveSrYOnCFjmcJydGsWHlMtSFA3JhqeJBMp1GNldEOpPHZCqD4akkCigjlysARSDWEMRkKo1i2SN2bkgkYxkhvw+xaATxSBR1sRBKxg4eS+cwMpHG+FQSDdEYgp6wvnRPBcFIGOFYCFNTSaRTGZRYUJ3tUeWwe+GrqKTmgbNK5ue//Ek0N7M+GA8NNQ3jLHLMMx5C5kcbDmsOW4nSjYfPdqswHJQHTIoC8h71Nhn7Tp1Pbkkj51TqJrmdOIaB8PBxDEf+qcophOocelMIv1SANxjS/DB9JCr5tEpAl6pYYQEGEqBlNpyOEISuz66d0pwE7JU+0YZ4BWnEwbkPhlmVCro2u2+yQJ2/qqiUziR6vUeJippRCZ5gtNqj3sEI0zHmYyrcdOFo8tVl3DOpypY5OM7QKjLqTNJ2usRWSfjDH/4Qay9ei2uuuQZ33nWnlAJ2f1avXoVbP34rtmzdIhVHb/vSl18HGMc5SOD5bdP72pKZ3ksv9FZ6obWjAJ1YkWAUflNe1s3hpbQsb/LQuZBDLBLGaGIKy7o7sLSrBQG/HwMj4xgYm0A6n4ffF+Sl4uTivR3tHQh4vQj5K0gmM5hMJJFIZ0TC5gsFsMYQObrfR7XXj3gkhHKpjJFEGpPpHFDyoCEcV6cLK4d5KmIrEqst9GwraDoaja3BaxU//f2vvvKXaG1tMA2Y1ZPt/thSKTM9jHTuiHTU06rEJRJY3ecVOYTK8sguKuU8Kp4qwVt1S9pxOPak8TJLtwweZEMExq6Uwy9EZZkJpXoRXr9xCImhqs6jioelgX3V5rG817SLtYuUzpQs1GD2igQmKrI0sqN+Y7TCIiUo58Pv1AUpDjNxTlXXWSlm4Q0w8cWow1JyiZdwvsYRRWbqYnxaR0ryV5WRuPffEK64Ts9UY8owDuv9tu/+rETrYgzTrq2U8H//3f+DW97/Xqy+YCX+r7//R5G+7k84HML//G//Db19fbjjrl/i//wf/90wrnNlGtNnOTcJzAbfbU2nuL0ZRtrmQmI5BOyn2uSbdralAbh8w/hwkXwTyUIWkagHSzsb0DVvHvYfPIKpbAHBUADxcAhxNmyOx1EXi8PP7ocBn3gvC+ksUukUEpkUxpJpZPMFJLJZZHIFsW/pjY4GQ+KgSmbzSGVzqIvUI+oJo+Qtw1ehtCuiKDaeNmwT1Us4MonAtnCr0ifVev71r7/6aTS3aIVOR00WxqQbS0JViaf5z0KfVAKLebEZJQfFA9FGKGKJiSXx2I+jglK1nn46Xf1kVdzbTu5Vj6tLNkiRBc1uIdEpb6AELhl10nhp6aOQ74ytqZxCVFYEQoYiTVhKHE3qhVWbUuegud+mUgvXLwxC1VBRi4UoeY1hYJSyvNMwEjGBCxl4fUGzJr2O89LvzJw4T5Hwp9q5agMbTWamfWz3Uex01b6sSeGo1dNCS3TmWQYrp0RtVXl1tke2aji2X/YPf/SvuOSS9bjyisvx8zvuxKsHDroMKGD58qX49CdvxbZtO/DCiy/iy1/8gmV3+l7EJOG6jAPR5Bc4YVazhpmOrzkSsPZGqnJPffZ9DCNt2SmkSvWTB5phGoaFdIPU1uH/qFarG14JWfaj4kHek0Bd3IeVi7rhyZVxfGoCkVgUfG1RfwANTc2IhEIIBrT3Ekcp5woSnqGNPDY1iWwhi7LXziGAUqEgKndCwkh5FLMFNNY1I1ihXU6Pp6r0nFfBgMr5+/QUL3v4NVyhB6qC20jArY1iz7npi846emBVghgPqUOVpqujc7B46Hm4jfo8Td2mLUFCMdLQVuLnDLjHPkq1quPDQ2Lg3tpSpOIJ5mHW7zhHcViJtloWKaid4HVVvL9Cc8c5INRIilR9qior1yEMKCQmhbAkoZcifPY7o9WIF5tOK7WCxdlFLUDmIl5uEq8HHpHGNmWObM14pXlmKK3pc/BHtME1xzzFZrdETWZrCFccPkpk0yWkho2c6o/uP1oiFOIuqs2tzvHpAkiuUyYor9j0/7IEtX3HTjz7/Av46pe/gMmpBL77vR+KFOa+sk741778RTQ1NeK7378dV19xOS67dINxKBosgkzcmhTGV2H9LGJy2BjreUpg9kaa7jGjCv2gSGAuRxL6vX6EmA9Mtdd4nU0gSTgwu5JT4rEuljhrKl4UvTn4gkW01oexYtFCnBweQXtLMyLBAEI+tmzxCxf2BkLCnUgihXxONieZTiGTSYqkzeSzagOWfUik0hhPpJDI55HMZBH1hxENRlEulhCgfaWuPG1qRq7uehl2e8iQRKWUgHt1077w5U+hlQR8SvzRg2JyCIWTB4FABJEFa9UBZbi++G9ckkE0QO6HiUXKeE6YhQfRqJrG8WQBIoWJE/DVtSsBOLmixsbkC9dThtyxHQh3b3DacDgOKRP2EWJypLgtwM97TYzSmavazULgwrRsbXDuC5mMywYXh1dV/RUpJvFbwzzMv7S1RZJRfaedLXY6GRNtXmXyajcbe5vPVjFuxlIXmCWkaR5pw2hVcml3e1mdyxa24SHVIqqpfI66b9+3MEMjiZ3qkcokZEizdP5Dv8R3/ul7uGT9Otx04/XSj+vw0aPyPtiFhHHgZ559Hi+9vAXf/NqXTXdL4+eYTpPmNyvdDaMypoeYQ8ZUIlHPUQKfmtDPSd9z9/2SjSQ1blFB0BsUCcwXIG1W2NmvQieQEjhtVTqEpDkY1Vgy9koRBWTQGPdjcVcbmurq0BSjI0xjkplSAaOTaRTgE1vWUwJK5YLYcoVcRuLE2glBnTiM/w5NJJAqlDCZTKNcLKOlrlHsShbW41PJFPSlV1RzmKaq6tshkIMvOBhSQIO95otiAzcrs3ARdik9gWzvZoRWXIdyZgr54zsRu/BmlDMTKEwOwhOKw9+0AKXkEFAsoJxNwN84X74vThxDJZeGr6FTnDWlyROqtbQsQWnsiBxySj9PqA7Z3ufhb1mEwLxVqCRHUc6Mwxtthq++A5V8DoWhA/BEG1Ac7kXkgncowZXyKCWGUEqNwV/fAW99h17Hw1AqynMYUoKEgbRAoQobagM0CXhoWKSQ7kLVEKw6bMMajsPKhHMsk3Q2ifazOMSUAdg4rzcYVXVbzBmtWmqdbqcANESCGyk1U8uxROBycImctA44q2Kblp4itA1jUBq10o9hSeOId8I4Rju3pGWEpUPnhrUcPnIUd/3qblx80UW4/NINaGokoyfYYhIvb92Gnbt248MfugXLliyu7q9hQ4YzOX4QnZFJ9HdI2vFGOM7GyURWGgrOIQ48EwvtgUApt+0SdAmlordCFTqsoAhvwNSBLolTK1/Ii/Tl31heh2yMihyTHIqeMrLZCbQ3x7FsQQfaGxsRChDUQc+1D0cGR3Hg2CByFR/SuRw83jI8pQLam5rRWh+VM5LLkuAqmEolMZbKYDyRRTZbRDwSR9xPaKcHqXxGHVb0MPt94uSyrTwdMIDhqmyvQo2BwA4Le6Pz5otf+TRamusMmKDKOnNHt8Hfvlykr6jAYuOFkHr1SYSXXo38yQNCPIXBVxDsXgdvIILs0e3wN3WjnEsiNG8V0rx22TVIbv45YlfeitLECZTzSYTmr0N6zyMIdq1Bcewogt2XiFMoe/glRFf/CTIHn0Ww6yJkDz6D2MXvRiWfRfqVx1B3xa3ChDhOYegQIqvehtTeXyO0YD3Srz6O+MXvQbmQRf74DkQvvFlV46o5j0ohL3YqHUJ6vMsoU5WmVBUEFp1tJSE8jeEa/HuBcV5KWb7mKpcTs0CcnWS2KknEzCLRFVLw+JX5y8mYoQpLqE20ImOry7AaAqwKZnXIkTFVzV7eR71NGa6BfBgdWeemJgeltc5XlR4boDYqs31U1XpxVGz7FW8bH5/Az+64U9BxRBOKKeD1oqW5Gbd+/KNobWmWfXTgrS6NwSFaB/5qtA4TQ7chO4f5sGVuIica7zkQsO3JW8b99/8aO/e8gmw+g4suWou+A31AgZ5JI+A8avtyIaqGUQ56EQkzlCNQCPh4wLwVpMtpeApZLOhsxYLWOFob6qVxeNBLO9WDQ/0ncejEiBQMyOSS8FfKmD+vDZGQX+yqfK6E8VQGI1NTGJ1MIJPJIxoJId7QiqamZvi9AfQfP4pKvqQ9eIuqGlOVY58jcWTRU240KjIcAkdouVHCW7vxS1/9LFoYByaCyXmZFeSO7xICFlRRPot8/24EWpcge3QHfHWtciACLQtRHD8uBE2pmj28Bd5gGJV8RuttFzIILboUmf1PIXrJLcgffgnhRZcKEeb798EbaUBx9BjCCy5GYXIAhZFeeGPNYp/6GruQP/wy6q78lJgIqT0PIbbmz0T65gdfgb9pPrzxNhROHpDn5Af3I77+gxImSm27B7H17zcxZyVV20ZH23yoOkqHm4BHvX6VDrThrZ1GgrRhH6t98epKAbBQS3MGxLFmnWESJtLfRfIbCe3Qp/FG2xCZW+1xbFJDKEbLV/CJ45Q0YTkHo04CtWqz+gvUtLGMYBZKtRKQUTkjIwlAsSp0VfjrGSL4ZiqRQDabk73k+Wqor3d6URMLYUNrVvYLqYq/wppsBgBl9HW1ya2WYBQGVDCZysMfCJ2dgDsNEkttAl3sc89vwVNPP4dEahJr1lyMbCKLof5BDY3YYiHkQIKeUY7GF0MC5scX9KN9XrvYacVKDoWpCYyOjqChsR6rlnSjORYUn8dEKo1RepvLXrQ3t2JgaBCTE5PiBAv4PYhEwmIRDY2MY2QygWKphHg0goDPA18kjo75CwXlRbt6cnwSadrH4xOoFEviQZXQj8tlwT3LZmhTG2eCy6Px9W9+Hm1tzXLYNeKpzJwqcbrnBQQ7VwuBFBMnEVtyNdK9mxDouADFkcMIdK4WCRxadLlIn2zPZiHy4vgxITASd2jBWqT3PIro+g+gOHoExfGjCLYuRfbYDpHAVIVJyL66DuSObkVwwVoUTx6Sf7OHOd4yZWgn9ihR+oMoTp0UBhPqWoPcid2ILLkKqb2PIr7+/XKQUrseQGzDLSaIpY4aSjEF6BiPM1VphqQM/FEYjoSpTOzY1SZE7WCLZjJeVbH5KQnpwKJdXFE8NNNMicpyI55EczQd+YyqbIm1au5YdVojBhoScstCo/aqu8NoqFqHyjrw7IJtvVQLdKnqVfqTyTHRY2/i5jOvmUbEhhpFszARLzfgaiZcUmdkhNxMddl6x+1ETExdzl2lgkQqD99cCXgmQmTrzoMYPDmMTc89iUs2XIn+owNIjo/D5zMJCILlZZCfjb0D8Pt9ktzfMa8d6WwKGy6/DAMnByimiSRAbmgIoZAPB3qPoj4ew8qlCzA0OoHxySQisTqBV9IZkMvmMZ5ICNiDh8Ib8IkTITE1Dh8CaGqskzAhIYTJYgH+cBzdi5ehs2ueoKvIRQeP9+NwTw9yyQx8xkZXIIU6j7TjYgVMbOCPlMLc5K9+7TOXnelIAAAgAElEQVRo7ehQTmxCJ9xMZQIV5Id7xI4NUTXm8cwlhXh9DW3wxtpRSY7AS4lMzz2JMd6GSmoExcmTCLYtBnxhUXl9zQuEkHhNJZeCN9akKmYggsLwIQTalgpWuDDchwCla4QIM79IVm+sRYiYdrGothwnPYHCyGEE25YJAyiM9sLftFA8ycWxYwi0LnX8ArZzvE1sEEeecTwJ/JGIMpKieJvFk2HU7ZDBN6vqKDLEeI9lDAnRkSnQ012S9+6VMQx9GUmqeOmqLa6H1WJgdGzBHbiIXO3dWbKjHMIwMkwicEYKK+bNRYtu77U6BGf4s83MqrecSoxmLdVFGVE2nb1YhqP4cUPlokJUhYLygZkzmM465qZCFxkHrlO7wCV1DhydwKuHDmHrC8/h6mtuxNDgCAZ7eyVE40730snqJJdesBRd3V0YGhnA8pXLMdQ/gr7+IwgHvPAlEljY1iASdF/fEYwkWQQvhELZKw6toL+MVLYg3muOWCAopFSSs5DLZtBSF0ZzfQzETxVKQDpXQraQR6JQwoLFy3HVNVcLURPrXCgW0NfTh8mhEUyMjaFSYnyYgApVjYx1NK1yAl8WbeDWjjaHgOVwCUhDJY0cE6N1lAhUYAaO2TVhDXQASaaO9XCqJBL7ULy4JgzC65RzOOqsqHsCxCCKyrxokwSgSC7VjMSzK/gAhm+Mx72QRcWvedqqNhRRpo0rTiRdrzqRmPmj81NFzxwgE7cmwMSRuryvXNTAkoO4Ygw5I1lGgtYiGcv+iFdA8Rd8YXR2ujQbcnkW/bc459mOrdrbGlcWtddEE9xEKAQhi1fIqazDorwce9OqsNZbpde7PwQdmUi7fO0ugGPnZvED08jexIutp9uhGJdwcLa0IjlYugxhUGZDHDpzuNbpBP452MDzyNWr3Io/9faPYfMLLyM5OYElS1dg24tbxIFCKKKijdRiqHhLaGxtQH1THZatWIp0WtuRUiJWSh7s3r8bx3t70BgMYvX8NoRDPhTgwUgiixNDwxidSCBf4gsm5yUSxyMoKtoaoaAPjdEYmmMRhAN+lFFUj3cRmEzlUCgVpRZI94pVmL9oiXC0WF299Oot5XM43nNE+vP29RxCKZPTJRr7RjHQGiKwh/xvvvoZtLW3qCIjO68xxrKLgJRAptc8UpvOxCxnwCwVg1uFZarkM2B6Y3bIi5a5WYy1ySYisxCCM0eFaptwimquteOUMPNVFqGxUyczucikAyVcQ/1CLAzhydSttOOdglHmHGlrKqRUuRQdSIpp1wgE7focPIEqAkumZpMEnBisZiyptFFysKErsZeFcBXY4oSxTnekbabVtDCcrmC6tHXYlmskJVm3bXs6+WfVY2dcl2kpIwsDsFqDexQtwayc1uJYq6/PsWNmebCb3+kzgInknJxYRXTNa55GwBxgKFHApudfRM+r+8V2jfnC8HtoJxlVhnP0VoRwL1q3Bj2He7BsyVItvROLSQdDxsvidXG8uOk5jPUP4LJVi9EUV7BBiY6Noge5QkHglRJLzhcl4aFYLiOdySBfKqK5rk4SIkjUrH5ZLOSRyZcxMp4QiCIlz8o161CWMIYeuLb2VhSyOezcvkMYSjwcwejJk8ikMyqJScTTmbK86C9+9TNodQhYD5oCDWz0n2EIExIxnlg9Ph6RVnQaqRppmAIP5zSQAsEPmnvrhHN4t3gGSRhU5Y36SG+3ZPqYty2wyKLBNIuYUkcTJRszvUQy6XdCLMbGlRRAzkfmQdC/sT+5JiEcg4EmoYoXmNBIwje9GucVYtYxBF1lMM0O27N748qA0ppQpviBCxKpEtRCPKsADBvrdavJ8rMNK7nt35lqp6pF0wh1dvpXhmxyfay7ymDSVY93FNwqdVZxBA7jtszBMo6q5e12EOpglizN/Gzc3/2nmZN1LWXytRDwsZEpbNm8FTu3bxH0UzwQk/guX3g4HkZLW4t4qFevWY2GpnqMjIxg+OQwFi9eLAd4cmoKCxZ0iySdGB/Hs089gUUt9bhgYQfCgQA87PRAoi3TyaVBeaKoeF7oIaaqzbMUCgREFckX88iTwIsFpHNFDAyPiwpZ8IaxaMUqJFIJXHDBKuzavRfr1q/H+OgIDh3qQTQWEzf/8d4jaG9rRSKZwujwsDCXUq6gBCCqYBm3ff1zIoGFZKxKRxCCcWIqkVgZV8GTTz0nqY+3vO9PRSGlQ4/Qzx/9+N/xvvf8KRZ1z3dQVKd7ZwqHrBb2VuInF1cIpoIsDNMwtqpIeyKaKNkMBtkmB1gnknh8TQqhxJktuMLJ/VUmIAgzgUFWoYO0tyUVUGiXeGgCbhT7zGcL+osMjE7CQlYQW2QQ1TASPftWa1BHmarwVXcizRJRK406q0qD284lY1MGowReRc1NP/NWGxL9/VTa5Rp5gixGXRi4eqqFQdAkdM1spl1qtQViHlS3qeY8Ky+pquPWZpZrrdvc8fqrRHYk7UyRaw+IWQH/PHVOBCyc1t5dwcOPPYOXX3gJpVIBxVIFUSKQYlEsWLQAHV1tItlY1YKOp46ODsRiUezctV2IobWtDcVSGfM6u3Di6DH4g0Hk8zls3/QcLlw8D90dLQiGwgj5lDjl0Mo5ZeyxjCIzYCpe+AJeeEqaoZPJMQ84a+LBOTCFkBvatnA5UiWgvbUJ8Vg9tu7Ygeuuux6v7N2DybFJLF6+XKpm7Nq2A52ce3uHeMqpKeTSGZw4dgxHevuQy2Zx222fQnt7i8YVZS80DMGw0+DgkNq/Xg8WdC8QRvMfP/2FJNbP72pHOBJDW1urMK7v/POP8fXbPotAKIye3iNYuWIpgsGAqPW9R/rR0tqM5uYmGe/YsaMoVbxYsniRjNnTcxDBQBALFy02b9ukzUkM1VivctgZv63qYjxYKl1sBwDVHBgWosonuGyR6ho2kwMs99DeNHajgYtKrJb2b6UEHyGPxtYu59LwEGknYaIqkkkJzBKSRSDZ8kNWu7XOB1WV7UcZVtX/IskRZOROAshMfdMcUpM8Y8qj6nAuSSzEpHktaiS4SiXZ51t2wjNoWdgpHOAUSWrno/NWgnYzQBOq0glNV+1nWYpFWcobcHml+b1K4LOGkYwK7SJgsYEPHxXc59TkJPoHBsUBQZRTJBoR5xPT+8jBXnl1P5YsWY62dlbgCGFyahKxaEzjZJ4KTpzox/5XD0gi9JZNz2JiqB/dbQ2Y39aISCSOANU/kwniYzZMwKdBcgIymFVUKovkzWSzKLKQAAPqEwlBZEUbG7Fo1Toc6OnDuotWI5spSLL1vM5OPPP00wiE/Fi6eKkgsvr7+9HROU/U+0DAL4wiGo1Kwj8/JwcHceWGC1FXFxfCokpMe5CfoeFh/PBHP8GSRd0i0T/0wfcKA/iH//ef8bEPvRd33/cwmpua8NlP3yplbu578GF8/jOfwL/8+88xf34Xjh49hi/9zWfwi//aKGsdHR3He/7sTyTvecu2nSgUi7hozWoZs6f3sCTtr73oQrztxus0b5jmhqThGbtcEuSth5dqueYW24bSzuF14J5EV6l9qvm6iuCSBH1HQ1dbXSnb2somPEhidhxs5lBSQ5K+0W7UmltDqQoDZTuWcK2UqFZzUW+tSTJx2co6wmyiahZJa+i3inDS+4yQdDnFdExLvFbvcBx6Lgp2HLTT5mADVcaep7ZkgSGW2C3dOp682dbgErVuUpdXrKyZfp45EDC90Ab/63K7b925F8Mjo1Ii5PjxYzh2/ITYtVSJ29vbEY1EhJMOnDwp0ollRthmdGJiQre9ArS2tmBsbAwvvrQFXr8P1159Fba88DwyoyfR2RRHQ2MjmiQITthjCSH2HjbwSUljIwornxd7OJ3OIRShg8WDgaERDE2msHztBmSKXgRDETQ31UkpHhIlEVYvbt6MppZmpDNpzJ8/X+bFelVs+yJOE0IqBZDuRWtLq3DS5Qs7EAqqdHHKxcAjZX1u/5ef4PqrL0dLaxvWXnwhjp/oxz33PoSv3fZZPLPpZSG8z37643jwod8gFA7g8ssuxbHj/UL03/nn2/GRv3g/7t74EP73b30VDz/6W/Gsr1mzWjSCZ559DoViCe9827VIZQp46ulnRf2+/torlKhM4oLGVpkpRaYnATEFYBjvs0hWxmOZ90yCFsbIqhsaKhIGYJA4jM8bdIFKbXFOqham3nCmnBg1VhJVNP1REhjE16Bqv5VmjqppwApq7xopNKvdamLQIiWZRmlhFDNkoGPjuiWfEqHjlZZf3fhp58mOUu2q8XGKkNXzemohvCoBV2/R66qakKMEWRC1vXSaXT6dWE8lZ5sfbtx8hscpkOOsSKwiOuc16wLEXtC7+44eR9/hw+jq6hR1dseO7eIsYeyXUo6EQKnT23cYJ08Oo66+HhsuuQTReAwlgih8PkGp7NmzFyPj4+IZDoTDWLZoEQb6epAYGkRdLIi2pkbUx6NilzDhnkXbgqylJZC+imCsJyanUCpVEIloKtvg6DgGpzLYcM3bMHByWCp5sFLC+NgIlixZLI3IDx85gonJCSxeshjtHR1IJRJiYxEkQhWfzrUM7xkfl8PQ3NSC1UvnC8xTbDmfzZ8FRkdG8G//cQduvPE6PPKbx/E///ZbePLpZ4UhfPAD78Ezz24WAv70X34M//CP/4TPffpWcaRxH77/w3/D0qWLseGSdbjjzl/hW1//Mp544kmMjk3gox/5EE6eHMSP/vWn+JvP3or2jjY8u+klPLfpRbz/z96FNRetNmVs7IHRmlbKIUsO0sjJbjIONwtkLReLAthwp+2JI0wylkiQBrBBzUdoQKGKmpNsCtOJCaopi2WW2hHsdNU+dx9yOT2Sf2zVR0NILtVRvfDqGLPpdU4Ic4aK6QqdVrUCR8hYMEiVNK1MlNI8br/WDDluCciqzpaA7b+2Co2bqKtmntq3aqpYT7N1GFjRe+YQ0TSe5FgQ5h4blqUfaW5ILKNCW7FpFr573yuiOjc2Ngrov6/vMBKJlEhVHtyW5iZ0ze/C2Ng49u7dj7b2Nql/1dzSgu7ubhBvnE6lEIpEcHJoCHv2vYLW5mYJ5axYvBgvbXoGxVQC9eEQmpviAo0kuirKInPhCAJMW/R5RfqSgPM5YnJJVF4cPDKAi6+5TjzZ1AS4kWQQ2VQGba1tGB0bxdDJIXQv6kYwHEJdPI7EVAL+AHHcGqph0TxKe2oUBIzTqbVycSdCfgUkuD2irGd198YHcMVll+K++x/Gt75+G37y87tw6fq1uOKKS/H0sy+gt7cP7/vzm/HDf/lPfPPrX5KDfMeddwszuPnmd4jN+93v3Y7rr70KO3fvw4WrL0BHexs2PvAwbrz+GqxauQK/eewpLF7UjdHRMYyOjeNzn/ukOnlITFKninFnviBCWguSxeXAEYwXVVVDxp9ViipCziM4Z/kTUwmpRvN3UWs1xl2118xhlFRG3m9UTltOyKryNpJqEwzMYZ5eEtbYiUYlt42+qgQ+qzCc7ukx51FrX/EX6912PIvqWHQRrFsYWsCG9TG7UXkuuWpitVUnWhXEMV1e6jjWxDCqpmyRId6Zdq57iQ5xWonMsKA1WRzR7bwKVlydgwo9OwFv27kHQyNj8AcCWLx4EY4fP4FX9r0iBE0VlYevvqEeJ04MyN9aW1tFqg0PDaG5uRnx+josWDBfHKqsRnmotwc9h3okB5jVGiOhCHpf2S0Qy3jQi4aGOIIhP6KhEMLMwAj4EQiGxB7OkBmk0zg2MCx2YrylDUsvvlSS+VkpcmpyQpxmDQ1NmJgYx4H9r6Ktox2NDQ2iplMbyGYzUsK1e/58kcRsWE7J3D8wIN5jrmVBK0NWcJLR5cDQI16u4KlnNmFgcFCK2F1z1WXiqProR27Bwu4F2LFzD/pPnMCSJUtEQn/9y1/AiYEBSTGzIZKb3/k2kfZbtmxHXUM93vm2G/Dk08+Lh54E1N7WhosuWo3HH39K7rnpxuuwkF5sSjRqR6aip6NIWinAwyQVNtRed84PM8UkvKSSU7zTAnow4BKJ6drQk7EpBfPMyLom8duwlMSMWV3DesWdc6sOJzHNzXymq6NVh5aitzSVclZUVRWoZDQMSygWDGm9/zOpVS93hP4MyVtVvPUPpyNgO8pMtdkSvuPhrZrws4ae1Qx2T8Ii1/Tp08afkdThWon8OEcb2EXAvMsAOja9uAWpTB5NzU1obGrEieP96Dl0ELlcHg0NDVKbuL29DX5/EK+++ioi4ah4V4+fOIHOzk4MjwxL6c2l9KYaj+KxY8fl73X1DULkDfEw9m7fjvTUhDi+YhE/vERleSqIxyKCg/YFAhifTKCn7wi6F3ShWAa6ll+InC+EeCQsBM56vSTkickERoaHRXVmg7Xx8TEsmD9fGAE9xNQKUskkurq65Oex8QlR848cPSpVQ1YsbJeys85Lt6ALE1O1B4U1qL/7vR/j61/7gjjuLKrnmec2S3nYj3/kL8T2lPCQvFBTF5lEIcn0jMGSME1c18QXxEvM60XKaUURWzrHAv4lO8iW15FrjCfZpglSMguG2YRvLOHQG02vs8U/m5ivU0TPXOdUmiTpFzKK5jLEbAM5WhxBCUyrnMxGGNX0QK0m6TrAs/p0HF1SM4iEBmw5IrfSa0jQCkEXXsLJm3czMivsjOo9GwGr42s2SWvXZV1dBmIr/M6qBuY9OZK2miwiMln4jVtbMM47Xk+6KJksCpO/7Rbgr4mAX9q6AyeHR0WCLVy0CGOjoziw/4BIr6amJjQ2NojDiB7i3t5e+H0+XHjRGin4xeyM9o55QkCpqSk0Njdj6fKlOHbkqIA0Dvb0IhgMS4nWTDaPXTu348rLr0QukxS018jgIPqPHRUk1sBgPzo65gmm2YsigvXNWHLhelQCUVF3ubUMETAtjlJw1+7duOH6GySsxU2mhGXYh2mPtHmHR0eMFhERTYL1jAb6B9De0Y6WGPOP1b4ToiwWtEibK4dWvNPegDjXWPda6zh5pJh8IU9vbxkBKdtjgf08BFKuTkI4DgcWsAOvsQUIDDrLMA3GEkn4qjYzXmuBHDaJnsKS3mcCY8y4Bq6o4Hl7vcEwc96CnGJ/Z/pcq0keAhUtZtXW5X/i6FKvtVZ8NFqdKRMkNqC7tI1zeE2lE4PssoX/pyVX22sNtRmF36C/FLWlKrDFMs+UZnrE3Uhnl+Xp/M2Z0hl+UASaW0Y7BkhVTbaF3y29msJ+Cul0e6RPY/e6pm8J2inpwxi0CwE5c6rnTMBqXKsncs8rB7Fn334hYNYzpmG/d89e+ZdxX4Zi2G0gEomJfUy7+IJVF0iyPFtMUKWe194GIgJYRL3kqaCjrRXZXEF41+jYGIqsEV0uormpEX4PEK2LCZiD54c264kjvThxuAdN8TDamxoRCIXQ3L0EdW3zxLEmhGY0KuZq7t23DytXrERdfZ38jcUFCNpgmKaxqcFgcT0ihTk/MiBK4JHhUfT3n8BVGy4U1V21IONFdccs6eQRDDBtcYUAVv9sclJpO1LKOqEFBWFoVUgDymBNKpGS5sBwwVLqRqtZKCxTMciOSmaYuE5ObWAf85MF+aXErvdoeR4tPGc8u4RSkhDNeF7rnSZyzAFzKApMS+OQcajX2lEhjQ08KzHa/TIQU1G/TwFmzDyeBnfg7sTgbOYMPdjFIKzkszbvmUzO2WlX1fppqrFusrnc7e02IA2zHtU0NGGCjNoFSzFmsbm3qkxMn4Ig4oytcLoluiT5uTux7M3lCl491ItjJwbR3NIsRcT5/kiovT29EpahqsnWIR3z5uHw4SM4fuwYFi9ZIs6aZDIlkjPg9WDhgm40NjVJgkE6m5cYJx1IJHSptlEpYXxsXArDxesbJU5LKZ1KZVAXi2DP9i04eaQP3fM6xHZcuHotArE6UQUJrSQjYTx1+44daG8noCQuYzK+SwQWiwxQpS4Vili8uFsq3aeSKSHcMFXwoib+Hz16HBdfsEicaWr7ajcB1X7MpkuWjSFwSV6nl1drQinRq2dUcMeiYVbx0erfV5va1kASCSCwRRY4qNZEFvQTC74ZELzUYBY8dTX32ibda9lXUyDOKUmrcXR+ylTTpfyNqVMlqYNcl5a61XpSNgnCFMNzVboUpBgHMmqw27xTJmdIwcTuZ7NvrQS3YSqn5I9iX10eqJkn30VMLpV5JqnZY2slsfO7cexJYT9jmspsJRzG+LqrDrVoHly/3QsDg3VMWucNmoSKs1Cg/bNDtGYgEvBppe50Nf6cJbBD/KUK9h7owf4DPeic1ymqJqXVkaOHJa67YvlKsYGJSvIF/Ojr6RUJzJANrxseHhH8NHsBEeDR2dEhm8YCAPQq09FFQARVW6q17KUUCoRkDJ8/INfkCjntmlAu4XDPQSQnJrF23VoE6+rEIVPM5wWdlc+S8Ovx7LPPYPWFa0S1J3Mg2cWiUbWjvV4MDY0IAosEzyQISuz21mbxkjNExU4RbY0RxCIhU2COpXy0748FGWi1Cs288VCKipSS061QQcELE79sfAkVahtWBdeQjdZYNthlpdBqUbMKs5QUZaVj2s4JPGhUZxUe6fWxXKt6mvXxpo6zTcznHEiYAtZgCIgMxVTLsFlMzIiSKpPsaaSSV9enQ2pKHwWGzYx2CxPjmJHkCv27JdxZHVQOztgWajeagSP5bMaQmwTtz7KZam4Yoe3+S9Xu1fgsgT/CFxgPN5BPqSYqdcb4Pmm20ORwt5Mxugbj7KaAvdckoQhs1DBYw6McC1s11lkNbgf64TAbqU55ZpW5qgXoXZOpc/VCuyRw35EBvLRlu0Al6cSiOjo0PITjx46LSs2WEqGQJib09fWKFO3s6pQwE8NNLA3LfkVcdCweQzQSRVNjPerr6oQBJRMJ9PT2CSNgywr2KyoUcsIEmODAvj+pqRSKUvpGa1clkhmxGSORIMqFEmLxOmRzeSllsmnzZlyyfr28ABIw85YtzI5eaPZoYu8lMgkCTogUC0eC0pScXmiGklpiPjCKJKfYXQmyXES2dxPKuRTCy66DNxRFKTkMf4Pm9VowhcRX2SKmfw+C81abKpO0RTU1TwqpS4E3kyAgtaQUUeVICQNblCwdsUOrarTkKEjCg16vklfDQuwrBIvOEkZBB1nEmBha/0pVdJbH0nI6Svxa2F6RUjY7a/YOgTaMY5mWA4l0qaRuYIcujBW91c1XDVfNYAZu9VXsbZN1ZRRbG9OdRrgGP2+iZnolFSXrcZdnV+0OZTJqGrk/MxMonORkY0rakJHmOSs8lRoSmagQpA1WG/XfwLtdTmsX4PUUoe3WJapQVL3Zex5xYBcBDwyPYdeeVySGytguk/ZZC+hw32E54B3zOoSwKHEpMft6e4TIFy1ahHAkIoTCjghMQggGApKG2NLaIteI84dEnMrglVdeEbuakMOxsVEsWNgtO031mjRYyGtnAFXktCqidBssQdR0f8CP1atX45V9+wRCSeAHCZiAED6LwBOq7RyHEFASayadRWt7q6j6lMgRfu8FGoIQQreqFQmTB788OSA5rgylFMaPyxykfE73BuHs2RM7tZok63NF6qXqRnjplfI3f+sSIfLCcI8k1ueObZe6zIHOC+GLsoaSQX1JpwQjAQ3YQVR4i3iWs6iVIkmsRFpJAoGx1eUoOCdc1UAb/yUM07YfUaKyp9kguwQyamo5TYsJ64Fw4q8C81URPVsyukMcQiSuJAN3KR17xmQObkjkDAXY8S6bQ24JynizjTtdpSyZmpGY0/3hp6q5sp9mDc58Z7Y8OYOK6/gkREPKm/RJ1ZhsqWXHFeYkUEzjGaf5xc5V902wDRIHDp+9pI6kE1YjiPKCTw6P4UBvn3iX589fIERD58+xE8fl4DNU1NLSKoRGaXrs+HGJty5c1C2YaYIfiNgiAdHeDAWDiMaikk0UiUbFk82fqWYfP94vcVB2euPEO+d3CWNgJ4Z8NotQOCwOL+YNM/yTzxfEZo2EA+Ih5/iDA2qvM8QzNDQk4R1KWpGKpTJCLM1TKgt4g0gtft/S3KqSTOUDmiI+kcSqg1FF1YZelVwC2b7NCLQth69+nnDh4mgfgm3Lkdx5P2LrPyASOdv7AqKrb5aic/FL3o9s34taYqdcQrbvJQQ616A4uA+BeatRnBxAsOtCYwMbNVokONViV68jvgzBPtvUPlNzynB+7bFUbVgmmUvS+aJaj4qOEw1JGa+6UfGd8jdGKlVzdh0DrurMszFchwFUidtah45tKxzC9iCaHaY43WlkCdkm1OjzrTRTNdV4pzlX8RtYLLVV4VXiOgzPAlos7tlI39Op+qc4w85g4lq8teYvlzRFFCWnxaoW9JuLs2rmQ6oJRYxCJNJF+INnI2BW5GhvMPFKXQadK/SA9Q8NC5qK6jLbcDIzaWRoBMeOHxMp294+D3HapKA0HJR4LCUw1W4CLyiFCV4gkTPuS0IjUUciUXEg5fMZKVGrHAfIZNLYsWMHbrrpJpXU0lfJI1U2WEUyWywJQyB4xOfzoD5ep4Tu9wvRMvuHas5UMiW29eIli8TzTHVatYKUrIdFuAcHTopW0dhUL4SdTKWxbEEb/AKY4C5om06RclwhtYDMKLJ9WxBZeQMKo31SSjZ74FnE1r1PtLXMvl8jvOImZPY+gtg6EvBmhBdfJYcvc+gZhJdeJSV4sodfRnjZtQg0d6v9aaCKWhRfQ1ASCpKC64ahGKSP4o+11pfm+SrgQuxZmz8sDjabA0y7mTXACJHUfF8dQwvViefZY9p+ilPLsHKxW20f3qrQcOCFVjBKLJrOPBPKMiV9Z7OFVfJXJY2Gxwz523Q9SckxDfFULzDNAsoo5bNSQMDx/jpC+1RftG2MVs1ftza0ZlGJP0LQbGHJErNaipYDCppeVtXEfJPJrNaVdaCbDDBhRja+btrMaHdLA1xx1HY1mG3tubIkQpgYtNUsnPiyF1Mk4LNnIxXQNa/FaQQbUXoAACAASURBVNFoNbH+k6M41HtUCI5eZ6kbVSmJE+vk4EnxLBMkQfWXubuDg4NCrARJ0JPMF0hi4/VMJGDYpr6+Qcre0EFCxxgdTERlcVGSNzwxLnnFZAQbNlwqKq9IQtkAj9jDE2MTcmAZ52XPJT6HY7F/K1P6eA0ZBQvXeX1e1MXrtCKlF8jS6ZXT2lsMLTGZgQekqaFJWr7Uh5kBZZxHcrC1720pOYL80CGpN1XOTCC05ApkXn0K4cWXI398F3wN81BKTaCcHkP0wnchueUXiKx6J0qZSVSySTl0hdGjiKy4FrkjW6UEbSk1LmVmrbqu3fusqkuQh/H+SkUMjekyr1dVWhcO2HjJnaCGSHCtaWVjweLBNjEQxUKbqhsiKfSNK3bCFEu33zkFz6cTsJG9DgpL1UeLoj+duiiWu5Gs01MO5fDzmQbDPE0usawS52zUfAdyZZ1HFsJoNEgrgUVKEi5Kv4MwJvobAqbEka3fZZyIhsB0X415IdpXde81+0tHF6+BxIA1ZdFBUYpWoLgAzfbS92lVaid4JY+1ycFu5lMNbnGj5kjAM5BYxuY5MTCKo8cHpBs5EVVEOnG2dFbRFiYRMqGB6jAJjE4rEiulGa8n5JJEyS4LJG4ygIWLFsp9lKhUVfl3xpLj8SjS7IeUSEueMeGbx44excrVq7Rkp88rtaH5bOmEaBww7MQgTbsDAUkXJEzTKL+CGGMsmaGnKMNFLNtDz2SlIuYAgRu0m4icIgqMgqMlHlQnFl+kK8QgZXVSI0JE/vpOeZEkahYu9wRjKA4fgjfeLofTF2tGKTUqL9Bf347ieL/pv+uVInfl5DDKmUn4W4hQM2EMc0AVIG/zdgOmsZyxU025HVWxWU+LXlXxSImXWWS2SA+DdTZSRjpQUP0sZKsdCsUOrOK9eZjU66wJLad0BDRqs9KMMg+1uWfL8amq3+pEtDq3S9JYInGdXSvVHBNZYuM2xdEtue1khOIdbuE42MTZpI3fJCrgDhWZq92ILSs9XSzK/Gi0UQPkkHMle82SwyZMZ1oKOc4Hx9tenRnrb0uZYmFAikuvaiEziNflYON6EpnSXCTw7AQ8Mp7E6NikqMJUOVlcmmobHUJUo9PZNFpaWyVRnQRQLFHaTqCQy4u6TM8zXx7T+ZjMQFuaYaNiQSv0p9JpPYc+n5SapUd7aioljZOXL1uGPfv2iWd6xYrlEg6i5B48OSge8HKpIs4rOqR4+KhGDwwMoK6hwfRpojqeQSqjanxzc4vEhFkfi0TNZ8ejcURijANrSKmjow3xAN389NASvWS6whMEISAMI6lMfWSRcDbdzqkTpqGaaj1lHmATijJF7RycrEOQ1TirBWQoFNJUv2BlTr9KAla/EGgj1WbaXdIPiQfVFFM3jcFEPWScMxCtVtwQOKgJx2h3diPNVaLbvZzN9HOcWFIhwxRsN5rRzOR8K9GVGdiUPyV9SdKX55KpmHUb2rRHWXv+GoimMYStsDVcwxWiUQegMi9t4u7kSZs64KwsUvVUO7qD01ZFv6k63KyJoHtl7XeDuDLMiEAOAflzfeJ81OokWoVkujpvHWW2z5X2ZLaMT80UfdCp982RgAvo7ND2om7v3OhEEmPjU0IA/FBikXtQorISB5MDKNVYRpYZQeTgU5MJKXpdV1eHWDwqMUQ6qYhPpoOKISLiqHltNpcVsAU9xrR3pSWLB+g91INVq1ZLZYvJyQlRqS+77DKRsiRuKaTd0CiQR86FTi06q3p6emRsMhibE5yTZw9JbJiaAqU4vdNU6YuFErq6OmQ8rocqua+cEaCHsw9SUdLaMaZEjTudztiprESp9qtJk7PxYtvaxTjFyiRGU+BO1FsSJDOKXB0MbapakU2vTc6tlLUVW9e0JDV1rzSdjZlFBRlH8oPZOYElaq1NJYkOtpuBOSSGIkTdM7WIp3uVHZKpdvyTgznT1rSGsPneZNZoNwStAqqf2YCPVZknPzEGK4XYVUpZj65DAHpAja1pMOJSCsikWFpUm1KDa642eGxRVebP0ziVai+OGcocDWljaswCAdDoGq2jzxK4MA3htdajbwovmOXNDFtpAzi+ciMUXFJ3pt9gjio0nVhN8m7cQO/jA8MYHp2QQ0nJRQLjgmjvMvWOhJfP5wSiGA5FRFKzQ8JkYkoIs66hTrKBOCkSGqGTvJ9JBlpH2i/Epm1OShIf5mHs7enBypUrhJBI/LSLmSpIW5uEKo3WfD4leEDu5xxpf1Py8xp+aH9TAlNy06Zub21FwISROC5xyw316myz9y9f1CkIM3m35kBpF3q+IJMwLsB+06FetEhWwmAivek9ZDJ+NDpEFVCJh8n4UlfKELnEj71evHRsHw4NH0WumENDJI6rF1+C+XH2ZzKNxKTkq1HpZSKK5pI4tbHTBMVFYIa8RP5nmmlL4Fg92u7D4UhUJ2Q0g5hkjupM01NtYKIzYqjVu2xFDWPtyYItOMMSk+Nxcm5TyWlsY4Fq2nYsvERVeodoLWFKI3FTvdOxL3VIx4J07GNDzCZmLDOQ/zMaC/fPtnqRHHD6BrRGmFOOwKFqE06z78NFoErUhiMYMMj0hms2BVLYml4qzJOvR2uuOaFw16s4AwGXRAKSEIlS6epgQr/NANERhsampOg6iYwEQ8eUnGtxmWtLTaqfPPDa0IyESidRTmpIUQqT8ElItIvHJsakKiQ92pSQHJNEQWcSCZTpfMwnZkiKEpH2suWkHIO2OCUnCZn7FQ5rHjDnRWZAAiZGm/PVa7Q4AJue0XamrdzY3CT7xFJBJ44dx7yOdnGksYxOKp1BUx1zkn1KIHy6VTUF1VRVlWwOp0oJ691UnLTcZ7ryyYE0lS2FgGzKHV+e148d/a/iud5t9ihIrLwuEsOfrrgarXUt1fK1oiaXta+vI921CJyiL6pOLmUQCr0UlixF22wam4FOSpjKMAMTE5V526oWjo1q7UCrbmsvoGq81wVRtIgyB+E0mzLuOp3W+yqOJqqglgjNvIwnXqWbcdpZuerAHY0jydKpM7wyBakFJtlbAY3ZilPKMAxbcdPeI9qMScaw5oVp2iaZY+5a1a49c7M+a+7Ln22Na4Oqm8EiVd03TkM5Jzam7xp7jhL4VBuYg58cmcRkIiVb5g94hbg4QRIot40eXDqb2E6ULnNJmBfHlHqZafuyVA0JjepuJpfBYP+AqLl0cPEQ8PwxxMNKkfQa1zPXOBSWUNL69evFM2wlHxuWUWVnG1Hhz6KG54UR8DN48qSgtxYtXCie6Lq42tWcc3IqiUOHDqGlvU3glAxdEerJWDTj00SaSY/jUkZVMpaNMV0PxIElxeyqTqVSLgN/JGow0kQ90XkUwsEDB8Wrft/9D+HSyzbgsg3rJLuKzbS37diDtWtWwe+twBeMIlcq4vZNd2lXQNEq/PjQmuvxWM92zG/swPWL16k9R/ZcYSVtlazqbXbBAKUeVkgBFiLF5Og6+2IdTtr8enpBOSvU9F9j87kO0HSVTj2wAiR1OWtE2jsndybRmqQGDYqZPGO9n/a8hJ7ES2ylmwp8ScsgPZkODSRCaXzmtHXhhE3PYWviGoYkkpNhMwmjGe3JMLGZRFS1d2e1/J2CeHKf0aJE1bZ9nK0fw3qVT6FSFvun47QkCS76mWGGiLCghhXU6sWuqcxRAs9CwKggmcyi7xiL2Xkl5krUFes2EZ3E5mFUpSlZKdmotnIzmLBAKUIJTNWWkpnS1gLEWWmC6jXtaRKM4m+9IqUTU0kBW1BqMy1Qw1FReT6lPomSnmUeQjrCKLl5P+9lIj/x17FYWCS1EngJobCq/YxVU9ugPb1o4SKZM/dxdHhUki94CFlvurkuoDWaTaUL2epKCY/++gmMjI7hE7d+CHv2vCI1rb71ja+IH0DwEaWS2Ni//OU9WLpkkYzJ/OPWliaMjk+isbEJf/f3/4ivfOkLwjRIk1OZBH629SH8+YXX48Uju7Bh/mq8dGwvxtKTWNG2CO+64BpVha0X1MRZPUx0CJiuika1dryqTFwg1tnlHRbmIoJ6NhvWYIatlDY23il2myFw256mqlq7D6TVW6ugDGlz4paKphg8zRIbN1ap71YxrZA0TjpXUXw3ARi3mJONJnXOpASudRIpNFSuczOcWYhstq+EuGU/HIeBE5+vqsGcK21a74z633am1keg0FfNOHNVUXE/2ODuxWQzTJQEzJK99NMIvfA9fe97P1AtyyYlz/RLzHGBtctqO1DbgTdgB6x0N0zY893vfr/iJ4BfXN61T20Hajvwh74DlLgUukW2zf3BD35QoVpa+9R2oLYDb64dkFJGt99+e8XBs7655l+bbW0H/uh3QAj4j34XahtQ24E36Q7UCPhN+uJq067tAHegRsC1c1DbgTfxDtQI+E388mpTr+1AjYBrZ6C2A2/iHagR8Jv45dWmXtuBGgHXzkBtB97EO1Aj4Dfxy6tNvbYDNQKunYHaDryJd6BGwG/il1ebem0HagRcOwO1HXgT70CNgN/EL6829doOvCYCriVB1A5QbQd+vztw3gRcGD2MbM8mU33v97uI2tNrO/Bm3AGp7eH1IcKuHC2s+XbuOfnnTcATT30f5ayWq6l9ajtQ24Hz3wFvuA6NN33pvAY4bwIee+TvTNeJc+ca5zXT2k21HXgL70DTu/6PWTs8nm3Jr42AZ9SOPtvDan+v7UBtB2bfgeY//dvz2przJ+BH//68Hli7qbYDtR04dQdqBFw7FbUdeBPvQI2A38Qvrzb12g7UCLh2Bmo78Cbegbc8AdtGHr+vd+Tubze9293va0a1557fDkx/k7OPYes8vnERlrc8AXOj2fneG6lHYbhXuu+9sZ8KfI3zpc9uOTn6xj76PJ7mb+iU/kOlycHzuPvst/hiTYhf+mEkd96P0uTAGUEIROz5m7oQW/teJF/+BUrpqfMKmZx9Vme/gnvir2uDN9Ig50jOVLhOb+S7TU+hmB4zzbfPPt7rdcUfBQE3XP1p2fD0oWeRPbRplr07TV/GmR2d57zr7vE8aLjucyhO9CO5+xGne97ZhzrdnM5+5+xXzG28+qs+KX2jpl74z/N90Gnvo3zyx1vRcN3nMfXiz1EcPzYLAbvnWYG/dSHqL70VE8/ejnJ64gxzmtv6XsuiIitvRGjBxZh8+nbELv4zBOet0ubc5tHZwy8i8+rTr+UR53zvW56AfXWtaLjmc8iPH0Ggfj7Gn/gnadvJxk+h7nUIL7xMOr5Vskkkd92PcmZKOGt83fvgCdcDxTyyJ3Ygd3grPKGYvDhfjC07S8j370Xm0PMCTGm46i9RTAzC39gNrz+EUnJYpExo4QZEll8nDamKiWEkX77TgZH6Wxchtvpm5IcPwRdrRnLr3YisvAGBjgukKXcpPY7UrgdRzqXga+hAbM274Q2EUUwMwRdtQn64B+lXn0T95R+Tw53a86h0F6y74uOoZCaQ2v0IvOG4rMUbrkeFjd0G9iLT+wJ8oThia98HX6QO5VIR2UPPyfPqr/qUHKJSahxTz/9bteGsxyPrCM67UJB7hZFe+Ju6df25BKIX/TlK40fhb14khzp7+CXkju8SZhBZeROCHSvl++LYYYS6L8HUiz9DcfyEthj1eOAL1yF28Z/DF22UVp65o9uRO7IV/pZu1F/2CeQG9sDf0CVzyxx4GvmTB3TsFdcj2HGBQAtLmSmk+A6zSWlUHlv3XvhjLdp+drQP6f1PwhuIILbuPfBFGmQ/sr2bkevfK2uKr30P/I3zZZ6F0SNIvfJb0yJWVeLIBTciNH8tJp/+oZwDanVTm38mTbZDC9cjsvx6TL3wE5QSw+dMiOd7w1uegOPr3gtfXTtSex5G3ZWfQmLzf6IwOQB/tBH1130e+RO7URg7hujKG1DKJpB4+U7UX/kJeAIRZA4+A3/LEgTbl2Pqhf9AdNU74Yu3Ir3/MSFicuTkrodQGNiPxnd8VQ9Xzwvw+LwIL70GxeFeZHo3Ib7hQyinx5HtewnEgtvej4GO5ai75EMoTvYjP/gqyslhxC65Rbh4OTuJ6Oo/QXH8qBy8hhu+gFJqFNmj2xBo7EJowXo5eCRw/q2cGkFi669kDg03fhHl1Jj8TonKfraZA8/A19CJ8LKrZA/IJEIL1iK5Y6McSk8wjNSuh+V6EgafWRg66EhIf2OnEHd+4BVZQ7DzQgSaFyO55yGUM5Oov/xW5IcOID+wD8GuNQi2rcD4Mz9AoKETsXXvQ/74ThQnB4Vp+uu7MPWSErB+Kqi7/GPCZNIHn5Zxg52rkdxyp7Rn5di5gX0onHwV4WXXwBuqAyG5gbaliK//ALJ9L8r+klFwjxIv/QJ1l30YvroOIXaOG1l2DVJ7H4E3GEdoyeWy7uC81fBG6pDc8ivE1v45/M0Lkdn/JNjZL7r6HULc2d4XFTk4GwGHScDUVCrSzbHpnd8QBknG+UZ93toE7POj4fq/Qf7EHnnJjW//qkgGvtTQwksQXX0zJp8mNjupx4g2V7wZDdf/NRLb70H+5CF5OWxgyl6zTW//mhyQ4thReaU8jOS2iZfvQuPbvyJEmN73WxknzgPROB8Tz/5YVMbSxAmjQlcdHIGOFai75IOYfP7fZJz6qz8lNlbu2E55Lg8oJXNi272ov+wjmNxE7n4SHn/YPG8/UrseQsMNf4MyD+7Wu+W+xhtuQykzitS+x9B4/V8jN/CKqp9eH8KLr5CDWUqPIXbhzaLGZo9sRWn8BErFLBqu+qSseGrzT7WXsJHBkWVXI7riBow/+T1Uckn4IvWov+6vkN73G5F89Zd/FBPP/zvKyRH46jtAs2Vy83+KyknpO/H0j4BSHoGmBYhf8XEkXrqjSsCVChrf+Q15R5n/v73v8I6rOvf9nTNzphcVS7IkF9mW5SbLvckNjKkxnUsgJJQHIe9yc+99Wa/9C+9mvZW83MsFmyQkkBBMCQQILQRs3CXkXnBvsmVbtqXpfc556/vOjCQX2dIwkmZGe6/FwpL22eX37d/+yt7nfMe36UmrU6kxSQM75z0O36bfIhm4DGPZeDhnPwLvxjVsWUBWdEtB02CqmgLHjPvhb3kTjjmPIbTvU0TP7tU3tWXPcxyC2nfUfw8J7xlET+1AvPMMa1laJ8mIDwnaYCXAXDVdl+32t7s2sWs0cA8CUx9Ft/4UCf8F3hAGqxQ0gWVHCYoWP8eC0eIRGBxkTiXg+fI/mHy0gDvX/yebz2lNINtLULT0efh3vIt4+7HUAtaji0TgeMdpJmo6oqzFgkh0tKJ4xT8jev4gE5gKmYNEYO/GV5jA5AOTFaAXnRi6Bn6YtQlpf/eiJyGZrAgdXt+d7Jq6TsRYo+gEbueE3bRYYhcOIbjnI7iXPgctGoav+U+sLYpX/iuS1N+Bv/PCDR/bkjLr9Hkkgx1Q/ZcgW+ysSa3jFiAZ9sK79XW4Fz7BeWp1zZIuGms+InB6rGQ+Ek6h/Z91Edi76VXe4AzOMrgbn4av+Q1dG1dMhnfDGqgJInA1XAt+2GVCp3sovu1fwT7ksW1dyblpAzGWjoJr3hPwbFiNZMiTev5H8Gx8hU1k2aDAu/G33Ixl9EzYpt4BX8tauOY+ztYBEZjaIbzUqB++La9BMjtgqpwES81CkPz8TW8wTnHvecTa9nXPOhbq2qzpl70RmPNTp3x7Mrujp3YOFn9RoATWjR7H7IdAUdXIiW261SoBtkm3IrDrAyaCe8lziJ0/iPjlVtgmNrLf59/+DlzzfwDJ4kTkyCaQn2oqGcuL2zZ5BWuX8KH1MBRVsWlNJiyZhqTdyfQkM5kyr1vGzkGs/Sj/3bXoSdZ+keNbETuXJn+KwDMfhufrl6FGfDCWjoFzzqMIH9sMLeKHZdx8xM4dRLR1F5vFtICjZ3axL2iunKqba3s+hm3KCljGzEHo8AZQenYiWvzycfhb3oVr/uOQTA7dHSiuhlJaA1/LOzBXT4NSPhGRo5thqqhlk9rz5a/gmHk/+7HhI1+zJUDpqWm7MbpHwrXoKZ4T+b9EfGovtPcTJj+ZwF7SksEOjta6Gp+Gv/kNSIodjlkPIn7uWyS8Z2GqboDRWXGVCQ045z0Kg7UYoWOboJSM1d2W5jfZtCcychAr6IGxZBSc85+Ad9MrbJ04Zj2C6Klv2Iy31C5F0nce/pZ34JjzMBRXBULHtnC8wDx2DstCNtlhqprKvrsyYhz/2/P3X8FWfyeb/TRvMtsto2chfHQT45/axWGdfKUPbHSNZBeJrCYyx0nGvk2vcoLwwSoFSmBwEMM1/wlEzuxiUyldnHMeRsJ3AeEjm2CqrodlzGzIipnJQb6LGg1wEMtefxdkWzFr7mjrTkTP7IVsssE2dSUvQNLkFKSJnGrhnYFM6PilU5Btbq5HRyTB/Z+z1jFX1MFcM48DWeynUrZ7IkXpGNgn3wZfy9scqCKiWMYvhLlSXwy0yQQPfAE1FobRVQ77lNsBk5W1KxEodv5bJjBpZPL1Jaubj6okxQI13MlBLQ68TbubF7uWiCHWtheRUztY05MFQhuSFo9yLCByejsvRnv93YDRAv/W3/PGp1uzEszj58FcWU8voyLRfgTG0rHs8+tBrLsR2PE+m+pk+ThnPoDA3o95DvTeKmlhDSriF4/BVDYBASK+L31UJUGyODigZ3SOYMwIV3J96PTAXn8PAtvfYSvF6C6HvX4V/DvegRYOwFLbCFPFRPZBSfsH938GLRpiDOz1d8LgKOOgYfziUd6sCCvS0jzvRBSxtgMIn2yGJMkcc1BKxnDWetqkQoe/7opXsIavmQtTeR38LW/DUrcUptJxjIuWjHJgkeIMtF4GsxQsga8FUVfB3cfx6Z/TOqbbXLzyBWk6AaTfpHxX+p8KPjro8mbJh1vxL4icakb4eJMe1Ej/NXXM0O1PXt0fO9+pxlI+Z4+f9RGnze7U6CUJRSt/hviFw6xVepq63aPqMVM2P4iI6aMWKeUB6GOhv/Is01nc9Z9Sc6Ck0Ppzab+060IK19egdj3XYySpv6XHfvWFGn1j6O3ig94nDbd7A6GWrmlFR7qrkv739ENds01D0QXJ1bJP/Uy+Nz3PYuj94sa1f+n5m75c+MgexYcRgbMH2vU2Bw6QnWjm/wa8SBKKV/4s5QN/fIOlNuAjER0MMQKCwFkSgHXKCiQunkD80okstXiDZsiXpyMm33nEzuhRVlGGJwKCwMNT7mLWBYKAIHCBCFJMY3giIAg8POUuZl0gCAgCF4ggxTSGJwKCwMNT7mLWBYLAoBP48qf/p8dZW4GgKKYhEBgiBAadwB2f//yK2y1DNG/RrUAg/xGQJJTc+T8HNzNDYPcH+ssAqdtB+Y+imIFAYHAR4PtmkszvQdPd9UxKxt+FzqQz8YxAQCDQE4GeV0ozu7opCCxWlEAgjxEQBM5j4YmhCwQEgcUaEAjkMQKCwHksPDF0gYAgsFgDAoE8RkAQOI+FJ4YuEBAEFmtAIJDHCAgC57HwxNAFAoLAYg0IBPIYAUHgPBaeGLpAQBBYrAGBQB4jIAicx8ITQxcIfDcCZ3b/WqAuEBAIMAL0De/UV69TOaT6C0zGBI572pD0nUvl/ulvt6K+QGB4I9CVBZlSsrpHcvbHKxMR9A2fjAlM2fAMRaP7kei6bwMStQQCww0B4hLlaM6kZE7gjlYYSzLrNJOBimcEAoWKAKW5pZzGmZTvQODTMBaPyUTrZzJO8YxAoGARGCICCw1csCtKTGxQEaC81Jlas99BA2fe6aCiIzoTCOQ4AoLAOS4gMTyBwI0QEAQW60MgkMcICAJfR3haKrl2V4LuQRbwUPff5+mmLuPocHG27j4/2p+KVyb47s+TvdRNyVdLJiHJBv0MlRKN88UI+jF/bhkJAl8lY5Jt0ncWycBlmCqnQpKNWVgx/Wsi3tEKyWiC0VXRvweHoHai8ywANeOzyJsNWQ17Edj9EWxTV8LoGnmz6n36O22QWiwEz4bVMFdNg33aXYi27Ufo4Jcwj2qAre6WPrWTC5UEga8jBd+215HwnIOlbils4xuvqaGpiesSu/ffJyGRdpLka3ujxZT6SHf6j97Nr8LgHAFHw329rxFN7W6P2tBIm1y72WhqWsvcaLldq3F6nUsyDsmgdDXma/oDtGQC7sZnrtsBtyMZrqOde6hv1npXaW9NBRFNDXXCs+k3cM1/HErJ2D5zhufdK+YqYx49vRPGolEwukeic92LkM0OuOY+Cslk63M/Q11REPgqCSTDHni/XgPZXgza/YtX/gwgYmhAwnsGwZ0fQo36oRRXwT7zQRZ63N+O4PZ3oEX8fLXNPvthGMxOqIkYQgc+R7TtAGSDAuuU22AZNQPxzlb4m9+EbdItCB3eAElT+W/m0bMRPvw1IieaeFSyxQH30h9DMpi4f18zkSUGpWgUtGQc9vpViJ7dzZqDSGQeOQm2aXdBMpihRgPwtbwJNdABU+VkxC8eg6lsIiwTl8C78ddwzHwApvI6qFEfPF+vga3+LliqpyMZuAQ/zSXshcFZBvvsRyBbXEj6LyKw5y9QAx4Yi6v4+WTED//W13UEjUaUrPzvXWiSeRo++CUiZ3ZBtjhhm3wbArv+AveiJ6Em4/B/sxaWCYsRPdnMc3PMfojvBkhQEW3bh+D+v0GSZVgnNCJ0aD2c8x6HUqoTOBkhGf0a9vq7YaqeBkmT4NnwElsBjvp7ECTMz+5l89g2ZSXMVQ2Ie1rhb3kb9ql3IHyiicfhWfcizOMXQoKM8JGNbEor5eMQv3QS5qp6bp/GFtj5LuIdp1G04l+GxCK70SYhCHwVOsG9H7OwHA33wt/8JzgWPAGlqJpJ693waygVtTCPnAL/rvdhcJTBMeN++Lb8HsaiSpjHzkP48DpdIy1+FsH9nyLReQaOmQ8yaYmc9oZVkMx2JrDBWgTrpOWInd2H+KUTsE+/B0Z3NQLb34JsdcNSu0QnK2sowLftNSS97aydq5mlbQAAF3hJREFUzWPmMLEC29+FtW4ZjK5K+He+B1P5BCaLd8MagBbw5FsQbz/OqWyIyNbapTqBZz3AaTnUiA+e9S/DPv1uJpBv86tQysbBOn4RQkc2IOE9D/eS5xDY9QG0ZBT2+nsQ2Pkek8U+ZSV82/4ATVVhn3ZnF8FouOET2xA+tB7mmrkw2Ip5k5FUDc7Gp3jz8W17A0pJNZM4cmwLEp42uJc+r28gO/4Mc0UdlPJahI9u5o3UOe+xHu1rjLlkdcM56yHELx2Dv+VduBqf4j4TvvMsF9qMQwf+DkfD9yCZ7PB/8yZkgwlK1VRY626Bd92LsIxfAFPVdHg3roZSOo4JHzm2GbELR1B0ywtQYxF4N6U3i+m6r0/CyJEiCNxTEGoSno2/hlI2AbaJS9msstTMg61uOaJndiG473O4lz3PCzIZ9kKLR5D0tiF08CsULf8nSIoZaiwENRaE0VGKzvUvsYY2lU1gsZPJRlrNUrsYgea1cMy8D6aRkzlHlGfjK5BtJXDN/Qd4N/+O69Em0rN4t70GLeSBe/kLbMb6mv6IpK8dlpq5XC3WfpQXrXP2I7xBONnsHAM1HoZn/UswldfCOnEZvBte6SIwaVHv+pd0bSPLCO79BFZqT1aghj2Itn0L95JnEDnZgtiFwzBXT2cNbCytgWy0oDcTmuaDZBxFy/+RTf3I6R0IHfiCSUYE9je9CdeiH8HgrkTSdwG+ra+xmRw9fxCxtv0oWvYTSIqVN1PaSHtqYFKLZLnQxue+5QUEtr8NNRaGc+6jrFXpcr+RtLWmInxqB8/bPGoG/N+8Bef8xxgTkh3J1zp+AW9qHZ/9G2tz+/RVSHachq95LdelDSxKGnv5f73CdcgR/kIQOCUJ8onUoId3W6V0DAz2UsTOHSDvlHfi2JndCB74OwuSNB8SUWhqnEkTPrgORbf+EySjmU1cLRGDbLKjc92/s/mopC6bkz9osLphKK6Gv2ktHHMeZnITu72bfgPJ4oJr3qM3JDCRwr34OR61d+tr7CNSIIYKtU/awVQ5hRege+EPYSyqhpaIwrPuP1mj6QReDVvDPbBUNSAZ8rC2ttXfzW4obVLmUdPZ/CQfVNKSsExYwnMj0zZ+4RASnW2sWWlj65XAG14mJwBFS59n/zZ6bh+Cuz/uJnAzEfhpGF3lrHVp0yICxi4cROzcQbiX/QSyYkHCcxbebX+Aq4cJTXNNBC/Dt+m3cMx6CKH9n/F4zNUNTGDyaY3uKvZzoSY4+CXbitmEdi/+LzA4RvRKYMf0VbzBMF5l41j7kwzJZcglzZveQASBu702BHZ9iFj7EZiqpuhGkiaxL0XCM7gr2IQ2j50Fy5g5oEATLTDnHF1jmirqYJ18C7ehhrysqYO7P0IieAlFS57jdkgDkakq2dwINL3Jm4R91gOIHm9CpG0/7FNvh2XMbCYm9W+nfq2uroVDJrSaTKBo8bNM+uiFb9knt8+6F4qrCp6tr8FUMhrWKbezVjVYnbCR+X5uPyIntzOxHfV3o+OLX/CiJK0WbduLyLGtrIENRVVMCtOYmbDX3QrKIkkLhMjE5qfZDsfcxxBoWcvkJg0f2PFndhOc838Ao7NcR1MDwkc3IHxsK7sIRCAiD1karkVP8cZHFoK78SkYnBVI+i/Bs+VVuOZ9n6PD/l0fwjK6gbUmWQR0InClCa13429Zy39TIwG4lzzLxKSNUI2H4Fr4FGv24M4PYKu/k83tABG48Wl2fdREhMlOJrStdik6P/s5lKopXVYP4RLc8wn3417+Exgs7gE7Jvsu2lwQOIWeGg3Cu56CGiRQOkbg/ZsXBB3nkO9Kpl340Do212TnCDhn3AfZUYZ4+1GQ76zFw0xKW8P3YHRXclAruP8zxC+e4ICMZXwjB2VintNMYDLPI6e2c1+WcQtgm7icF0nswiGEvv2CiUAbAQexUhqXNIq78Vl91JKG8LHNCB9vApIJKCNqOIhF/jORKrj7A17cxrLxoEvvZEqSb0hmaXDXX6AmouwuxC8cZt+WjlBil44htPcTqNEQDDY3/57u2tIz9PtkNMD+pIN85tIaqMEOBHa+z5q85I7/0b0dJqIIUDyh/QgkxQbr+IUIHvwS7kVPs5VCQSz6t8FVjkTgEnysgb/P5nnk+FaEj2/jjYvGFDm1Q49Cp4JY6U7IIgjs/iuUklFwLniCk8ar8QiC+z5G/MJRdgksNfMZc/Kx/S1vcWzC4Ci9vgaumgZHw6oua8az7iXW5mQZZP0s+ruwtsezgsA9gewRn+DAERvQ6YBF+thDZROLTMruQsc4FB6NMdk0KfWU3ggTRTYYockGbi3eeYpNaNfiZ2Cwlej9GOgISNLN1iuOVLoH1bWIroqj0JEJEZvOjnUzL9Ux3U1Q4xxF93z572wS2mfouWQpGEPBJ/0iw5UN8kWSRAySYupeuNQW1YyHIfc8ZrlBTIe3QGpH7p57L3B3j4GHTmMjdwA39zuvYlZ6OLRJQDLwxpk2fa/F9moWdU8mGfHBt+EVjs5TRDrHYlddAxcEztJO2OdmNA3xTgrMvKn7Y2mzs88NZFBRU9GZIjBpYFF6RyBN8sCO91hORbf8NLW55iZqgsCDLBe+6eU/z+ecjhn3ckR7wIumwffNWjZP2UwX5YYIaLEAH5uZRjXAXDU9p9ESBM5p8YjBCQRujIAgsFghAoE8RkAQOI+FJ4YuEBAEFmtAIJDHCAwJgelMka6ziSIQEAhkjgAdetH5fqZcyvibWLGLR2F0lOfkzZbM4RRPCgQGEwH9rD/hb4dSVpvR6xUZExiq/j4mldx5r2MwwRd9CQQyRyDNHb0FOfXec/+ZlDmBMx+7eFIgIBDIEgKCwFkCUjQjEBgKBASBhwJ10adAIEsICAJnCUjRjEBgKBAQBB4K1EWfAoEsISAInCUgRTMCgaFAQBB4KFAXfQoEsoSAIHCWgBTNCASGAgFB4KFAXfQpEMgSAoLAWQJSNCMQGAoEBIGHAnXRp0AgSwgIAmcJSNGMQGAoEBAEHgrURZ8CgSwhIAicJSBFMwKBoUBAEHgoUBd9CgSyhIAgcJaAFM0IBIYCAUHgoUC9j31yjgFKAp4qnC2Cf3m97A9dtTh3riTJsIyd3++vLfCL5qk++v96eR8nJqplDQFB4KxBmf2GKG2Kr+l1JIOXmFSybIRt6kqYKut77YyyEvg2vKxnZFxGaUH7OS41ySlPjSVjOXm5KLmNgCBwDstH01T4tvyOczhRNsVEoB2R402chZBy/BKp4x0nOT2psaiKswRSoeyMlM/XNGICE5hSfyY6WyHbimAsqenK20T5denbZpQFSikbz7l8E95z8G9/l5PBWcbOgTJivPjuWQ6vEUHgHBYOZSXzbnmVU2naG+6FBBme9S/CNLIO1roVCO5+H/HOM5zJkJKEW+uWwjq+kZ8hE9q56ClET7YgdOgrzt9EKVONRZWcqS8RuIjA9nc5ORol0eb6cx9F9MJhzixICd6Mrko45jySSi6Wy0AN37EJAuey7FMEhqzAPLoByc6ziLYdgHP2g5we1Lf1dTjnPAxj0WhETrUgfHQT58EN7HwvRcjH0PnVr1iTWics4UTbvu3vwDX/B4gc38aa27X0x2xl+7e/DYNrJOfZ9VCC9BHjYZ9ye8od7q8dnsugFtbYBIFzWZ5M4N9Ci0c5RWci2AnXgsehFI9B9GQTggfXsdmbTkeqxsNwzXscoYNfsta0TV4BX9OfIBktbFJzys94BNbaJZy/mPIgO2bqmQ71gBnnMu0m8NTboWkSxcxEyVEEBIFzVDA6q7pNaEqu7d3yGmx1y2CumY9Exyn4v3kLjtkPwegqR/zSSajRACxj58LX/AZrYPush+BdvxqW2kWwjGpAMtjJWpgSbgd3fwg1EdOTdQOIntgG2VoEU0WdTuDSGtin3ZXL6Iix0aa7Zs2aVCZpgUfOIaCp8G7+HfuvjhmrENj5PmKXTsC95FlIJhsCTW+AtK7RNZJ9V0t1A+zT74GHfGDIcDc+jdCBLxBp3QlTxUTEO89yYm/34mcQu3icSSxbXNCgQov44ZhxH5QRE+BrWYukpw1KxUQ4pt8rglg5tzC6ByQInKPC0ZNUA9HW3Uw6paKOzdvIiSYYHOVQyifwh/WjZ3Yj6T0PpaIWphG1PBsisAwJrsZnuE6i8zRibQfYx7WMntU142TUh+jJ7ayBrTXzIJntkDQJmqQh1rYPWiIGy6jZgCxs6BxdJkID56pgMh6XpsGz4WWOTLvmP5FxM+LB/EBAaOD8kFOfR+lveQvxy6dhm34XLDmemb7PkxIVe0VAELjAFkcycBmSYoFssqeD0/2/jVVgmBTydASBC1m6Ym4Fj4AgcMGLWEywkBEQBC5k6Yq5FTwCgsAFL2IxwUJGQBC4kKUr5lbwCAgCF7yIxQQLGQFB4EKWrphbwSMgCFzwIhYTLGQEBIELWbpibgWPgCBwwYtYTLCQERAELmTpirkVPAKCwAUvYjHBQkZAELiQpSvmVvAICAIXvIjFBAsZAWnNmtWaeN+skEUs5la4CGiQXnrpZc1goC8WiiIQEAjkEwLJpAbpF7/4f5rFYoLBYMinsYuxCgSGNQLJZBKRSAzSL3/5S/FVymG9FMTk8xkBEcTKZ+mJsQ97BASBh/0SEADkMwKCwPksPTH2YY+AIPCwXwICgHxGQBA4n6Unxj7sERAEHvZLQACQzwgIAuez9MTYhz0CgsBDtAT05GWUNEyjLKJc9J9FEQj0HQFB4L5jlbWalDGQsgAizVfOrp3Osp21bkRDwwABQeDBErKmIRm8jITvPCfaViNeIBYGDApnEqT/DI4yGIsqIcnGwRqV6CfPERAEHiABdt1PTcaQ6GhF6NBXSFDiMd1Yvk6vuhqWjAqstYthqqyHbLYP0OhEs4WCgCDwAEmSfNx4xymEdn8ENRbq6iVtLV/Zrf5b9ot1ZxiS0QRLzVxYJywGJPG22ACJKe+bFQQeABESEUPffoHYmT3Q1GSGPbCnDKW4Gvb6eyDbikWQK0MkC/kxQeAsS1dLRBHY81fE249mLSol24vgmP0wjPYRWR6taC7fERAEzqYENRX+PR8h3vYtm8HZLJLZgaIlz0FSzNlsVrSV5wgIAmdDgJoGTZIQOboJ4aOb6WSXwlHZaPmKNgyOEXAtehKSQcl626LB/ERAEDgLcqMQVNJ/Ef6mP4JM6IH7xpgG6+TbYK2Zh+sHw7IwGdFEXiEgCJwFcWmqCl/zG0h62q7bWvqOxo1Jpx883Ux3U3TavfQnkE3WrJvpWYBCNDHICAgCZwFwNRqE5+uXgV4izuZRM2CddAv3FD6yEdHTO67p1T5jFZQRE5jC/ua1SPrbr6mTvn5pGb8AtonLBYGzILt8byLvCKypcQT3fgJTVT1MtOCz72r2XaapS8yhQ+sQPtncq99rHjsHpsqpiJxoQjJwCWqw45oItbGomo+KbFNvh7/5TSR953sdh8FVDnfj0wNoqt8cArIXvJt+0zVng3ME7DPuH1Jx3HzU3TW676IDaiyIROdZKMWjAMWW7fhjf4bV77p5Q2BaMFoshOCBLxA/T1FeA+z1d8FcNX0ISazxOW/nl78CkolewTePnQ2lZAxraNleQkqWfeXgvk/gXvJjJIOXICtWRFt3w1wzF/6Wt5H0XehdmJKEohX/zM8MXdFw+dOfd3VvdFfC1fijAQneDdgc6bJN52kEdrwPLRGBZLTAMfshXVZ5UnKcwN1eo5aIwb/9LSQ6u/1M+qtt8q2wjJkLSR7820q0ixP5fJte7ZO47TPuQ3DPR6DXj5zzHtMJvPTH6Pj8/4K0tKRpiLbu7ENbGmxT74BlzOw+1M1uFf22mP4iRsdn/3YlgRc9ycE1ml9evFmlAf4d7yB+8XjXPJSKWjhnPZxd0AawtRwnsD5zNRGFb8vvoYY6rzUbJQnm0Q2wTb1zCHZ/ui7ZyiZvX4pjxn2849MqN42chOC+T+Fe+jzf2jKWjEWisxXR030jsHlUA9/QGuxCXkOsbS+0ZAyhA190yUO2umAZN5+tAmXk1Nw3Q1O6wb/9XcQv0qUb3RdTymvhnC0InLV1lfCeQ2Dne1AjgR5t9ozn6tFb8ont0+4CZMOg7v6x8wcR2PVBn+arlI2HwV7K58Ra2I/45RMwVZMLQDpNQvzyqesGr67XuNFVDlfjM33qN9uVSGPRnInEPQtdMnHN+wHIR8+XEr90gudCSkI2muGY9QCU0pp8GT5yXgPH2o9Ci/gRPPA3BpUWP7+1oxtrXccujoZVkJ3lMDrLBhX8WNs+BPZ83Kc+Dc4KyBaHblXEw1D97TAWj0bC386aiwJcfS2k8YqW/2Nfq2e9XvzySQS2/xmaqvv+stkB58IfwmB1Z72vgWxQj60E+Y0xY8loyKb8egMs5wlMPpcWD8Pz1X/oC8XqhlKpm2iRY1t1EktA6R3/W5fzIEelY+2HOQhy06JpsM+8ny98UFFGjOXnzKNnAgYj+43xy8eR9PQefe7Zh1I8Gs4FP7hptwNXgfz/Tvg2/47H717yLJM43woFE+mtsWTgMgyOEijFNXl1XTXnCczaKhbqIrAyogbOud/nddLx+c954RObS+78X0Oyduj4wdf0xxv2nb5aqQexPmQf2Dn/MQR2fQh7/d1sStPip/NhNeLv0y5kGTcPtkkrBnnO9PkfCZLUnY0nfvk0JJP1CstHD3Pl7l0xUgqx9kOIHNmMJMVVep7fywYYbEWw1C2DubxukPHtf3eCwP3H7IonkmEvvF+vvkErGkeYjeljJMWq35WWZFAAxVg8CkrZBGjRAJ9HEilveowEwDnnEX5uKAptWmkKpz7r1f0zAGNx9VAMq299aoAa9sCzYU3v9VkpgF0UsvhyueQJgcN8aYAK+YzOWQ+w9+tZ9yK/BE8auOjWnw5BFJoMAA3e9S/pmrOXN5D4Ikd5LYLffsn+lkaf0rmqyBYX6I0j19xH4ftm7Q0vctDLDEW3/behOToDuqyh3hY2nVEPsifTD45pSPguwt/yVq/PpOMrzvmP82eOcrnkBYGJrGoirp8vynLqbRwNGv1OP3aErJgGHef0bZ7o2X0I7vlr7wQeMxu2yStYS4UPr0f0ZMs1Y7XPepA1Ki1837Y/3PAih7F0LFzzHhv8+erfDYGaiLEbcL1Cexjd177Zne5BH3yqQ/3yHK2dKyPoPcdDc2AHwGAa1BONTDDJEwJnMrXBe4YCIZ1frwHi12rWgRiFffrdqRtouavnBmLeos1rERAEzsaq0DQEDvwNsdZd2Wit1zZIK9AxmWvRUynzWRB4QAHPg8YFgbMkJHql0LvxFahhb5ZavLYZIjCZzkrp2AHrQzScXwgIAmdFXvqRSfzScfha3r7Bp2P731mP2+CwjF8E28Rl4jXC/sNYsE8IAmdLtCmmRc/sRnDfZ9lqNR16gWnkZNBdak2SczjCm+Vpi+ZuioAg8E0h6l8FOuONtO5A5OB6aDd4xfBmraa+FM2a3VQ5BfaGVXx2LIpAoCcCgsBZXQ8pNazRWeN5PmvU4vSNrEwKtSXDOvVWWEbPEeTNBMJh8Iwg8AAKWY0GEG3dhfDxbT2u6/V4HYPvoFz/yqFSMRG22iX6RYIsf6J2AKcsmh5kBASBBxhwfhkjFgT5xvrrghehxSOpT8+mLgyQoSwb+Wsd9Gkd06gGKK7K1JVLcVQ0wCLK6+YFgQdBfKxz9eu17NOqUT+b2FrEB0mxgF8ztBXzu8x82yz1xYtBGJroIs8REATOcwEW2vB7fmyu0OY2EPMRBM4AVa/Xi23btiEW6/0+bQbNDttHTCYTFi5cCLc7t9/8yUUBCQJnIJXVq1ejtbU1gyfFI70hUF1djRdeeEEA1E8EBIH7CRhVf/3113Hw4MGcf1Mlg6kNySNkNk+aNAlPPvmkwLSfEhAE7idgVJ1M53PnziGZzDT3bwadFvAjBoMBI0eOhNksMi/2V8yCwP1FTNQXCOQQAoLAOSQMMRSBQH8REATuL2KivkAghxAQBM4hYYihCAT6i8D/B8W6C+5TieRlAAAAAElFTkSuQmCC;" vertex="1" parent="1">
          <mxGeometry x="350" y="40" width="184.62" height="400" as="geometry" />
        </mxCell>
      </root>
    </mxGraphModel>
  </diagram>
</mxfile>
